<?xml version="1.0" encoding="UTF-8" standalone="no"?>
<!DOCTYPE svg PUBLIC "-//W3C//DTD SVG 1.1//EN"
 "http://www.w3.org/Graphics/SVG/1.1/DTD/svg11.dtd">
<!-- Generated by graphviz version 2.43.0 (0)
 -->
<!-- Title: gateway Pages: 1 -->
<svg width="483pt" height="98pt"
 viewBox="0.00 0.00 483.00 98.00" xmlns="http://www.w3.org/2000/svg" xmlns:xlink="http://www.w3.org/1999/xlink">
<g id="graph0" class="graph" transform="scale(1 1) rotate(0) translate(4 94)">
<title>gateway</title>
<polygon fill="white" stroke="transparent" points="-4,4 -4,-94 479,-94 479,4 -4,4"/>
<!-- browser -->
<g id="node1" class="node">
<title>browser</title>
<path fill="none" stroke="#2c2420" stroke-width="1.2" d="M103.5,-90C103.5,-90 24.5,-90 24.5,-90 18.5,-90 12.5,-84 12.5,-78 12.5,-78 12.5,-66 12.5,-66 12.5,-60 18.5,-54 24.5,-54 24.5,-54 103.5,-54 103.5,-54 109.5,-54 115.5,-60 115.5,-66 115.5,-66 115.5,-78 115.5,-78 115.5,-84 109.5,-90 103.5,-90"/>
<text text-anchor="middle" x="64" y="-75.4" font-family="Helvetica,sans-Serif" font-size="12.00" fill="#2c2420">Browser client</text>
<text text-anchor="middle" x="64" y="-62.4" font-family="Helvetica,sans-Serif" font-size="12.00" fill="#2c2420">wasm + nc_web</text>
</g>
<!-- gateway -->
<g id="node2" class="node">
<title>gateway</title>
<path fill="none" stroke="#2c2420" stroke-width="1.2" d="M316,-87C316,-87 232,-87 232,-87 226,-87 220,-81 220,-75 220,-75 220,-63 220,-63 220,-57 226,-51 232,-51 232,-51 316,-51 316,-51 322,-51 328,-57 328,-63 328,-63 328,-75 328,-75 328,-81 322,-87 316,-87"/>
<text text-anchor="middle" x="274" y="-72.4" font-family="Helvetica,sans-Serif" font-size="12.00" fill="#2c2420">ws_gateway</text>
<text text-anchor="middle" x="274" y="-59.4" font-family="Helvetica,sans-Serif" font-size="12.00" fill="#2c2420">relay + static files</text>
</g>
<!-- browser&#45;&gt;gateway -->
<g id="edge1" class="edge">
<title>browser&#45;&gt;gateway</title>
<path fill="none" stroke="#2c2420" stroke-width="1.2" d="M115.62,-71.27C144.03,-70.86 179.74,-70.35 209.96,-69.91"/>
<polygon fill="#2c2420" stroke="#2c2420" stroke-width="1.2" points="210.03,-73.41 219.98,-69.76 209.93,-66.41 210.03,-73.41"/>
<text text-anchor="middle" x="174" y="-73.2" font-family="Helvetica,sans-Serif" font-size="11.00" fill="#2c2420">WebSocket</text>
</g>
<!-- server -->
<g id="node4" class="node">
<title>server</title>
<path fill="none" stroke="#2c2420" stroke-width="1.2" d="M463,-52C463,-52 401,-52 401,-52 395,-52 389,-46 389,-40 389,-40 389,-28 389,-28 389,-22 395,-16 401,-16 401,-16 463,-16 463,-16 469,-16 475,-22 475,-28 475,-28 475,-40 475,-40 475,-46 469,-52 463,-52"/>
<text text-anchor="middle" x="432" y="-37.4" font-family="Helvetica,sans-Serif" font-size="12.00" fill="#2c2420">game_server</text>
<text text-anchor="middle" x="432" y="-24.4" font-family="Helvetica,sans-Serif" font-size="12.00" fill="#2c2420">(unmodified)</text>
</g>
<!-- gateway&#45;&gt;server -->
<g id="edge2" class="edge">
<title>gateway&#45;&gt;server</title>
<path fill="none" stroke="#2c2420" stroke-width="1.2" d="M328.25,-57.05C344.62,-53.38 362.62,-49.34 378.91,-45.69"/>
<polygon fill="#2c2420" stroke="#2c2420" stroke-width="1.2" points="379.82,-49.07 388.81,-43.47 378.29,-42.24 379.82,-49.07"/>
<text text-anchor="middle" x="358.5" y="-55.2" font-family="Helvetica,sans-Serif" font-size="11.00" fill="#2c2420">UDP</text>
</g>
<!-- terminal -->
<g id="node3" class="node">
<title>terminal</title>
<path fill="none" stroke="#2c2420" stroke-width="1.2" d="M116,-36C116,-36 12,-36 12,-36 6,-36 0,-30 0,-24 0,-24 0,-12 0,-12 0,-6 6,0 12,0 12,0 116,0 116,0 122,0 128,-6 128,-12 128,-12 128,-24 128,-24 128,-30 122,-36 116,-36"/>
<text text-anchor="middle" x="64" y="-21.4" font-family="Helvetica,sans-Serif" font-size="12.00" fill="#2c2420">Terminal client</text>
<text text-anchor="middle" x="64" y="-8.4" font-family="Helvetica,sans-Serif" font-size="12.00" fill="#2c2420">game_play + nc_udp</text>
</g>
<!-- terminal&#45;&gt;server -->
<g id="edge3" class="edge">
<title>terminal&#45;&gt;server</title>
<path fill="none" stroke="#2c2420" stroke-width="1.2" d="M128.33,-20.77C199.22,-23.87 312.76,-28.83 378.77,-31.72"/>
<polygon fill="#2c2420" stroke="#2c2420" stroke-width="1.2" points="378.8,-35.22 388.95,-32.16 379.11,-28.23 378.8,-35.22"/>
<text text-anchor="middle" x="274" y="-32.2" font-family="Helvetica,sans-Serif" font-size="11.00" fill="#2c2420">UDP</text>
</g>
</g>
</svg>
