<?xml version="1.0" encoding="UTF-8" standalone="no"?>
<!DOCTYPE svg PUBLIC "-//W3C//DTD SVG 1.1//EN"
 "http://www.w3.org/Graphics/SVG/1.1/DTD/svg11.dtd">
<!-- Generated by graphviz version 2.43.0 (0)
 -->
<!-- Title: pipeline Pages: 1 -->
<svg width="1062pt" height="115pt"
 viewBox="0.00 0.00 1062.00 115.00" xmlns="http://www.w3.org/2000/svg" xmlns:xlink="http://www.w3.org/1999/xlink">
<g id="graph0" class="graph" transform="scale(1 1) rotate(0) translate(4 111)">
<title>pipeline</title>
<g id="clust1" class="cluster">
<title>cluster_frontend</title>
<polygon fill="transparent" stroke="#b8a88a" stroke-dasharray="5,2" points="8,-18 8,-89 258,-89 258,-18 8,-18"/>
<text text-anchor="middle" x="37.5" y="-77" font-family="IBM Plex Sans" font-size="10.00">Frontend</text>
</g>
<g id="clust2" class="cluster">
<title>cluster_middle</title>
<polygon fill="transparent" stroke="#b8a88a" stroke-dasharray="5,2" points="278,-14 278,-93 457,-93 457,-14 278,-14"/>
<text text-anchor="middle" x="312" y="-81" font-family="IBM Plex Sans" font-size="10.00">Middle End</text>
</g>
<g id="clust3" class="cluster">
<title>cluster_backend</title>
<polygon fill="transparent" stroke="#b8a88a" stroke-dasharray="5,2" points="477,-8 477,-99 819,-99 819,-8 477,-8"/>
<text text-anchor="middle" x="505" y="-87" font-family="IBM Plex Sans" font-size="10.00">Backend</text>
</g>
<g id="clust4" class="cluster">
<title>cluster_link</title>
<polygon fill="transparent" stroke="#b8a88a" stroke-dasharray="5,2" points="839,-8 839,-99 1046,-99 1046,-8 839,-8"/>
<text text-anchor="middle" x="869" y="-87" font-family="IBM Plex Sans" font-size="10.00">Link Time</text>
</g>
<!-- src -->
<g id="node1" class="node">
<title>src</title>
<polygon fill="#e8e0d0" stroke="#2c2420" stroke-width="1.2" points="64,-62 16,-62 16,-26 70,-26 70,-56 64,-62"/>
<polyline fill="none" stroke="#2c2420" stroke-width="1.2" points="64,-62 64,-56 "/>
<polyline fill="none" stroke="#2c2420" stroke-width="1.2" points="70,-56 64,-56 "/>
<text text-anchor="middle" x="43" y="-47.2" font-family="IBM Plex Sans" font-size="11.00">Source</text>
<text text-anchor="middle" x="43" y="-35.2" font-family="IBM Plex Sans" font-size="11.00">Code</text>
</g>
<!-- lexer -->
<g id="node2" class="node">
<title>lexer</title>
<path fill="#faf6ef" stroke="#2c2420" stroke-width="1.2" d="M148,-62C148,-62 118,-62 118,-62 112,-62 106,-56 106,-50 106,-50 106,-38 106,-38 106,-32 112,-26 118,-26 118,-26 148,-26 148,-26 154,-26 160,-32 160,-38 160,-38 160,-50 160,-50 160,-56 154,-62 148,-62"/>
<text text-anchor="middle" x="133" y="-41.2" font-family="IBM Plex Sans" font-size="11.00">Lexer</text>
</g>
<!-- src&#45;&gt;lexer -->
<g id="edge1" class="edge">
<title>src&#45;&gt;lexer</title>
<path fill="none" stroke="#8b7355" d="M70.4,-44C78.39,-44 87.31,-44 95.82,-44"/>
<polygon fill="#8b7355" stroke="#8b7355" points="95.92,-47.5 105.92,-44 95.92,-40.5 95.92,-47.5"/>
</g>
<!-- parser -->
<g id="node3" class="node">
<title>parser</title>
<path fill="#faf6ef" stroke="#2c2420" stroke-width="1.2" d="M238,-62C238,-62 208,-62 208,-62 202,-62 196,-56 196,-50 196,-50 196,-38 196,-38 196,-32 202,-26 208,-26 208,-26 238,-26 238,-26 244,-26 250,-32 250,-38 250,-38 250,-50 250,-50 250,-56 244,-62 238,-62"/>
<text text-anchor="middle" x="223" y="-41.2" font-family="IBM Plex Sans" font-size="11.00">Parser</text>
</g>
<!-- lexer&#45;&gt;parser -->
<g id="edge2" class="edge">
<title>lexer&#45;&gt;parser</title>
<path fill="none" stroke="#8b7355" d="M160.4,-44C168.39,-44 177.31,-44 185.82,-44"/>
<polygon fill="#8b7355" stroke="#8b7355" points="185.92,-47.5 195.92,-44 185.92,-40.5 185.92,-47.5"/>
</g>
<!-- ir -->
<g id="node4" class="node">
<title>ir</title>
<path fill="#faf6ef" stroke="#2c2420" stroke-width="1.2" d="M330,-62C330,-62 298,-62 298,-62 292,-62 286,-56 286,-50 286,-50 286,-38 286,-38 286,-32 292,-26 298,-26 298,-26 330,-26 330,-26 336,-26 342,-32 342,-38 342,-38 342,-50 342,-50 342,-56 336,-62 330,-62"/>
<text text-anchor="middle" x="314" y="-41.2" font-family="IBM Plex Sans" font-size="11.00">IR / AST</text>
</g>
<!-- parser&#45;&gt;ir -->
<g id="edge7" class="edge">
<title>parser&#45;&gt;ir</title>
<path fill="none" stroke="#8b7355" d="M250.22,-44C258.17,-44 267.06,-44 275.59,-44"/>
<polygon fill="#8b7355" stroke="#8b7355" points="275.73,-47.5 285.73,-44 275.73,-40.5 275.73,-47.5"/>
</g>
<!-- opt -->
<g id="node5" class="node">
<title>opt</title>
<path fill="#faf6ef" stroke="#2c2420" stroke-width="1.2" d="M437,-66C437,-66 390,-66 390,-66 384,-66 378,-60 378,-54 378,-54 378,-34 378,-34 378,-28 384,-22 390,-22 390,-22 437,-22 437,-22 443,-22 449,-28 449,-34 449,-34 449,-54 449,-54 449,-60 443,-66 437,-66"/>
<text text-anchor="middle" x="413.5" y="-53.2" font-family="IBM Plex Sans" font-size="11.00">Optimizer</text>
<text text-anchor="middle" x="413.5" y="-41.2" font-family="IBM Plex Sans" font-size="11.00">(SSA, CSE,</text>
<text text-anchor="middle" x="413.5" y="-29.2" font-family="IBM Plex Sans" font-size="11.00">const fold)</text>
</g>
<!-- ir&#45;&gt;opt -->
<g id="edge3" class="edge">
<title>ir&#45;&gt;opt</title>
<path fill="none" stroke="#8b7355" d="M342.16,-44C350.1,-44 358.99,-44 367.72,-44"/>
<polygon fill="#8b7355" stroke="#8b7355" points="367.81,-47.5 377.81,-44 367.81,-40.5 367.81,-47.5"/>
</g>
<!-- isel -->
<g id="node6" class="node">
<title>isel</title>
<path fill="#faf6ef" stroke="#2c2420" stroke-width="1.2" d="M571,-66C571,-66 497,-66 497,-66 491,-66 485,-60 485,-54 485,-54 485,-34 485,-34 485,-28 491,-22 497,-22 497,-22 571,-22 571,-22 577,-22 583,-28 583,-34 583,-34 583,-54 583,-54 583,-60 577,-66 571,-66"/>
<text text-anchor="middle" x="534" y="-53.2" font-family="IBM Plex Sans" font-size="11.00">Instruction</text>
<text text-anchor="middle" x="534" y="-41.2" font-family="IBM Plex Sans" font-size="11.00">Selection</text>
<text text-anchor="middle" x="534" y="-29.2" font-family="IBM Plex Sans" font-size="11.00">(BURS / pattern)</text>
</g>
<!-- opt&#45;&gt;isel -->
<g id="edge8" class="edge">
<title>opt&#45;&gt;isel</title>
<path fill="none" stroke="#8b7355" d="M449.09,-44C457.15,-44 465.94,-44 474.7,-44"/>
<polygon fill="#8b7355" stroke="#8b7355" points="474.93,-47.5 484.93,-44 474.93,-40.5 474.93,-47.5"/>
</g>
<!-- regalloc -->
<g id="node7" class="node">
<title>regalloc</title>
<path fill="#faf6ef" stroke="#2c2420" stroke-width="1.2" d="M695,-72C695,-72 631,-72 631,-72 625,-72 619,-66 619,-60 619,-60 619,-28 619,-28 619,-22 625,-16 631,-16 631,-16 695,-16 695,-16 701,-16 707,-22 707,-28 707,-28 707,-60 707,-60 707,-66 701,-72 695,-72"/>
<text text-anchor="middle" x="663" y="-59.2" font-family="IBM Plex Sans" font-size="11.00">Register</text>
<text text-anchor="middle" x="663" y="-47.2" font-family="IBM Plex Sans" font-size="11.00">Allocation</text>
<text text-anchor="middle" x="663" y="-35.2" font-family="IBM Plex Sans" font-size="11.00">(accumulator&#45;</text>
<text text-anchor="middle" x="663" y="-23.2" font-family="IBM Plex Sans" font-size="11.00">centric)</text>
</g>
<!-- isel&#45;&gt;regalloc -->
<g id="edge4" class="edge">
<title>isel&#45;&gt;regalloc</title>
<path fill="none" stroke="#8b7355" d="M583.01,-44C591.4,-44 600.18,-44 608.7,-44"/>
<polygon fill="#8b7355" stroke="#8b7355" points="608.93,-47.5 618.93,-44 608.93,-40.5 608.93,-47.5"/>
</g>
<!-- peephole -->
<g id="node8" class="node">
<title>peephole</title>
<path fill="#faf6ef" stroke="#2c2420" stroke-width="1.2" d="M799,-62C799,-62 755,-62 755,-62 749,-62 743,-56 743,-50 743,-50 743,-38 743,-38 743,-32 749,-26 755,-26 755,-26 799,-26 799,-26 805,-26 811,-32 811,-38 811,-38 811,-50 811,-50 811,-56 805,-62 799,-62"/>
<text text-anchor="middle" x="777" y="-47.2" font-family="IBM Plex Sans" font-size="11.00">Peephole</text>
<text text-anchor="middle" x="777" y="-35.2" font-family="IBM Plex Sans" font-size="11.00">Optimizer</text>
</g>
<!-- regalloc&#45;&gt;peephole -->
<g id="edge5" class="edge">
<title>regalloc&#45;&gt;peephole</title>
<path fill="none" stroke="#8b7355" d="M707.3,-44C715.61,-44 724.32,-44 732.63,-44"/>
<polygon fill="#8b7355" stroke="#8b7355" points="732.89,-47.5 742.89,-44 732.89,-40.5 732.89,-47.5"/>
</g>
<!-- linker -->
<g id="node9" class="node">
<title>linker</title>
<path fill="#faf6ef" stroke="#2c2420" stroke-width="1.2" d="M936,-72C936,-72 859,-72 859,-72 853,-72 847,-66 847,-60 847,-60 847,-28 847,-28 847,-22 853,-16 859,-16 859,-16 936,-16 936,-16 942,-16 948,-22 948,-28 948,-28 948,-60 948,-60 948,-66 942,-72 936,-72"/>
<text text-anchor="middle" x="897.5" y="-59.2" font-family="IBM Plex Sans" font-size="11.00">Linker</text>
<text text-anchor="middle" x="897.5" y="-47.2" font-family="IBM Plex Sans" font-size="11.00">(dead code elim,</text>
<text text-anchor="middle" x="897.5" y="-35.2" font-family="IBM Plex Sans" font-size="11.00">variable overlay,</text>
<text text-anchor="middle" x="897.5" y="-23.2" font-family="IBM Plex Sans" font-size="11.00">ZP allocation)</text>
</g>
<!-- peephole&#45;&gt;linker -->
<g id="edge9" class="edge">
<title>peephole&#45;&gt;linker</title>
<path fill="none" stroke="#8b7355" d="M811.01,-44C818.98,-44 827.75,-44 836.54,-44"/>
<polygon fill="#8b7355" stroke="#8b7355" points="836.82,-47.5 846.82,-44 836.82,-40.5 836.82,-47.5"/>
</g>
<!-- binary -->
<g id="node10" class="node">
<title>binary</title>
<polygon fill="#e8e0d0" stroke="#2c2420" stroke-width="1.2" points="1032,-62 984,-62 984,-26 1038,-26 1038,-56 1032,-62"/>
<polyline fill="none" stroke="#2c2420" stroke-width="1.2" points="1032,-62 1032,-56 "/>
<polyline fill="none" stroke="#2c2420" stroke-width="1.2" points="1038,-56 1032,-56 "/>
<text text-anchor="middle" x="1011" y="-41.2" font-family="IBM Plex Sans" font-size="11.00">Binary</text>
</g>
<!-- linker&#45;&gt;binary -->
<g id="edge6" class="edge">
<title>linker&#45;&gt;binary</title>
<path fill="none" stroke="#8b7355" d="M948.05,-44C956.72,-44 965.6,-44 973.82,-44"/>
<polygon fill="#8b7355" stroke="#8b7355" points="973.82,-47.5 983.82,-44 973.82,-40.5 973.82,-47.5"/>
</g>
</g>
</svg>
