<?xml version="1.0" encoding="UTF-8" standalone="no"?>
<!DOCTYPE svg PUBLIC "-//W3C//DTD SVG 1.1//EN"
 "http://www.w3.org/Graphics/SVG/1.1/DTD/svg11.dtd">
<!-- Generated by graphviz version 2.43.0 (0)
 -->
<!-- Title: overlay Pages: 1 -->
<svg width="986pt" height="264pt"
 viewBox="0.00 0.00 986.00 263.50" xmlns="http://www.w3.org/2000/svg" xmlns:xlink="http://www.w3.org/1999/xlink">
<g id="graph0" class="graph" transform="scale(1 1) rotate(0) translate(4 259.5)">
<title>overlay</title>
<g id="clust1" class="cluster">
<title>cluster_callgraph</title>
<polygon fill="transparent" stroke="#b8a88a" stroke-dasharray="5,2" points="8,-8 8,-242 312,-242 312,-8 8,-8"/>
<text text-anchor="middle" x="39.5" y="-230" font-family="IBM Plex Sans" font-size="10.00">Call Graph</text>
</g>
<g id="clust2" class="cluster">
<title>cluster_memory</title>
<polygon fill="transparent" stroke="#b8a88a" stroke-dasharray="5,2" points="320,-165.5 320,-247.5 702,-247.5 702,-165.5 320,-165.5"/>
<text text-anchor="middle" x="431.5" y="-235.5" font-family="IBM Plex Sans" font-size="10.00">Static Memory Layout (after overlay analysis)</text>
</g>
<g id="clust3" class="cluster">
<title>cluster_legend</title>
</g>
<!-- main -->
<g id="node1" class="node">
<title>main</title>
<polygon fill="#d4c9b8" stroke="#2c2420" points="184,-215 130,-215 130,-179 184,-179 184,-215"/>
<text text-anchor="middle" x="157" y="-194.5" font-family="IBM Plex Sans" font-size="10.00">main()</text>
</g>
<!-- init -->
<g id="node2" class="node">
<title>init</title>
<polygon fill="#faf6ef" stroke="#2c2420" points="96,-124 16,-124 16,-88 96,-88 96,-124"/>
<text text-anchor="middle" x="56" y="-109" font-family="IBM Plex Sans" font-size="10.00">init()</text>
<text text-anchor="middle" x="56" y="-98" font-family="IBM Plex Sans" font-size="10.00">locals: 8 bytes</text>
</g>
<!-- main&#45;&gt;init -->
<g id="edge1" class="edge">
<title>main&#45;&gt;init</title>
<path fill="none" stroke="#8b7355" d="M137.53,-178.84C122.02,-165.17 100.13,-145.89 82.94,-130.74"/>
<polygon fill="#8b7355" stroke="#8b7355" points="85.23,-128.09 75.41,-124.11 80.6,-133.34 85.23,-128.09"/>
</g>
<!-- process -->
<g id="node3" class="node">
<title>process</title>
<polygon fill="#faf6ef" stroke="#2c2420" points="200,-124 114,-124 114,-88 200,-88 200,-124"/>
<text text-anchor="middle" x="157" y="-109" font-family="IBM Plex Sans" font-size="10.00">process()</text>
<text text-anchor="middle" x="157" y="-98" font-family="IBM Plex Sans" font-size="10.00">locals: 12 bytes</text>
</g>
<!-- main&#45;&gt;process -->
<g id="edge2" class="edge">
<title>main&#45;&gt;process</title>
<path fill="none" stroke="#8b7355" d="M157,-178.84C157,-166.28 157,-148.98 157,-134.5"/>
<polygon fill="#8b7355" stroke="#8b7355" points="160.5,-134.11 157,-124.11 153.5,-134.11 160.5,-134.11"/>
</g>
<!-- render -->
<g id="node4" class="node">
<title>render</title>
<polygon fill="#faf6ef" stroke="#2c2420" points="304,-124 218,-124 218,-88 304,-88 304,-124"/>
<text text-anchor="middle" x="261" y="-109" font-family="IBM Plex Sans" font-size="10.00">render()</text>
<text text-anchor="middle" x="261" y="-98" font-family="IBM Plex Sans" font-size="10.00">locals: 10 bytes</text>
</g>
<!-- main&#45;&gt;render -->
<g id="edge3" class="edge">
<title>main&#45;&gt;render</title>
<path fill="none" stroke="#8b7355" d="M177.05,-178.84C193.02,-165.17 215.56,-145.89 233.26,-130.74"/>
<polygon fill="#8b7355" stroke="#8b7355" points="235.69,-133.27 241.01,-124.11 231.14,-127.95 235.69,-133.27"/>
</g>
<!-- parse -->
<g id="node5" class="node">
<title>parse</title>
<polygon fill="#faf6ef" stroke="#2c2420" points="197,-52 117,-52 117,-16 197,-16 197,-52"/>
<text text-anchor="middle" x="157" y="-37" font-family="IBM Plex Sans" font-size="10.00">parse()</text>
<text text-anchor="middle" x="157" y="-26" font-family="IBM Plex Sans" font-size="10.00">locals: 6 bytes</text>
</g>
<!-- process&#45;&gt;parse -->
<g id="edge4" class="edge">
<title>process&#45;&gt;parse</title>
<path fill="none" stroke="#8b7355" d="M157,-87.7C157,-79.98 157,-70.71 157,-62.11"/>
<polygon fill="#8b7355" stroke="#8b7355" points="160.5,-62.1 157,-52.1 153.5,-62.1 160.5,-62.1"/>
</g>
<!-- format -->
<g id="node6" class="node">
<title>format</title>
<polygon fill="#faf6ef" stroke="#2c2420" points="301,-52 221,-52 221,-16 301,-16 301,-52"/>
<text text-anchor="middle" x="261" y="-37" font-family="IBM Plex Sans" font-size="10.00">format()</text>
<text text-anchor="middle" x="261" y="-26" font-family="IBM Plex Sans" font-size="10.00">locals: 4 bytes</text>
</g>
<!-- render&#45;&gt;format -->
<g id="edge5" class="edge">
<title>render&#45;&gt;format</title>
<path fill="none" stroke="#8b7355" d="M261,-87.7C261,-79.98 261,-70.71 261,-62.11"/>
<polygon fill="#8b7355" stroke="#8b7355" points="264.5,-62.1 261,-52.1 257.5,-62.1 264.5,-62.1"/>
</g>
<!-- mem -->
<g id="node7" class="node">
<title>mem</title>
<polygon fill="#faf6ef" stroke="#2c2420" points="328,-174 328,-220 694,-220 694,-174 328,-174"/>
<text text-anchor="middle" x="371" y="-206.3" font-family="IBM Plex Mono" font-size="9.00">$80&#45;$87</text>
<polyline fill="none" stroke="#2c2420" points="328,-197 414,-197 "/>
<text text-anchor="middle" x="371" y="-183.3" font-family="IBM Plex Mono" font-size="9.00">main locals (8 B)</text>
<polyline fill="none" stroke="#2c2420" points="414,-174 414,-220 "/>
<text text-anchor="middle" x="469" y="-208.8" font-family="IBM Plex Mono" font-size="9.00">$88&#45;$93</text>
<polyline fill="none" stroke="#2c2420" points="414,-202 524,-202 "/>
<text text-anchor="middle" x="469" y="-190.8" font-family="IBM Plex Mono" font-size="9.00">process locals (12 B)</text>
<text text-anchor="middle" x="469" y="-180.8" font-family="IBM Plex Mono" font-size="9.00">or render locals (10 B)</text>
<polyline fill="none" stroke="#2c2420" points="524,-174 524,-220 "/>
<text text-anchor="middle" x="576" y="-208.8" font-family="IBM Plex Mono" font-size="9.00">$94&#45;$99</text>
<polyline fill="none" stroke="#2c2420" points="524,-202 628,-202 "/>
<text text-anchor="middle" x="576" y="-190.8" font-family="IBM Plex Mono" font-size="9.00">parse locals (6 B)</text>
<text text-anchor="middle" x="576" y="-180.8" font-family="IBM Plex Mono" font-size="9.00">or format locals (4 B)</text>
<polyline fill="none" stroke="#2c2420" points="628,-174 628,-220 "/>
<text text-anchor="middle" x="661" y="-206.3" font-family="IBM Plex Mono" font-size="9.00">$9A&#45;$FF</text>
<polyline fill="none" stroke="#2c2420" points="628,-197 694,-197 "/>
<text text-anchor="middle" x="661" y="-183.3" font-family="IBM Plex Mono" font-size="9.00">free (102 B)</text>
</g>
<!-- legend -->
<g id="node8" class="node">
<title>legend</title>
<polygon fill="#faf6ef" stroke="transparent" points="961.5,-234 718.5,-234 718.5,-160 961.5,-160 961.5,-234"/>
<text text-anchor="start" x="731" y="-219.8" font-family="IBM Plex Sans Condensed" font-weight="bold" font-size="9.00">Key insight:</text>
<text text-anchor="start" x="776" y="-219.8" font-family="IBM Plex Sans Condensed" font-size="9.00"> init() never runs while process() or render() runs.</text>
<text text-anchor="start" x="731" y="-202.8" font-family="IBM Plex Sans Condensed" font-size="9.00">process() and render() never run simultaneously.</text>
<text text-anchor="start" x="731" y="-186.8" font-family="IBM Plex Sans Condensed" font-size="9.00">So their locals safely share addresses $88–$93.</text>
<text text-anchor="start" x="731" y="-170.8" font-family="IBM Plex Sans Condensed" font-size="9.00">Total: 26 bytes used instead of 40.</text>
</g>
</g>
</svg>
