<!DOCTYPE svg PUBLIC "-//W3C//DTD SVG 1.1//EN"
 "http://www.w3.org/Graphics/SVG/1.1/DTD/svg11.dtd">
<svg version="1.1"
 width="840px" height="325px"
 viewBox="0 0 840 325"
 xmlns="http://www.w3.org/2000/svg" shape-rendering="crispEdges"
 stroke-width="1" text-rendering="geometricPrecision">
<polygon fill="white" points="193,7 225,7 225,16 193,16"/>
<text x="210" y="16" textLength="31" font-family="Helvetica" font-size="12" fill="black" text-anchor="middle">

Client
</text>
<polygon fill="white" points="611,7 647,7 647,16 611,16"/>
<text x="630" y="16" textLength="35" font-family="Helvetica" font-size="12" fill="black" text-anchor="middle">

Server
</text>
<line x1="210" y1="22" x2="210" y2="39" stroke="black"/>
<line x1="630" y1="22" x2="630" y2="39" stroke="black"/>
<line x1="105" y1="27" x2="735" y2="27" stroke="black" stroke-dasharray="2,2"/>
<polygon fill="white" points="385,23 454,23 454,32 385,32"/>
<text x="386" y="32" textLength="67" font-family="Helvetica" font-size="12" fill="#000555">
QuakeWorld
</text>
<line x1="210" y1="39" x2="210" y2="67" stroke="black"/>
<line x1="630" y1="39" x2="630" y2="67" stroke="black"/>
<line x1="210" y1="50" x2="630" y2="50" stroke="black"/>
<line x1="630" y1="50" x2="620" y2="56" stroke="black"/>
<polygon fill="white" points="341,40 498,40 498,49 341,49"/>
<text x="342" y="49" textLength="155" font-family="Helvetica" font-size="12" fill="black">
connectionless challenge req
</text>
<line x1="210" y1="67" x2="210" y2="95" stroke="black"/>
<line x1="630" y1="67" x2="630" y2="95" stroke="black"/>
<line x1="630" y1="78" x2="210" y2="78" stroke="black"/>
<line x1="210" y1="78" x2="220" y2="84" stroke="black"/>
<polygon fill="white" points="366,68 472,68 472,77 366,77"/>
<text x="367" y="77" textLength="104" font-family="Helvetica" font-size="12" fill="black">
challenge response
</text>
<line x1="210" y1="95" x2="210" y2="123" stroke="black"/>
<line x1="630" y1="95" x2="630" y2="123" stroke="black"/>
<line x1="210" y1="106" x2="630" y2="106" stroke="black"/>
<line x1="630" y1="106" x2="620" y2="112" stroke="black"/>
<polygon fill="white" points="348,96 490,96 490,105 348,105"/>
<text x="349" y="105" textLength="140" font-family="Helvetica" font-size="12" fill="black">
connect + challenge token
</text>
<line x1="210" y1="123" x2="210" y2="151" stroke="black"/>
<line x1="630" y1="123" x2="630" y2="151" stroke="black"/>
<line x1="630" y1="134" x2="210" y2="134" stroke="black"/>
<line x1="210" y1="134" x2="220" y2="140" stroke="black"/>
<polygon fill="white" points="345,124 494,124 494,133 345,133"/>
<text x="346" y="133" textLength="147" font-family="Helvetica" font-size="12" fill="black">
accept (first sequenced pkt)
</text>
<line x1="210" y1="151" x2="210" y2="168" stroke="black"/>
<line x1="630" y1="151" x2="630" y2="168" stroke="black"/>
<line x1="105" y1="156" x2="735" y2="156" stroke="black" stroke-dasharray="2,2"/>
<polygon fill="white" points="405,152 434,152 434,161 405,161"/>
<text x="406" y="161" textLength="27" font-family="Helvetica" font-size="12" fill="#000555">
ENet
</text>
<line x1="210" y1="168" x2="210" y2="196" stroke="black"/>
<line x1="630" y1="168" x2="630" y2="196" stroke="black"/>
<line x1="210" y1="179" x2="630" y2="179" stroke="black"/>
<line x1="630" y1="179" x2="620" y2="185" stroke="black"/>
<polygon fill="white" points="389,169 450,169 450,178 389,178"/>
<text x="390" y="178" textLength="59" font-family="Helvetica" font-size="12" fill="black">
CONNECT
</text>
<line x1="210" y1="196" x2="210" y2="224" stroke="black"/>
<line x1="630" y1="196" x2="630" y2="224" stroke="black"/>
<line x1="630" y1="207" x2="210" y2="207" stroke="black"/>
<line x1="210" y1="207" x2="220" y2="213" stroke="black"/>
<polygon fill="white" points="364,197 475,197 475,206 364,206"/>
<text x="365" y="206" textLength="109" font-family="Helvetica" font-size="12" fill="black">
VERIFY_CONNECT
</text>
<line x1="210" y1="224" x2="210" y2="252" stroke="black"/>
<line x1="630" y1="224" x2="630" y2="252" stroke="black"/>
<line x1="210" y1="235" x2="630" y2="235" stroke="black"/>
<line x1="630" y1="235" x2="620" y2="241" stroke="black"/>
<polygon fill="white" points="406,225 433,225 433,234 406,234"/>
<text x="407" y="234" textLength="25" font-family="Helvetica" font-size="12" fill="black">
ACK
</text>
<line x1="210" y1="252" x2="210" y2="269" stroke="black"/>
<line x1="630" y1="252" x2="630" y2="269" stroke="black"/>
<line x1="105" y1="257" x2="735" y2="257" stroke="black" stroke-dasharray="2,2"/>
<polygon fill="white" points="396,253 443,253 443,262 396,262"/>
<text x="397" y="262" textLength="45" font-family="Helvetica" font-size="12" fill="#000555">
Netchan
</text>
<line x1="210" y1="269" x2="210" y2="297" stroke="black"/>
<line x1="630" y1="269" x2="630" y2="297" stroke="black"/>
<line x1="210" y1="280" x2="630" y2="280" stroke="black"/>
<line x1="630" y1="280" x2="620" y2="286" stroke="black"/>
<polygon fill="white" points="337,270 501,270 501,279 337,279"/>
<text x="338" y="279" textLength="162" font-family="Helvetica" font-size="12" fill="black">
CONNECT_INIT (id + version)
</text>
<line x1="210" y1="297" x2="210" y2="325" stroke="black"/>
<line x1="630" y1="297" x2="630" y2="325" stroke="black"/>
<line x1="630" y1="308" x2="210" y2="308" stroke="black"/>
<line x1="210" y1="308" x2="220" y2="314" stroke="black"/>
<polygon fill="white" points="298,298 541,298 541,307 298,307"/>
<text x="299" y="307" textLength="241" font-family="Helvetica" font-size="12" fill="black">
CONNECT_ACCEPT (id + version + timeout)
</text>
<line x1="210" y1="319" x2="210" y2="325" stroke="black"/>
<line x1="630" y1="319" x2="630" y2="325" stroke="black"/>
</svg>
