<?xml version="1.0" encoding="UTF-8" standalone="no"?>
<!DOCTYPE svg PUBLIC "-//W3C//DTD SVG 1.1//EN"
 "http://www.w3.org/Graphics/SVG/1.1/DTD/svg11.dtd">
<!-- Generated by graphviz version 2.43.0 (0)
 -->
<!-- Title: packet_layout Pages: 1 -->
<svg width="771pt" height="67pt"
 viewBox="0.00 0.00 771.00 67.00" xmlns="http://www.w3.org/2000/svg" xmlns:xlink="http://www.w3.org/1999/xlink">
<g id="graph0" class="graph" transform="scale(1 1) rotate(0) translate(4 63)">
<title>packet_layout</title>
<polygon fill="white" stroke="transparent" points="-4,4 -4,-63 767,-63 767,4 -4,4"/>
<text text-anchor="middle" x="381.5" y="-44.6" font-family="IBM Plex Sans" font-size="13.00">Netchan Data Packet Layout</text>
<!-- hdr -->
<g id="node1" class="node">
<title>hdr</title>
<polygon fill="#f5f0e6" stroke="black" points="0,-0.5 0,-36.5 141,-36.5 141,-0.5 0,-0.5"/>
<text text-anchor="middle" x="19" y="-21.5" font-family="IBM Plex Mono" font-size="10.00">flags</text>
<text text-anchor="middle" x="19" y="-10.5" font-family="IBM Plex Mono" font-size="10.00">1B</text>
<polyline fill="none" stroke="black" points="38,-0.5 38,-36.5 "/>
<text text-anchor="middle" x="64.5" y="-21.5" font-family="IBM Plex Mono" font-size="10.00">conn ID</text>
<text text-anchor="middle" x="64.5" y="-10.5" font-family="IBM Plex Mono" font-size="10.00">4B</text>
<polyline fill="none" stroke="black" points="91,-0.5 91,-36.5 "/>
<text text-anchor="middle" x="116" y="-21.5" font-family="IBM Plex Mono" font-size="10.00">pkt seq</text>
<text text-anchor="middle" x="116" y="-10.5" font-family="IBM Plex Mono" font-size="10.00">2B</text>
</g>
<!-- f1 -->
<g id="node2" class="node">
<title>f1</title>
<polygon fill="#e8f0e8" stroke="black" points="177,-0.5 177,-36.5 482,-36.5 482,-0.5 177,-0.5"/>
<text text-anchor="middle" x="197" y="-21.5" font-family="IBM Plex Mono" font-size="10.00">type</text>
<text text-anchor="middle" x="197" y="-10.5" font-family="IBM Plex Mono" font-size="10.00">0x09</text>
<polyline fill="none" stroke="black" points="217,-0.5 217,-36.5 "/>
<text text-anchor="middle" x="236" y="-21.5" font-family="IBM Plex Mono" font-size="10.00">chan</text>
<text text-anchor="middle" x="236" y="-10.5" font-family="IBM Plex Mono" font-size="10.00">1B</text>
<polyline fill="none" stroke="black" points="255,-0.5 255,-36.5 "/>
<text text-anchor="middle" x="271.5" y="-21.5" font-family="IBM Plex Mono" font-size="10.00">seq</text>
<text text-anchor="middle" x="271.5" y="-10.5" font-family="IBM Plex Mono" font-size="10.00">2B</text>
<polyline fill="none" stroke="black" points="288,-0.5 288,-36.5 "/>
<text text-anchor="middle" x="303.5" y="-21.5" font-family="IBM Plex Mono" font-size="10.00">len</text>
<text text-anchor="middle" x="303.5" y="-10.5" font-family="IBM Plex Mono" font-size="10.00">2B</text>
<polyline fill="none" stroke="black" points="319,-0.5 319,-36.5 "/>
<text text-anchor="middle" x="344.5" y="-21.5" font-family="IBM Plex Mono" font-size="10.00">frag idx</text>
<text text-anchor="middle" x="344.5" y="-10.5" font-family="IBM Plex Mono" font-size="10.00">1B</text>
<polyline fill="none" stroke="black" points="370,-0.5 370,-36.5 "/>
<text text-anchor="middle" x="399.5" y="-21.5" font-family="IBM Plex Mono" font-size="10.00">frag total</text>
<text text-anchor="middle" x="399.5" y="-10.5" font-family="IBM Plex Mono" font-size="10.00">1B</text>
<polyline fill="none" stroke="black" points="429,-0.5 429,-36.5 "/>
<text text-anchor="middle" x="455.5" y="-21.5" font-family="IBM Plex Mono" font-size="10.00">payload</text>
<text text-anchor="middle" x="455.5" y="-10.5" font-family="IBM Plex Mono" font-size="10.00">...</text>
</g>
<!-- hdr&#45;&gt;f1 -->
<!-- f2 -->
<g id="node3" class="node">
<title>f2</title>
<polygon fill="#e6e8f5" stroke="black" points="518,-0.5 518,-36.5 647,-36.5 647,-0.5 518,-0.5"/>
<text text-anchor="middle" x="538.5" y="-21.5" font-family="IBM Plex Mono" font-size="10.00">type</text>
<text text-anchor="middle" x="538.5" y="-10.5" font-family="IBM Plex Mono" font-size="10.00">0x0A</text>
<polyline fill="none" stroke="black" points="559,-0.5 559,-36.5 "/>
<text text-anchor="middle" x="578" y="-21.5" font-family="IBM Plex Mono" font-size="10.00">chan</text>
<text text-anchor="middle" x="578" y="-10.5" font-family="IBM Plex Mono" font-size="10.00">1B</text>
<polyline fill="none" stroke="black" points="597,-0.5 597,-36.5 "/>
<text text-anchor="middle" x="622" y="-21.5" font-family="IBM Plex Mono" font-size="10.00">ack seq</text>
<text text-anchor="middle" x="622" y="-10.5" font-family="IBM Plex Mono" font-size="10.00">2B</text>
</g>
<!-- f1&#45;&gt;f2 -->
<!-- pad -->
<g id="node4" class="node">
<title>pad</title>
<polygon fill="#f0f0f0" stroke="black" points="683,-0.5 683,-36.5 763,-36.5 763,-0.5 683,-0.5"/>
<text text-anchor="middle" x="723" y="-21.5" font-family="IBM Plex Mono" font-size="10.00">0x00 padding</text>
<text text-anchor="middle" x="723" y="-10.5" font-family="IBM Plex Mono" font-size="10.00">to MTU</text>
</g>
<!-- f2&#45;&gt;pad -->
</g>
</svg>
