<?xml version="1.0" encoding="UTF-8" standalone="no"?>
<!DOCTYPE svg PUBLIC "-//W3C//DTD SVG 1.1//EN"
 "http://www.w3.org/Graphics/SVG/1.1/DTD/svg11.dtd">
<!-- Generated by graphviz version 2.43.0 (0)
 -->
<!-- Title: packet Pages: 1 -->
<svg width="369pt" height="270pt"
 viewBox="0.00 0.00 369.00 270.00" xmlns="http://www.w3.org/2000/svg" xmlns:xlink="http://www.w3.org/1999/xlink">
<g id="graph0" class="graph" transform="scale(1 1) rotate(0) translate(4 266)">
<title>packet</title>
<!-- encap -->
<g id="node1" class="node">
<title>encap</title>
<polygon fill="#dde6f0" stroke="transparent" points="8.5,-232 8.5,-258 353.5,-258 353.5,-232 8.5,-232"/>
<polygon fill="none" stroke="black" points="8.5,-232 8.5,-258 353.5,-258 353.5,-232 8.5,-232"/>
<text text-anchor="start" x="60.5" y="-243.2" font-family="Helvetica,sans-Serif" font-weight="bold" font-size="11.00">UDP datagram</text>
<text text-anchor="start" x="137.5" y="-243.2" font-family="Helvetica,sans-Serif" font-size="11.00"> &#160;(DOSBox IPX tunnel → ipxrelay)</text>
<polygon fill="none" stroke="black" points="8.5,-4 8.5,-232 353.5,-232 353.5,-4 8.5,-4"/>
<polygon fill="#e8e0d0" stroke="transparent" points="15.5,-199 15.5,-225 346.5,-225 346.5,-199 15.5,-199"/>
<polygon fill="none" stroke="black" points="15.5,-199 15.5,-225 346.5,-225 346.5,-199 15.5,-199"/>
<text text-anchor="start" x="30.5" y="-210.2" font-family="Helvetica,sans-Serif" font-weight="bold" font-size="11.00">IPX header</text>
<text text-anchor="start" x="88.5" y="-210.2" font-family="Helvetica,sans-Serif" font-size="11.00">, 30 B: checksum FFFF, length, net:node:socket x2</text>
<polygon fill="none" stroke="black" points="15.5,-11 15.5,-199 346.5,-199 346.5,-11 15.5,-11"/>
<polygon fill="#d8ecd8" stroke="transparent" points="22.5,-166 22.5,-192 339.5,-192 339.5,-166 22.5,-166"/>
<polygon fill="none" stroke="black" points="22.5,-166 22.5,-192 339.5,-192 339.5,-166 22.5,-166"/>
<text text-anchor="start" x="65" y="-177.2" font-family="Helvetica,sans-Serif" font-weight="bold" font-size="11.00">netchan packet</text>
<text text-anchor="start" x="145" y="-177.2" font-family="Helvetica,sans-Serif" font-size="11.00"> &#160;(fits the 546&#45;byte IPX payload)</text>
<polygon fill="none" stroke="black" points="22.5,-116 22.5,-166 339.5,-166 339.5,-116 22.5,-116"/>
<polygon fill="#ffffff" stroke="transparent" points="29.5,-123 29.5,-159 118.5,-159 118.5,-123 29.5,-123"/>
<polygon fill="none" stroke="black" points="29.5,-123 29.5,-159 118.5,-159 118.5,-123 29.5,-123"/>
<text text-anchor="start" x="55" y="-144.2" font-family="Helvetica,sans-Serif" font-size="11.00">conn_id</text>
<text text-anchor="start" x="64.5" y="-132.2" font-family="Helvetica,sans-Serif" font-size="11.00">u32</text>
<polygon fill="#ffffff" stroke="transparent" points="118.5,-123 118.5,-159 190.5,-159 190.5,-123 118.5,-123"/>
<polygon fill="none" stroke="black" points="118.5,-123 118.5,-159 190.5,-159 190.5,-123 118.5,-123"/>
<text text-anchor="start" x="144" y="-144.2" font-family="Helvetica,sans-Serif" font-size="11.00">type</text>
<text text-anchor="start" x="148" y="-132.2" font-family="Helvetica,sans-Serif" font-size="11.00">u8</text>
<polygon fill="#ffffff" stroke="transparent" points="190.5,-123 190.5,-159 263.5,-159 263.5,-123 190.5,-123"/>
<polygon fill="none" stroke="black" points="190.5,-123 190.5,-159 263.5,-159 263.5,-123 190.5,-123"/>
<text text-anchor="start" x="215.5" y="-144.2" font-family="Helvetica,sans-Serif" font-size="11.00">flags</text>
<text text-anchor="start" x="220.5" y="-132.2" font-family="Helvetica,sans-Serif" font-size="11.00">u8</text>
<polygon fill="#ffffff" stroke="transparent" points="263.5,-123 263.5,-159 332.5,-159 332.5,-123 263.5,-123"/>
<polygon fill="none" stroke="black" points="263.5,-123 263.5,-159 332.5,-159 332.5,-123 263.5,-123"/>
<text text-anchor="start" x="289.5" y="-144.2" font-family="Helvetica,sans-Serif" font-size="11.00">ack</text>
<text text-anchor="start" x="288.5" y="-132.2" font-family="Helvetica,sans-Serif" font-size="11.00">u16</text>
<polygon fill="none" stroke="black" points="22.5,-92 22.5,-116 339.5,-116 339.5,-92 22.5,-92"/>
<text text-anchor="start" x="29.5" y="-101.8" font-family="Helvetica,sans-Serif" font-size="9.00">8&#45;byte header on every packet; ack piggybacks the cumulative reliable ack</text>
<polygon fill="none" stroke="black" points="22.5,-42 22.5,-92 339.5,-92 339.5,-42 22.5,-42"/>
<polygon fill="#fbf4d8" stroke="transparent" points="29.5,-49 29.5,-85 87.5,-85 87.5,-49 29.5,-49"/>
<polygon fill="none" stroke="black" points="29.5,-49 29.5,-85 87.5,-85 87.5,-49 29.5,-49"/>
<text text-anchor="start" x="46.5" y="-70.2" font-family="Helvetica,sans-Serif" font-size="11.00">chan</text>
<text text-anchor="start" x="52" y="-58.2" font-family="Helvetica,sans-Serif" font-size="11.00">u8</text>
<polygon fill="#fbf4d8" stroke="transparent" points="87.5,-49 87.5,-85 151.5,-85 151.5,-49 87.5,-49"/>
<polygon fill="none" stroke="black" points="87.5,-49 87.5,-85 151.5,-85 151.5,-49 87.5,-49"/>
<text text-anchor="start" x="104.5" y="-70.2" font-family="Helvetica,sans-Serif" font-size="11.00">mtype</text>
<text text-anchor="start" x="113" y="-58.2" font-family="Helvetica,sans-Serif" font-size="11.00">u8</text>
<polygon fill="#fbf4d8" stroke="transparent" points="151.5,-49 151.5,-85 204.5,-85 204.5,-49 151.5,-49"/>
<polygon fill="none" stroke="black" points="151.5,-49 151.5,-85 204.5,-85 204.5,-49 151.5,-49"/>
<text text-anchor="start" x="169" y="-70.2" font-family="Helvetica,sans-Serif" font-size="11.00">seq</text>
<text text-anchor="start" x="168.5" y="-58.2" font-family="Helvetica,sans-Serif" font-size="11.00">u16</text>
<polygon fill="#fbf4d8" stroke="transparent" points="204.5,-49 204.5,-85 256.5,-85 256.5,-49 204.5,-49"/>
<polygon fill="none" stroke="black" points="204.5,-49 204.5,-85 256.5,-85 256.5,-49 204.5,-49"/>
<text text-anchor="start" x="223" y="-70.2" font-family="Helvetica,sans-Serif" font-size="11.00">len</text>
<text text-anchor="start" x="221" y="-58.2" font-family="Helvetica,sans-Serif" font-size="11.00">u16</text>
<polygon fill="#fbf4d8" stroke="transparent" points="256.5,-49 256.5,-85 332.5,-85 332.5,-49 256.5,-49"/>
<polygon fill="none" stroke="black" points="256.5,-49 256.5,-85 332.5,-85 332.5,-49 256.5,-49"/>
<text text-anchor="start" x="275.5" y="-70.2" font-family="Helvetica,sans-Serif" font-size="11.00">payload</text>
<text text-anchor="start" x="273" y="-58.2" font-family="Helvetica,sans-Serif" font-size="11.00">len bytes</text>
<polygon fill="none" stroke="black" points="22.5,-18 22.5,-42 339.5,-42 339.5,-18 22.5,-18"/>
<text text-anchor="start" x="41" y="-27.8" font-family="Helvetica,sans-Serif" font-size="9.00">one or more 6&#45;byte records pack into a packet (reliable or unreliable)</text>
</g>
</g>
</svg>
