<?xml version="1.0" encoding="UTF-8" standalone="no"?>
<!DOCTYPE svg PUBLIC "-//W3C//DTD SVG 1.1//EN"
 "http://www.w3.org/Graphics/SVG/1.1/DTD/svg11.dtd">
<!-- Generated by graphviz version 2.43.0 (0)
 -->
<!-- Title: decorator Pages: 1 -->
<svg width="239pt" height="388pt"
 viewBox="0.00 0.00 239.00 388.00" xmlns="http://www.w3.org/2000/svg" xmlns:xlink="http://www.w3.org/1999/xlink">
<g id="graph0" class="graph" transform="scale(1 1) rotate(0) translate(4 384)">
<title>decorator</title>
<!-- app -->
<g id="node1" class="node">
<title>app</title>
<path fill="#f4ecdd" stroke="#2c2420" stroke-width="1.2" d="M156,-380C156,-380 75,-380 75,-380 69,-380 63,-374 63,-368 63,-368 63,-356 63,-356 63,-350 69,-344 75,-344 75,-344 156,-344 156,-344 162,-344 168,-350 168,-356 168,-356 168,-368 168,-368 168,-374 162,-380 156,-380"/>
<text text-anchor="middle" x="115.5" y="-365.2" font-family="Helvetica,sans-Serif" font-size="11.00">application</text>
<text text-anchor="middle" x="115.5" y="-353.2" font-family="Helvetica,sans-Serif" font-size="11.00">(echo, game, IPC)</text>
</g>
<!-- core -->
<g id="node2" class="node">
<title>core</title>
<path fill="#e8dcc4" stroke="#2c2420" stroke-width="1.2" d="M202.5,-298C202.5,-298 28.5,-298 28.5,-298 22.5,-298 16.5,-292 16.5,-286 16.5,-286 16.5,-266 16.5,-266 16.5,-260 22.5,-254 28.5,-254 28.5,-254 202.5,-254 202.5,-254 208.5,-254 214.5,-260 214.5,-266 214.5,-266 214.5,-286 214.5,-286 214.5,-292 208.5,-298 202.5,-298"/>
<text text-anchor="middle" x="115.5" y="-285.2" font-family="Helvetica,sans-Serif" font-size="11.00">netchan core</text>
<text text-anchor="middle" x="115.5" y="-273.2" font-family="Helvetica,sans-Serif" font-size="11.00">reliable channels, reorder, flow control</text>
<text text-anchor="middle" x="115.5" y="-261.2" font-family="Helvetica,sans-Serif" font-size="11.00">(no socket, no crypto)</text>
</g>
<!-- app&#45;&gt;core -->
<g id="edge1" class="edge">
<title>app&#45;&gt;core</title>
<path fill="none" stroke="#6b5d4f" d="M115.5,-343.6C115.5,-333.41 115.5,-320.25 115.5,-308.32"/>
<polygon fill="#6b5d4f" stroke="#6b5d4f" points="119,-308.26 115.5,-298.26 112,-308.26 119,-308.26"/>
<text text-anchor="middle" x="148" y="-318.8" font-family="Helvetica,sans-Serif" font-size="9.00">plaintext frames</text>
</g>
<!-- crypto -->
<g id="node3" class="node">
<title>crypto</title>
<path fill="#cfe6d8" stroke="#2c2420" stroke-width="1.2" d="M219,-208C219,-208 12,-208 12,-208 6,-208 0,-202 0,-196 0,-196 0,-176 0,-176 0,-170 6,-164 12,-164 12,-164 219,-164 219,-164 225,-164 231,-170 231,-176 231,-176 231,-196 231,-196 231,-202 225,-208 219,-208"/>
<text text-anchor="middle" x="115.5" y="-195.2" font-family="Helvetica,sans-Serif" font-size="11.00">nc_crypto decorator</text>
<text text-anchor="middle" x="115.5" y="-183.2" font-family="Helvetica,sans-Serif" font-size="11.00">seal() after send_next &#160;· &#160;open() before feed</text>
<text text-anchor="middle" x="115.5" y="-171.2" font-family="Helvetica,sans-Serif" font-size="11.00">X25519 handshake + XChaCha20&#45;Poly1305</text>
</g>
<!-- core&#45;&gt;crypto -->
<g id="edge2" class="edge">
<title>core&#45;&gt;crypto</title>
<path fill="none" stroke="#6b5d4f" d="M115.5,-253.7C115.5,-243.1 115.5,-230.09 115.5,-218.39"/>
<polygon fill="#6b5d4f" stroke="#6b5d4f" points="119,-218.11 115.5,-208.11 112,-218.11 119,-218.11"/>
<text text-anchor="middle" x="153.5" y="-228.8" font-family="Helvetica,sans-Serif" font-size="9.00">plaintext datagram</text>
</g>
<!-- udp -->
<g id="node4" class="node">
<title>udp</title>
<path fill="#e8dcc4" stroke="#2c2420" stroke-width="1.2" d="M164.5,-118C164.5,-118 66.5,-118 66.5,-118 60.5,-118 54.5,-112 54.5,-106 54.5,-106 54.5,-94 54.5,-94 54.5,-88 60.5,-82 66.5,-82 66.5,-82 164.5,-82 164.5,-82 170.5,-82 176.5,-88 176.5,-94 176.5,-94 176.5,-106 176.5,-106 176.5,-112 170.5,-118 164.5,-118"/>
<text text-anchor="middle" x="115.5" y="-103.2" font-family="Helvetica,sans-Serif" font-size="11.00">nc_udp backend</text>
<text text-anchor="middle" x="115.5" y="-91.2" font-family="Helvetica,sans-Serif" font-size="11.00">nc_addr &lt;&#45;&gt; sockaddr</text>
</g>
<!-- crypto&#45;&gt;udp -->
<g id="edge3" class="edge">
<title>crypto&#45;&gt;udp</title>
<path fill="none" stroke="#6b5d4f" d="M115.5,-163.8C115.5,-153.12 115.5,-140.04 115.5,-128.59"/>
<polygon fill="#6b5d4f" stroke="#6b5d4f" points="119,-128.23 115.5,-118.23 112,-128.23 119,-128.23"/>
<text text-anchor="middle" x="150.5" y="-138.8" font-family="Helvetica,sans-Serif" font-size="9.00">sealed datagram</text>
</g>
<!-- sock -->
<g id="node5" class="node">
<title>sock</title>
<ellipse fill="#dfe7f0" stroke="#2c2420" stroke-width="1.2" cx="115.5" cy="-18" rx="44.5" ry="18"/>
<text text-anchor="middle" x="115.5" y="-15.2" font-family="Helvetica,sans-Serif" font-size="11.00">UDP socket</text>
</g>
<!-- udp&#45;&gt;sock -->
<g id="edge4" class="edge">
<title>udp&#45;&gt;sock</title>
<path fill="none" stroke="#6b5d4f" d="M115.5,-81.64C115.5,-71.3 115.5,-57.94 115.5,-46.22"/>
<polygon fill="#6b5d4f" stroke="#6b5d4f" points="119,-46.05 115.5,-36.05 112,-46.05 119,-46.05"/>
<text text-anchor="middle" x="126.5" y="-56.8" font-family="Helvetica,sans-Serif" font-size="9.00">bytes</text>
</g>
</g>
</svg>
