<?xml version="1.0" encoding="UTF-8" standalone="no"?>
<!DOCTYPE svg PUBLIC "-//W3C//DTD SVG 1.1//EN"
 "http://www.w3.org/Graphics/SVG/1.1/DTD/svg11.dtd">
<!-- Generated by graphviz version 2.43.0 (0)
 -->
<!-- Title: approaches Pages: 1 -->
<svg width="574pt" height="282pt"
 viewBox="0.00 0.00 574.00 282.00" xmlns="http://www.w3.org/2000/svg" xmlns:xlink="http://www.w3.org/1999/xlink">
<g id="graph0" class="graph" transform="scale(1 1) rotate(0) translate(4 278)">
<title>approaches</title>
<g id="clust1" class="cluster">
<title>cluster_a</title>
<path fill="#fff8e7" stroke="#8b7355" d="M20,-12.5C20,-12.5 126,-12.5 126,-12.5 132,-12.5 138,-18.5 138,-24.5 138,-24.5 138,-242 138,-242 138,-248 132,-254 126,-254 126,-254 20,-254 20,-254 14,-254 8,-248 8,-242 8,-242 8,-24.5 8,-24.5 8,-18.5 14,-12.5 20,-12.5"/>
<text text-anchor="middle" x="73" y="-241.2" font-family="IBM Plex Sans Bold" font-size="11.00">Approach A</text>
<text text-anchor="middle" x="73" y="-229.2" font-family="IBM Plex Sans Bold" font-size="11.00">SVG Streaming</text>
</g>
<g id="clust2" class="cluster">
<title>cluster_b</title>
<path fill="#fff8e7" stroke="#8b7355" d="M158,-12.5C158,-12.5 276,-12.5 276,-12.5 282,-12.5 288,-18.5 288,-24.5 288,-24.5 288,-242 288,-242 288,-248 282,-254 276,-254 276,-254 158,-254 158,-254 152,-254 146,-248 146,-242 146,-242 146,-24.5 146,-24.5 146,-18.5 152,-12.5 158,-12.5"/>
<text text-anchor="middle" x="217" y="-241.2" font-family="IBM Plex Sans Bold" font-size="11.00">Approach B</text>
<text text-anchor="middle" x="217" y="-229.2" font-family="IBM Plex Sans Bold" font-size="11.00">Scene Graph Protocol</text>
</g>
<g id="clust3" class="cluster">
<title>cluster_c</title>
<path fill="#fff8e7" stroke="#8b7355" d="M308,-8C308,-8 404,-8 404,-8 410,-8 416,-14 416,-20 416,-20 416,-242 416,-242 416,-248 410,-254 404,-254 404,-254 308,-254 308,-254 302,-254 296,-248 296,-242 296,-242 296,-20 296,-20 296,-14 302,-8 308,-8"/>
<text text-anchor="middle" x="356" y="-241.2" font-family="IBM Plex Sans Bold" font-size="11.00">Approach C</text>
<text text-anchor="middle" x="356" y="-229.2" font-family="IBM Plex Sans Bold" font-size="11.00">Reactive Dataflow</text>
</g>
<g id="clust4" class="cluster">
<title>cluster_d</title>
<path fill="#fff8e7" stroke="#8b7355" d="M436,-8C436,-8 546,-8 546,-8 552,-8 558,-14 558,-20 558,-20 558,-254 558,-254 558,-260 552,-266 546,-266 546,-266 436,-266 436,-266 430,-266 424,-260 424,-254 424,-254 424,-20 424,-20 424,-14 430,-8 436,-8"/>
<text text-anchor="middle" x="491" y="-253.2" font-family="IBM Plex Sans Bold" font-size="11.00">Approach D</text>
<text text-anchor="middle" x="491" y="-241.2" font-family="IBM Plex Sans Bold" font-size="11.00">WASM Programmable</text>
<text text-anchor="middle" x="491" y="-229.2" font-family="IBM Plex Sans Bold" font-size="11.00">Compositor</text>
</g>
<!-- a_client -->
<g id="node1" class="node">
<title>a_client</title>
<path fill="#e8d5b7" stroke="black" d="M96,-214C96,-214 50,-214 50,-214 44,-214 38,-208 38,-202 38,-202 38,-190 38,-190 38,-184 44,-178 50,-178 50,-178 96,-178 96,-178 102,-178 108,-184 108,-190 108,-190 108,-202 108,-202 108,-208 102,-214 96,-214"/>
<text text-anchor="middle" x="73" y="-193.5" font-family="IBM Plex Sans" font-size="10.00">Client App</text>
</g>
<!-- a_proto -->
<g id="node2" class="node">
<title>a_proto</title>
<path fill="#d4a574" stroke="black" d="M105.5,-142C105.5,-142 40.5,-142 40.5,-142 34.5,-142 28.5,-136 28.5,-130 28.5,-130 28.5,-109 28.5,-109 28.5,-103 34.5,-97 40.5,-97 40.5,-97 105.5,-97 105.5,-97 111.5,-97 117.5,-103 117.5,-109 117.5,-109 117.5,-130 117.5,-130 117.5,-136 111.5,-142 105.5,-142"/>
<text text-anchor="middle" x="73" y="-128" font-family="IBM Plex Sans" font-size="10.00">SVG Fragment</text>
<text text-anchor="middle" x="73" y="-117" font-family="IBM Plex Sans" font-size="10.00">Diff Stream</text>
<text text-anchor="middle" x="73" y="-106" font-family="IBM Plex Sans" font-size="10.00">(WebSocket)</text>
</g>
<!-- a_client&#45;&gt;a_proto -->
<g id="edge1" class="edge">
<title>a_client&#45;&gt;a_proto</title>
<path fill="none" stroke="#8b7355" d="M73,-177.72C73,-170.2 73,-161.15 73,-152.48"/>
<polygon fill="#8b7355" stroke="#8b7355" points="76.5,-152.22 73,-142.22 69.5,-152.22 76.5,-152.22"/>
</g>
<!-- a_server -->
<g id="node3" class="node">
<title>a_server</title>
<path fill="#c4956a" stroke="black" d="M118,-56.5C118,-56.5 28,-56.5 28,-56.5 22,-56.5 16,-50.5 16,-44.5 16,-44.5 16,-32.5 16,-32.5 16,-26.5 22,-20.5 28,-20.5 28,-20.5 118,-20.5 118,-20.5 124,-20.5 130,-26.5 130,-32.5 130,-32.5 130,-44.5 130,-44.5 130,-50.5 124,-56.5 118,-56.5"/>
<text text-anchor="middle" x="73" y="-41.5" font-family="IBM Plex Sans" font-size="10.00">Browser / Renderer</text>
<text text-anchor="middle" x="73" y="-30.5" font-family="IBM Plex Sans" font-size="10.00">(DOM + SMIL)</text>
</g>
<!-- a_proto&#45;&gt;a_server -->
<g id="edge2" class="edge">
<title>a_proto&#45;&gt;a_server</title>
<path fill="none" stroke="#8b7355" d="M73,-96.91C73,-87.59 73,-76.57 73,-66.69"/>
<polygon fill="#8b7355" stroke="#8b7355" points="76.5,-66.56 73,-56.56 69.5,-66.56 76.5,-66.56"/>
</g>
<!-- b_client -->
<g id="node4" class="node">
<title>b_client</title>
<path fill="#e8d5b7" stroke="black" d="M240,-214C240,-214 194,-214 194,-214 188,-214 182,-208 182,-202 182,-202 182,-190 182,-190 182,-184 188,-178 194,-178 194,-178 240,-178 240,-178 246,-178 252,-184 252,-190 252,-190 252,-202 252,-202 252,-208 246,-214 240,-214"/>
<text text-anchor="middle" x="217" y="-193.5" font-family="IBM Plex Sans" font-size="10.00">Client App</text>
</g>
<!-- b_proto -->
<g id="node5" class="node">
<title>b_proto</title>
<path fill="#d4a574" stroke="black" d="M256,-142C256,-142 178,-142 178,-142 172,-142 166,-136 166,-130 166,-130 166,-109 166,-109 166,-103 172,-97 178,-97 178,-97 256,-97 256,-97 262,-97 268,-103 268,-109 268,-109 268,-130 268,-130 268,-136 262,-142 256,-142"/>
<text text-anchor="middle" x="217" y="-128" font-family="IBM Plex Sans" font-size="10.00">Structured Scene</text>
<text text-anchor="middle" x="217" y="-117" font-family="IBM Plex Sans" font-size="10.00">Operations</text>
<text text-anchor="middle" x="217" y="-106" font-family="IBM Plex Sans" font-size="10.00">(Binary Protocol)</text>
</g>
<!-- b_client&#45;&gt;b_proto -->
<g id="edge3" class="edge">
<title>b_client&#45;&gt;b_proto</title>
<path fill="none" stroke="#8b7355" d="M217,-177.72C217,-170.2 217,-161.15 217,-152.48"/>
<polygon fill="#8b7355" stroke="#8b7355" points="220.5,-152.22 217,-142.22 213.5,-152.22 220.5,-152.22"/>
</g>
<!-- b_server -->
<g id="node6" class="node">
<title>b_server</title>
<path fill="#c4956a" stroke="black" d="M267.5,-56.5C267.5,-56.5 166.5,-56.5 166.5,-56.5 160.5,-56.5 154.5,-50.5 154.5,-44.5 154.5,-44.5 154.5,-32.5 154.5,-32.5 154.5,-26.5 160.5,-20.5 166.5,-20.5 166.5,-20.5 267.5,-20.5 267.5,-20.5 273.5,-20.5 279.5,-26.5 279.5,-32.5 279.5,-32.5 279.5,-44.5 279.5,-44.5 279.5,-50.5 273.5,-56.5 267.5,-56.5"/>
<text text-anchor="middle" x="217" y="-41.5" font-family="IBM Plex Sans" font-size="10.00">Compositor</text>
<text text-anchor="middle" x="217" y="-30.5" font-family="IBM Plex Sans" font-size="10.00">(Retained Tree + GPU)</text>
</g>
<!-- b_proto&#45;&gt;b_server -->
<g id="edge4" class="edge">
<title>b_proto&#45;&gt;b_server</title>
<path fill="none" stroke="#8b7355" d="M217,-96.91C217,-87.59 217,-76.57 217,-66.69"/>
<polygon fill="#8b7355" stroke="#8b7355" points="220.5,-66.56 217,-56.56 213.5,-66.56 220.5,-66.56"/>
</g>
<!-- c_client -->
<g id="node7" class="node">
<title>c_client</title>
<path fill="#e8d5b7" stroke="black" d="M379,-214C379,-214 333,-214 333,-214 327,-214 321,-208 321,-202 321,-202 321,-190 321,-190 321,-184 327,-178 333,-178 333,-178 379,-178 379,-178 385,-178 391,-184 391,-190 391,-190 391,-202 391,-202 391,-208 385,-214 379,-214"/>
<text text-anchor="middle" x="356" y="-193.5" font-family="IBM Plex Sans" font-size="10.00">Client App</text>
</g>
<!-- c_proto -->
<g id="node8" class="node">
<title>c_proto</title>
<path fill="#d4a574" stroke="black" d="M396,-142C396,-142 316,-142 316,-142 310,-142 304,-136 304,-130 304,-130 304,-109 304,-109 304,-103 310,-97 316,-97 316,-97 396,-97 396,-97 402,-97 408,-103 408,-109 408,-109 408,-130 408,-130 408,-136 402,-142 396,-142"/>
<text text-anchor="middle" x="356" y="-128" font-family="IBM Plex Sans" font-size="10.00">Reactive Bindings</text>
<text text-anchor="middle" x="356" y="-117" font-family="IBM Plex Sans" font-size="10.00">+ Constraint</text>
<text text-anchor="middle" x="356" y="-106" font-family="IBM Plex Sans" font-size="10.00">Declarations</text>
</g>
<!-- c_client&#45;&gt;c_proto -->
<g id="edge5" class="edge">
<title>c_client&#45;&gt;c_proto</title>
<path fill="none" stroke="#8b7355" d="M356,-177.72C356,-170.2 356,-161.15 356,-152.48"/>
<polygon fill="#8b7355" stroke="#8b7355" points="359.5,-152.22 356,-142.22 352.5,-152.22 359.5,-152.22"/>
</g>
<!-- c_server -->
<g id="node9" class="node">
<title>c_server</title>
<path fill="#c4956a" stroke="black" d="M396,-61C396,-61 316,-61 316,-61 310,-61 304,-55 304,-49 304,-49 304,-28 304,-28 304,-22 310,-16 316,-16 316,-16 396,-16 396,-16 402,-16 408,-22 408,-28 408,-28 408,-49 408,-49 408,-55 402,-61 396,-61"/>
<text text-anchor="middle" x="356" y="-47" font-family="IBM Plex Sans" font-size="10.00">Display Server</text>
<text text-anchor="middle" x="356" y="-36" font-family="IBM Plex Sans" font-size="10.00">(Constraint Solver</text>
<text text-anchor="middle" x="356" y="-25" font-family="IBM Plex Sans" font-size="10.00">+ Renderer)</text>
</g>
<!-- c_proto&#45;&gt;c_server -->
<g id="edge6" class="edge">
<title>c_proto&#45;&gt;c_server</title>
<path fill="none" stroke="#8b7355" d="M356,-96.91C356,-88.99 356,-79.84 356,-71.21"/>
<polygon fill="#8b7355" stroke="#8b7355" points="359.5,-71.06 356,-61.06 352.5,-71.06 359.5,-71.06"/>
</g>
<!-- d_client -->
<g id="node10" class="node">
<title>d_client</title>
<path fill="#e8d5b7" stroke="black" d="M514,-214C514,-214 468,-214 468,-214 462,-214 456,-208 456,-202 456,-202 456,-190 456,-190 456,-184 462,-178 468,-178 468,-178 514,-178 514,-178 520,-178 526,-184 526,-190 526,-190 526,-202 526,-202 526,-208 520,-214 514,-214"/>
<text text-anchor="middle" x="491" y="-193.5" font-family="IBM Plex Sans" font-size="10.00">Client App</text>
</g>
<!-- d_proto -->
<g id="node11" class="node">
<title>d_proto</title>
<path fill="#d4a574" stroke="black" d="M530.5,-142C530.5,-142 451.5,-142 451.5,-142 445.5,-142 439.5,-136 439.5,-130 439.5,-130 439.5,-109 439.5,-109 439.5,-103 445.5,-97 451.5,-97 451.5,-97 530.5,-97 530.5,-97 536.5,-97 542.5,-103 542.5,-109 542.5,-109 542.5,-130 542.5,-130 542.5,-136 536.5,-142 530.5,-142"/>
<text text-anchor="middle" x="491" y="-128" font-family="IBM Plex Sans" font-size="10.00">WASM Module</text>
<text text-anchor="middle" x="491" y="-117" font-family="IBM Plex Sans" font-size="10.00">+ Scene Data</text>
<text text-anchor="middle" x="491" y="-106" font-family="IBM Plex Sans" font-size="10.00">(Capability&#45;gated)</text>
</g>
<!-- d_client&#45;&gt;d_proto -->
<g id="edge7" class="edge">
<title>d_client&#45;&gt;d_proto</title>
<path fill="none" stroke="#8b7355" d="M491,-177.72C491,-170.2 491,-161.15 491,-152.48"/>
<polygon fill="#8b7355" stroke="#8b7355" points="494.5,-152.22 491,-142.22 487.5,-152.22 494.5,-152.22"/>
</g>
<!-- d_server -->
<g id="node12" class="node">
<title>d_server</title>
<path fill="#c4956a" stroke="black" d="M528,-61C528,-61 454,-61 454,-61 448,-61 442,-55 442,-49 442,-49 442,-28 442,-28 442,-22 448,-16 454,-16 454,-16 528,-16 528,-16 534,-16 540,-22 540,-28 540,-28 540,-49 540,-49 540,-55 534,-61 528,-61"/>
<text text-anchor="middle" x="491" y="-47" font-family="IBM Plex Sans" font-size="10.00">Compositor</text>
<text text-anchor="middle" x="491" y="-36" font-family="IBM Plex Sans" font-size="10.00">(WASM Sandbox</text>
<text text-anchor="middle" x="491" y="-25" font-family="IBM Plex Sans" font-size="10.00">+ GPU Access)</text>
</g>
<!-- d_proto&#45;&gt;d_server -->
<g id="edge8" class="edge">
<title>d_proto&#45;&gt;d_server</title>
<path fill="none" stroke="#8b7355" d="M491,-96.91C491,-88.99 491,-79.84 491,-71.21"/>
<polygon fill="#8b7355" stroke="#8b7355" points="494.5,-71.06 491,-61.06 487.5,-71.06 494.5,-71.06"/>
</g>
</g>
</svg>
