<?xml version="1.0" encoding="UTF-8" standalone="no"?>
<!DOCTYPE svg PUBLIC "-//W3C//DTD SVG 1.1//EN"
 "http://www.w3.org/Graphics/SVG/1.1/DTD/svg11.dtd">
<!-- Generated by graphviz version 2.43.0 (0)
 -->
<!-- Title: lineage Pages: 1 -->
<svg width="686pt" height="829pt"
 viewBox="0.00 0.00 686.00 829.00" xmlns="http://www.w3.org/2000/svg" xmlns:xlink="http://www.w3.org/1999/xlink">
<g id="graph0" class="graph" transform="scale(1 1) rotate(0) translate(4 825)">
<title>lineage</title>
<polygon fill="white" stroke="transparent" points="-4,4 -4,-825 682,-825 682,4 -4,4"/>
<g id="clust1" class="cluster">
<title>cluster_60s</title>
</g>
<g id="clust2" class="cluster">
<title>cluster_70s</title>
</g>
<g id="clust3" class="cluster">
<title>cluster_80s</title>
</g>
<g id="clust4" class="cluster">
<title>cluster_90s</title>
</g>
<g id="clust5" class="cluster">
<title>cluster_00s</title>
</g>
<g id="clust6" class="cluster">
<title>cluster_10s</title>
</g>
<!-- plato -->
<g id="node1" class="node">
<title>plato</title>
<path fill="#d4a574" stroke="#8b7355" d="M457,-782C457,-782 425,-782 425,-782 419,-782 413,-776 413,-770 413,-770 413,-758 413,-758 413,-752 419,-746 425,-746 425,-746 457,-746 457,-746 463,-746 469,-752 469,-758 469,-758 469,-770 469,-770 469,-776 463,-782 457,-782"/>
<text text-anchor="middle" x="441" y="-767.2" font-family="IBM Plex Sans" font-size="11.00">PLATO</text>
<text text-anchor="middle" x="441" y="-755.2" font-family="IBM Plex Sans" font-size="11.00">1964</text>
</g>
<!-- tek4014 -->
<g id="node2" class="node">
<title>tek4014</title>
<path fill="#d4a574" stroke="#8b7355" d="M478,-669C478,-669 404,-669 404,-669 398,-669 392,-663 392,-657 392,-657 392,-645 392,-645 392,-639 398,-633 404,-633 404,-633 478,-633 478,-633 484,-633 490,-639 490,-645 490,-645 490,-657 490,-657 490,-663 484,-669 478,-669"/>
<text text-anchor="middle" x="441" y="-654.2" font-family="IBM Plex Sans" font-size="11.00">Tektronix 4014</text>
<text text-anchor="middle" x="441" y="-642.2" font-family="IBM Plex Sans" font-size="11.00">1972</text>
</g>
<!-- plato&#45;&gt;tek4014 -->
<g id="edge1" class="edge">
<title>plato&#45;&gt;tek4014</title>
<path fill="none" stroke="#555555" stroke-dasharray="5,2" d="M441,-745.66C441,-727.9 441,-700.04 441,-679.32"/>
<polygon fill="#555555" stroke="#555555" points="444.5,-679.22 441,-669.22 437.5,-679.22 444.5,-679.22"/>
<text text-anchor="middle" x="463.5" y="-720.8" font-family="IBM Plex Sans" font-size="9.00">networked</text>
<text text-anchor="middle" x="463.5" y="-710.8" font-family="IBM Plex Sans" font-size="9.00">terminals</text>
</g>
<!-- mgr -->
<g id="node6" class="node">
<title>mgr</title>
<path fill="#d4a574" stroke="#8b7355" d="M331,-556C331,-556 301,-556 301,-556 295,-556 289,-550 289,-544 289,-544 289,-532 289,-532 289,-526 295,-520 301,-520 301,-520 331,-520 331,-520 337,-520 343,-526 343,-532 343,-532 343,-544 343,-544 343,-550 337,-556 331,-556"/>
<text text-anchor="middle" x="316" y="-541.2" font-family="IBM Plex Sans" font-size="11.00">MGR</text>
<text text-anchor="middle" x="316" y="-529.2" font-family="IBM Plex Sans" font-size="11.00">1984</text>
</g>
<!-- tek4014&#45;&gt;mgr -->
<g id="edge6" class="edge">
<title>tek4014&#45;&gt;mgr</title>
<path fill="none" stroke="#555555" stroke-dasharray="5,2" d="M391.91,-642.29C361.44,-636.39 326.36,-627.2 317,-615 306.62,-601.47 306.47,-582.25 308.85,-566.51"/>
<polygon fill="#555555" stroke="#555555" points="312.37,-566.78 310.82,-556.3 305.49,-565.45 312.37,-566.78"/>
<text text-anchor="middle" x="342" y="-607.8" font-family="IBM Plex Sans" font-size="9.00">escape seq.</text>
<text text-anchor="middle" x="342" y="-597.8" font-family="IBM Plex Sans" font-size="9.00">protocol</text>
</g>
<!-- x11 -->
<g id="node7" class="node">
<title>x11</title>
<path fill="#e8d5b7" stroke="#8b7355" d="M601,-556C601,-556 571,-556 571,-556 565,-556 559,-550 559,-544 559,-544 559,-532 559,-532 559,-526 565,-520 571,-520 571,-520 601,-520 601,-520 607,-520 613,-526 613,-532 613,-532 613,-544 613,-544 613,-550 607,-556 601,-556"/>
<text text-anchor="middle" x="586" y="-541.2" font-family="IBM Plex Sans" font-size="11.00">X11</text>
<text text-anchor="middle" x="586" y="-529.2" font-family="IBM Plex Sans" font-size="11.00">1987</text>
</g>
<!-- tek4014&#45;&gt;x11 -->
<g id="edge2" class="edge">
<title>tek4014&#45;&gt;x11</title>
<path fill="none" stroke="#555555" stroke-dasharray="5,2" d="M445.93,-632.86C450.53,-620.2 458.7,-603.71 472,-595 501.15,-575.91 519.67,-604.16 550,-587 559.15,-581.82 566.68,-573.27 572.45,-564.8"/>
<polygon fill="#555555" stroke="#555555" points="575.52,-566.5 577.81,-556.16 569.57,-562.81 575.52,-566.5"/>
<text text-anchor="middle" x="497" y="-607.8" font-family="IBM Plex Sans" font-size="9.00">escape seq.</text>
<text text-anchor="middle" x="497" y="-597.8" font-family="IBM Plex Sans" font-size="9.00">protocol</text>
</g>
<!-- xerox -->
<g id="node3" class="node">
<title>xerox</title>
<path fill="#f5e6cc" stroke="#8b7355" d="M572,-669C572,-669 520,-669 520,-669 514,-669 508,-663 508,-657 508,-657 508,-645 508,-645 508,-639 514,-633 520,-633 520,-633 572,-633 572,-633 578,-633 584,-639 584,-645 584,-645 584,-657 584,-657 584,-663 578,-669 572,-669"/>
<text text-anchor="middle" x="546" y="-654.2" font-family="IBM Plex Sans" font-size="11.00">Xerox Alto</text>
<text text-anchor="middle" x="546" y="-642.2" font-family="IBM Plex Sans" font-size="11.00">1973</text>
</g>
<!-- ps -->
<g id="node4" class="node">
<title>ps</title>
<path fill="#e8d5b7" stroke="#8b7355" d="M529,-556C529,-556 479,-556 479,-556 473,-556 467,-550 467,-544 467,-544 467,-532 467,-532 467,-526 473,-520 479,-520 479,-520 529,-520 529,-520 535,-520 541,-526 541,-532 541,-532 541,-544 541,-544 541,-550 535,-556 529,-556"/>
<text text-anchor="middle" x="504" y="-541.2" font-family="IBM Plex Sans" font-size="11.00">PostScript</text>
<text text-anchor="middle" x="504" y="-529.2" font-family="IBM Plex Sans" font-size="11.00">1984</text>
</g>
<!-- xerox&#45;&gt;ps -->
<g id="edge3" class="edge">
<title>xerox&#45;&gt;ps</title>
<path fill="none" stroke="#555555" d="M539.44,-632.66C532.66,-614.74 521.98,-586.53 514.12,-565.75"/>
<polygon fill="#555555" stroke="#555555" points="517.33,-564.34 510.52,-556.22 510.78,-566.81 517.33,-564.34"/>
<text text-anchor="middle" x="563.5" y="-602.8" font-family="IBM Plex Sans" font-size="9.00">imaging model</text>
</g>
<!-- blit -->
<g id="node5" class="node">
<title>blit</title>
<path fill="#e8d5b7" stroke="#8b7355" d="M437,-556C437,-556 373,-556 373,-556 367,-556 361,-550 361,-544 361,-544 361,-532 361,-532 361,-526 367,-520 373,-520 373,-520 437,-520 437,-520 443,-520 449,-526 449,-532 449,-532 449,-544 449,-544 449,-550 443,-556 437,-556"/>
<text text-anchor="middle" x="405" y="-541.2" font-family="IBM Plex Sans" font-size="11.00">Blit Terminal</text>
<text text-anchor="middle" x="405" y="-529.2" font-family="IBM Plex Sans" font-size="11.00">1982</text>
</g>
<!-- xerox&#45;&gt;blit -->
<g id="edge4" class="edge">
<title>xerox&#45;&gt;blit</title>
<path fill="none" stroke="#555555" d="M518.2,-632.9C512.06,-629.79 505.46,-626.93 499,-625 475.69,-618.04 406.4,-632.97 390,-615 377.8,-601.63 382.57,-581.31 389.85,-565.05"/>
<polygon fill="#555555" stroke="#555555" points="393.01,-566.54 394.31,-556.02 386.74,-563.44 393.01,-566.54"/>
<text text-anchor="middle" x="420.5" y="-602.8" font-family="IBM Plex Sans" font-size="9.00">bitmap display</text>
</g>
<!-- xerox&#45;&gt;x11 -->
<g id="edge5" class="edge">
<title>xerox&#45;&gt;x11</title>
<path fill="none" stroke="#555555" d="M584.16,-637.48C594.34,-632.2 604.12,-624.91 610,-615 619.12,-599.62 612.92,-580.41 604.54,-565.15"/>
<polygon fill="#555555" stroke="#555555" points="607.33,-562.99 599.16,-556.23 601.33,-566.6 607.33,-562.99"/>
<text text-anchor="middle" x="636.5" y="-602.8" font-family="IBM Plex Sans" font-size="9.00">windowing</text>
</g>
<!-- news -->
<g id="node8" class="node">
<title>news</title>
<path fill="#d4a574" stroke="#8b7355" d="M339,-464C339,-464 309,-464 309,-464 303,-464 297,-458 297,-452 297,-452 297,-440 297,-440 297,-434 303,-428 309,-428 309,-428 339,-428 339,-428 345,-428 351,-434 351,-440 351,-440 351,-452 351,-452 351,-458 345,-464 339,-464"/>
<text text-anchor="middle" x="324" y="-449.2" font-family="IBM Plex Sans" font-size="11.00">NeWS</text>
<text text-anchor="middle" x="324" y="-437.2" font-family="IBM Plex Sans" font-size="11.00">1986</text>
</g>
<!-- ps&#45;&gt;news -->
<g id="edge7" class="edge">
<title>ps&#45;&gt;news</title>
<path fill="none" stroke="#555555" d="M466.97,-522.89C463.95,-521.87 460.93,-520.89 458,-520 425.2,-510.04 413.2,-518.22 383,-502 368.8,-494.37 355.45,-482.49 345.05,-471.72"/>
<polygon fill="#555555" stroke="#555555" points="347.39,-469.1 338.03,-464.15 342.26,-473.86 347.39,-469.1"/>
<text text-anchor="middle" x="413.5" y="-494.8" font-family="IBM Plex Sans" font-size="9.00">full interpreter</text>
<text text-anchor="middle" x="413.5" y="-484.8" font-family="IBM Plex Sans" font-size="9.00">in server</text>
</g>
<!-- dps -->
<g id="node9" class="node">
<title>dps</title>
<path fill="#d4a574" stroke="#8b7355" d="M476.5,-464C476.5,-464 385.5,-464 385.5,-464 379.5,-464 373.5,-458 373.5,-452 373.5,-452 373.5,-440 373.5,-440 373.5,-434 379.5,-428 385.5,-428 385.5,-428 476.5,-428 476.5,-428 482.5,-428 488.5,-434 488.5,-440 488.5,-440 488.5,-452 488.5,-452 488.5,-458 482.5,-464 476.5,-464"/>
<text text-anchor="middle" x="431" y="-449.2" font-family="IBM Plex Sans" font-size="11.00">Display PostScript</text>
<text text-anchor="middle" x="431" y="-437.2" font-family="IBM Plex Sans" font-size="11.00">1988</text>
</g>
<!-- ps&#45;&gt;dps -->
<g id="edge8" class="edge">
<title>ps&#45;&gt;dps</title>
<path fill="none" stroke="#555555" d="M481.02,-519.73C474.77,-514.43 468.28,-508.32 463,-502 455.78,-493.35 449.23,-482.86 443.97,-473.37"/>
<polygon fill="#555555" stroke="#555555" points="446.94,-471.51 439.16,-464.32 440.76,-474.79 446.94,-471.51"/>
<text text-anchor="middle" x="484" y="-494.8" font-family="IBM Plex Sans" font-size="9.00">rendering</text>
<text text-anchor="middle" x="484" y="-484.8" font-family="IBM Plex Sans" font-size="9.00">only</text>
</g>
<!-- pdf -->
<g id="node12" class="node">
<title>pdf</title>
<path fill="#f5e6cc" stroke="#8b7355" d="M165,-351C165,-351 135,-351 135,-351 129,-351 123,-345 123,-339 123,-339 123,-327 123,-327 123,-321 129,-315 135,-315 135,-315 165,-315 165,-315 171,-315 177,-321 177,-327 177,-327 177,-339 177,-339 177,-345 171,-351 165,-351"/>
<text text-anchor="middle" x="150" y="-336.2" font-family="IBM Plex Sans" font-size="11.00">PDF</text>
<text text-anchor="middle" x="150" y="-324.2" font-family="IBM Plex Sans" font-size="11.00">1993</text>
</g>
<!-- ps&#45;&gt;pdf -->
<g id="edge9" class="edge">
<title>ps&#45;&gt;pdf</title>
<path fill="none" stroke="#555555" d="M466.78,-522.59C463.83,-521.65 460.88,-520.77 458,-520 361.79,-494.21 320.68,-523.77 241,-464 204.37,-436.52 176.94,-389.93 162.21,-360.62"/>
<polygon fill="#555555" stroke="#555555" points="165.24,-358.84 157.71,-351.39 158.95,-361.92 165.24,-358.84"/>
<text text-anchor="middle" x="264.5" y="-448.8" font-family="IBM Plex Sans" font-size="9.00">declarative</text>
<text text-anchor="middle" x="264.5" y="-438.8" font-family="IBM Plex Sans" font-size="9.00">subset</text>
</g>
<!-- svg -->
<g id="node16" class="node">
<title>svg</title>
<path fill="#f5e6cc" stroke="#8b7355" d="M544,-238C544,-238 506,-238 506,-238 500,-238 494,-232 494,-226 494,-226 494,-214 494,-214 494,-208 500,-202 506,-202 506,-202 544,-202 544,-202 550,-202 556,-208 556,-214 556,-214 556,-226 556,-226 556,-232 550,-238 544,-238"/>
<text text-anchor="middle" x="525" y="-223.2" font-family="IBM Plex Sans" font-size="11.00">SVG 1.0</text>
<text text-anchor="middle" x="525" y="-211.2" font-family="IBM Plex Sans" font-size="11.00">2001</text>
</g>
<!-- ps&#45;&gt;svg -->
<g id="edge18" class="edge">
<title>ps&#45;&gt;svg</title>
<path fill="none" stroke="#555555" d="M505.16,-519.56C508.64,-467.21 519.01,-311.16 523.21,-247.99"/>
<polygon fill="#555555" stroke="#555555" points="526.7,-248.21 523.87,-238 519.71,-247.75 526.7,-248.21"/>
<text text-anchor="middle" x="534" y="-402.8" font-family="IBM Plex Sans" font-size="9.00">vector</text>
<text text-anchor="middle" x="534" y="-392.8" font-family="IBM Plex Sans" font-size="9.00">primitives</text>
</g>
<!-- plan9 -->
<g id="node11" class="node">
<title>plan9</title>
<path fill="#e8d5b7" stroke="#8b7355" d="M92.5,-351C92.5,-351 27.5,-351 27.5,-351 21.5,-351 15.5,-345 15.5,-339 15.5,-339 15.5,-327 15.5,-327 15.5,-321 21.5,-315 27.5,-315 27.5,-315 92.5,-315 92.5,-315 98.5,-315 104.5,-321 104.5,-327 104.5,-327 104.5,-339 104.5,-339 104.5,-345 98.5,-351 92.5,-351"/>
<text text-anchor="middle" x="60" y="-336.2" font-family="IBM Plex Sans" font-size="11.00">Plan 9 8½/rio</text>
<text text-anchor="middle" x="60" y="-324.2" font-family="IBM Plex Sans" font-size="11.00">1991</text>
</g>
<!-- blit&#45;&gt;plan9 -->
<g id="edge12" class="edge">
<title>blit&#45;&gt;plan9</title>
<path fill="none" stroke="#555555" d="M360.94,-522.08C357.94,-521.3 354.93,-520.6 352,-520 309.8,-511.37 196.12,-523.85 159,-502 106.24,-470.95 78.62,-399.94 66.95,-360.91"/>
<polygon fill="#555555" stroke="#555555" points="70.3,-359.92 64.19,-351.27 63.57,-361.84 70.3,-359.92"/>
<text text-anchor="middle" x="126" y="-443.8" font-family="IBM Plex Sans" font-size="9.00">Pike</text>
</g>
<!-- wayland -->
<g id="node17" class="node">
<title>wayland</title>
<path fill="#e8d5b7" stroke="#8b7355" d="M464,-238C464,-238 422,-238 422,-238 416,-238 410,-232 410,-226 410,-226 410,-214 410,-214 410,-208 416,-202 422,-202 422,-202 464,-202 464,-202 470,-202 476,-208 476,-214 476,-214 476,-226 476,-226 476,-232 470,-238 464,-238"/>
<text text-anchor="middle" x="443" y="-223.2" font-family="IBM Plex Sans" font-size="11.00">Wayland</text>
<text text-anchor="middle" x="443" y="-211.2" font-family="IBM Plex Sans" font-size="11.00">2008</text>
</g>
<!-- x11&#45;&gt;wayland -->
<g id="edge14" class="edge">
<title>x11&#45;&gt;wayland</title>
<path fill="none" stroke="#555555" d="M585.15,-519.59C583.26,-491.38 577.32,-434.37 559,-390 535.81,-333.84 491.95,-277.41 465.31,-246.06"/>
<polygon fill="#555555" stroke="#555555" points="467.79,-243.57 458.61,-238.27 462.48,-248.14 467.79,-243.57"/>
<text text-anchor="middle" x="581.5" y="-402.8" font-family="IBM Plex Sans" font-size="9.00">lessons</text>
<text text-anchor="middle" x="581.5" y="-392.8" font-family="IBM Plex Sans" font-size="9.00">learned</text>
</g>
<!-- java -->
<g id="node14" class="node">
<title>java</title>
<path fill="#f5e6cc" stroke="#8b7355" d="M252.5,-351C252.5,-351 207.5,-351 207.5,-351 201.5,-351 195.5,-345 195.5,-339 195.5,-339 195.5,-327 195.5,-327 195.5,-321 201.5,-315 207.5,-315 207.5,-315 252.5,-315 252.5,-315 258.5,-315 264.5,-321 264.5,-327 264.5,-327 264.5,-339 264.5,-339 264.5,-345 258.5,-351 252.5,-351"/>
<text text-anchor="middle" x="230" y="-336.2" font-family="IBM Plex Sans" font-size="11.00">Java AWT</text>
<text text-anchor="middle" x="230" y="-324.2" font-family="IBM Plex Sans" font-size="11.00">1995</text>
</g>
<!-- news&#45;&gt;java -->
<g id="edge11" class="edge">
<title>news&#45;&gt;java</title>
<path fill="none" stroke="#555555" stroke-dasharray="5,2" d="M309.31,-427.66C293.72,-409.25 268.94,-379.98 251.23,-359.07"/>
<polygon fill="#555555" stroke="#555555" points="253.72,-356.59 244.58,-351.22 248.38,-361.12 253.72,-356.59"/>
<text text-anchor="middle" x="310" y="-397.8" font-family="IBM Plex Sans" font-size="9.00">Gosling</text>
</g>
<!-- nextstep -->
<g id="node10" class="node">
<title>nextstep</title>
<path fill="#d4a574" stroke="#8b7355" d="M381,-351C381,-351 331,-351 331,-351 325,-351 319,-345 319,-339 319,-339 319,-327 319,-327 319,-321 325,-315 331,-315 331,-315 381,-315 381,-315 387,-315 393,-321 393,-327 393,-327 393,-339 393,-339 393,-345 387,-351 381,-351"/>
<text text-anchor="middle" x="356" y="-336.2" font-family="IBM Plex Sans" font-size="11.00">NeXTSTEP</text>
<text text-anchor="middle" x="356" y="-324.2" font-family="IBM Plex Sans" font-size="11.00">1988</text>
</g>
<!-- dps&#45;&gt;nextstep -->
<g id="edge10" class="edge">
<title>dps&#45;&gt;nextstep</title>
<path fill="none" stroke="#555555" d="M419.28,-427.66C406.95,-409.41 387.42,-380.5 373.31,-359.62"/>
<polygon fill="#555555" stroke="#555555" points="376.14,-357.55 367.64,-351.22 370.34,-361.47 376.14,-357.55"/>
</g>
<!-- quartz -->
<g id="node15" class="node">
<title>quartz</title>
<path fill="#d4a574" stroke="#8b7355" d="M380,-238C380,-238 330,-238 330,-238 324,-238 318,-232 318,-226 318,-226 318,-214 318,-214 318,-208 324,-202 330,-202 330,-202 380,-202 380,-202 386,-202 392,-208 392,-214 392,-214 392,-226 392,-226 392,-232 386,-238 380,-238"/>
<text text-anchor="middle" x="355" y="-223.2" font-family="IBM Plex Sans" font-size="11.00">Quartz 2D</text>
<text text-anchor="middle" x="355" y="-211.2" font-family="IBM Plex Sans" font-size="11.00">2001</text>
</g>
<!-- dps&#45;&gt;quartz -->
<g id="edge17" class="edge">
<title>dps&#45;&gt;quartz</title>
<path fill="none" stroke="#555555" d="M434.63,-427.98C440.54,-395.51 448.67,-323.77 417,-277 412.54,-270.42 407.4,-273.72 401,-269 392.08,-262.43 383.38,-254.03 375.99,-246.11"/>
<polygon fill="#555555" stroke="#555555" points="378.37,-243.52 369.08,-238.43 373.17,-248.2 378.37,-243.52"/>
<text text-anchor="middle" x="459.5" y="-335.8" font-family="IBM Plex Sans" font-size="9.00">API</text>
<text text-anchor="middle" x="459.5" y="-325.8" font-family="IBM Plex Sans" font-size="9.00">structure</text>
</g>
<!-- nextstep&#45;&gt;quartz -->
<g id="edge15" class="edge">
<title>nextstep&#45;&gt;quartz</title>
<path fill="none" stroke="#555555" d="M355.84,-314.66C355.68,-296.9 355.43,-269.04 355.25,-248.32"/>
<polygon fill="#555555" stroke="#555555" points="358.75,-248.19 355.16,-238.22 351.75,-248.25 358.75,-248.19"/>
<text text-anchor="middle" x="386.5" y="-289.8" font-family="IBM Plex Sans" font-size="9.00">Apple</text>
<text text-anchor="middle" x="386.5" y="-279.8" font-family="IBM Plex Sans" font-size="9.00">acquires NeXT</text>
</g>
<!-- inferno -->
<g id="node13" class="node">
<title>inferno</title>
<path fill="#e8d5b7" stroke="#8b7355" d="M91,-238C91,-238 29,-238 29,-238 23,-238 17,-232 17,-226 17,-226 17,-214 17,-214 17,-208 23,-202 29,-202 29,-202 91,-202 91,-202 97,-202 103,-208 103,-214 103,-214 103,-226 103,-226 103,-232 97,-238 91,-238"/>
<text text-anchor="middle" x="60" y="-223.2" font-family="IBM Plex Sans" font-size="11.00">Inferno/Styx</text>
<text text-anchor="middle" x="60" y="-211.2" font-family="IBM Plex Sans" font-size="11.00">1995</text>
</g>
<!-- plan9&#45;&gt;inferno -->
<g id="edge13" class="edge">
<title>plan9&#45;&gt;inferno</title>
<path fill="none" stroke="#555555" d="M60,-314.66C60,-296.9 60,-269.04 60,-248.32"/>
<polygon fill="#555555" stroke="#555555" points="63.5,-248.22 60,-238.22 56.5,-248.22 63.5,-248.22"/>
</g>
<!-- pdf&#45;&gt;quartz -->
<g id="edge16" class="edge">
<title>pdf&#45;&gt;quartz</title>
<path fill="none" stroke="#555555" d="M173.17,-314.86C177.34,-312.07 181.73,-309.34 186,-307 224.44,-285.94 238,-288.99 277,-269 291.86,-261.39 307.65,-251.94 321.11,-243.45"/>
<polygon fill="#555555" stroke="#555555" points="323.04,-246.37 329.58,-238.04 319.27,-240.47 323.04,-246.37"/>
<text text-anchor="middle" x="278" y="-289.8" font-family="IBM Plex Sans" font-size="9.00">imaging</text>
<text text-anchor="middle" x="278" y="-279.8" font-family="IBM Plex Sans" font-size="9.00">model</text>
</g>
<!-- webgpu -->
<g id="node18" class="node">
<title>webgpu</title>
<path fill="#f5e6cc" stroke="#8b7355" d="M546,-125C546,-125 502,-125 502,-125 496,-125 490,-119 490,-113 490,-113 490,-101 490,-101 490,-95 496,-89 502,-89 502,-89 546,-89 546,-89 552,-89 558,-95 558,-101 558,-101 558,-113 558,-113 558,-119 552,-125 546,-125"/>
<text text-anchor="middle" x="524" y="-110.2" font-family="IBM Plex Sans" font-size="11.00">WebGPU</text>
<text text-anchor="middle" x="524" y="-98.2" font-family="IBM Plex Sans" font-size="11.00">2017+</text>
</g>
<!-- svg&#45;&gt;webgpu -->
<g id="edge20" class="edge">
<title>svg&#45;&gt;webgpu</title>
<path fill="none" stroke="#555555" d="M524.84,-201.66C524.68,-183.9 524.43,-156.04 524.25,-135.32"/>
<polygon fill="#555555" stroke="#555555" points="527.75,-135.19 524.16,-125.22 520.75,-135.25 527.75,-135.19"/>
<text text-anchor="middle" x="552" y="-171.8" font-family="IBM Plex Sans" font-size="9.00">web platform</text>
</g>
<!-- houdini -->
<g id="node19" class="node">
<title>houdini</title>
<path fill="#f5e6cc" stroke="#8b7355" d="M650,-125C650,-125 588,-125 588,-125 582,-125 576,-119 576,-113 576,-113 576,-101 576,-101 576,-95 582,-89 588,-89 588,-89 650,-89 650,-89 656,-89 662,-95 662,-101 662,-101 662,-113 662,-113 662,-119 656,-125 650,-125"/>
<text text-anchor="middle" x="619" y="-110.2" font-family="IBM Plex Sans" font-size="11.00">CSS Houdini</text>
<text text-anchor="middle" x="619" y="-98.2" font-family="IBM Plex Sans" font-size="11.00">2016+</text>
</g>
<!-- svg&#45;&gt;houdini -->
<g id="edge19" class="edge">
<title>svg&#45;&gt;houdini</title>
<path fill="none" stroke="#555555" d="M556.06,-205.2C565.92,-199.69 576.27,-192.58 584,-184 596.68,-169.93 605.53,-150.46 611.15,-134.76"/>
<polygon fill="#555555" stroke="#555555" points="614.54,-135.67 614.39,-125.08 607.9,-133.45 614.54,-135.67"/>
<text text-anchor="middle" x="625" y="-171.8" font-family="IBM Plex Sans" font-size="9.00">web platform</text>
</g>
<!-- scenic -->
<g id="node20" class="node">
<title>scenic</title>
<path fill="#d4a574" stroke="#8b7355" d="M387.5,-125C387.5,-125 314.5,-125 314.5,-125 308.5,-125 302.5,-119 302.5,-113 302.5,-113 302.5,-101 302.5,-101 302.5,-95 308.5,-89 314.5,-89 314.5,-89 387.5,-89 387.5,-89 393.5,-89 399.5,-95 399.5,-101 399.5,-101 399.5,-113 399.5,-113 399.5,-119 393.5,-125 387.5,-125"/>
<text text-anchor="middle" x="351" y="-110.2" font-family="IBM Plex Sans" font-size="11.00">Fuchsia Scenic</text>
<text text-anchor="middle" x="351" y="-98.2" font-family="IBM Plex Sans" font-size="11.00">2016+</text>
</g>
<!-- wayland&#45;&gt;scenic -->
<g id="edge21" class="edge">
<title>wayland&#45;&gt;scenic</title>
<path fill="none" stroke="#555555" d="M412.12,-201.86C404.62,-196.76 397.03,-190.72 391,-184 378.09,-169.62 368,-150.32 361.18,-134.77"/>
<polygon fill="#555555" stroke="#555555" points="364.26,-133.06 357.18,-125.18 357.8,-135.75 364.26,-133.06"/>
<text text-anchor="middle" x="415" y="-176.8" font-family="IBM Plex Sans" font-size="9.00">compositor</text>
<text text-anchor="middle" x="415" y="-166.8" font-family="IBM Plex Sans" font-size="9.00">model</text>
</g>
<!-- arcan -->
<g id="node21" class="node">
<title>arcan</title>
<path fill="#d4a574" stroke="#8b7355" d="M460,-125C460,-125 430,-125 430,-125 424,-125 418,-119 418,-113 418,-113 418,-101 418,-101 418,-95 424,-89 430,-89 430,-89 460,-89 460,-89 466,-89 472,-95 472,-101 472,-101 472,-113 472,-113 472,-119 466,-125 460,-125"/>
<text text-anchor="middle" x="445" y="-110.2" font-family="IBM Plex Sans" font-size="11.00">Arcan</text>
<text text-anchor="middle" x="445" y="-98.2" font-family="IBM Plex Sans" font-size="11.00">2012+</text>
</g>
<!-- wayland&#45;&gt;arcan -->
<g id="edge22" class="edge">
<title>wayland&#45;&gt;arcan</title>
<path fill="none" stroke="#555555" d="M443.31,-201.66C443.63,-183.9 444.13,-156.04 444.51,-135.32"/>
<polygon fill="#555555" stroke="#555555" points="448.01,-135.28 444.69,-125.22 441.01,-135.16 448.01,-135.28"/>
<text text-anchor="middle" x="464.5" y="-176.8" font-family="IBM Plex Sans" font-size="9.00">rethinking</text>
<text text-anchor="middle" x="464.5" y="-166.8" font-family="IBM Plex Sans" font-size="9.00">display</text>
</g>
<!-- future -->
<g id="node22" class="node">
<title>future</title>
<path fill="#c4956a" stroke="#8b7355" d="M499,-52C499,-52 469,-52 469,-52 463,-52 457,-46 457,-40 457,-40 457,-28 457,-28 457,-22 463,-16 469,-16 469,-16 499,-16 499,-16 505,-16 511,-22 511,-28 511,-28 511,-40 511,-40 511,-46 505,-52 499,-52"/>
<text text-anchor="middle" x="484" y="-30.3" font-family="IBM Plex Sans Bold" font-size="14.00"> &#160;? &#160;</text>
</g>
<!-- webgpu&#45;&gt;future -->
<g id="edge26" class="edge">
<title>webgpu&#45;&gt;future</title>
<path fill="none" stroke="#555555" d="M514.32,-88.81C509.6,-80.44 503.83,-70.2 498.59,-60.9"/>
<polygon fill="#555555" stroke="#555555" points="501.55,-59.02 493.59,-52.03 495.45,-62.46 501.55,-59.02"/>
</g>
<!-- houdini&#45;&gt;future -->
<g id="edge25" class="edge">
<title>houdini&#45;&gt;future</title>
<path fill="none" stroke="#555555" d="M586.66,-88.99C566.64,-78.46 540.89,-64.92 520.19,-54.03"/>
<polygon fill="#555555" stroke="#555555" points="521.55,-50.79 511.07,-49.24 518.29,-56.99 521.55,-50.79"/>
</g>
<!-- scenic&#45;&gt;future -->
<g id="edge23" class="edge">
<title>scenic&#45;&gt;future</title>
<path fill="none" stroke="#555555" d="M382.86,-88.99C402.45,-78.53 427.61,-65.1 447.93,-54.25"/>
<polygon fill="#555555" stroke="#555555" points="449.72,-57.27 456.89,-49.47 446.42,-51.09 449.72,-57.27"/>
</g>
<!-- arcan&#45;&gt;future -->
<g id="edge24" class="edge">
<title>arcan&#45;&gt;future</title>
<path fill="none" stroke="#555555" d="M454.44,-88.81C459.04,-80.44 464.67,-70.2 469.77,-60.9"/>
<polygon fill="#555555" stroke="#555555" points="472.9,-62.48 474.65,-52.03 466.76,-59.11 472.9,-62.48"/>
</g>
</g>
</svg>
