<?xml version="1.0" encoding="UTF-8" standalone="no"?>
<!DOCTYPE svg PUBLIC "-//W3C//DTD SVG 1.1//EN"
 "http://www.w3.org/Graphics/SVG/1.1/DTD/svg11.dtd">
<!-- Generated by graphviz version 2.43.0 (0)
 -->
<!-- Title: lineage Pages: 1 -->
<svg width="752pt" height="829pt"
 viewBox="0.00 0.00 752.00 829.00" xmlns="http://www.w3.org/2000/svg" xmlns:xlink="http://www.w3.org/1999/xlink">
<g id="graph0" class="graph" transform="scale(1 1) rotate(0) translate(4 825)">
<title>lineage</title>
<polygon fill="white" stroke="transparent" points="-4,4 -4,-825 748,-825 748,4 -4,4"/>
<g id="clust1" class="cluster">
<title>cluster_60s</title>
</g>
<g id="clust2" class="cluster">
<title>cluster_70s</title>
</g>
<g id="clust3" class="cluster">
<title>cluster_80s</title>
</g>
<g id="clust4" class="cluster">
<title>cluster_90s</title>
</g>
<g id="clust5" class="cluster">
<title>cluster_00s</title>
</g>
<g id="clust6" class="cluster">
<title>cluster_10s</title>
</g>
<!-- plato -->
<g id="node1" class="node">
<title>plato</title>
<path fill="#d4a574" stroke="#8b7355" d="M544,-782C544,-782 512,-782 512,-782 506,-782 500,-776 500,-770 500,-770 500,-758 500,-758 500,-752 506,-746 512,-746 512,-746 544,-746 544,-746 550,-746 556,-752 556,-758 556,-758 556,-770 556,-770 556,-776 550,-782 544,-782"/>
<text text-anchor="middle" x="528" y="-767.2" font-family="IBM Plex Sans" font-size="11.00">PLATO</text>
<text text-anchor="middle" x="528" y="-755.2" font-family="IBM Plex Sans" font-size="11.00">1960</text>
</g>
<!-- xerox -->
<g id="node5" class="node">
<title>xerox</title>
<path fill="#f5e6cc" stroke="#8b7355" d="M554,-669C554,-669 502,-669 502,-669 496,-669 490,-663 490,-657 490,-657 490,-645 490,-645 490,-639 496,-633 502,-633 502,-633 554,-633 554,-633 560,-633 566,-639 566,-645 566,-645 566,-657 566,-657 566,-663 560,-669 554,-669"/>
<text text-anchor="middle" x="528" y="-654.2" font-family="IBM Plex Sans" font-size="11.00">Xerox Alto</text>
<text text-anchor="middle" x="528" y="-642.2" font-family="IBM Plex Sans" font-size="11.00">1973</text>
</g>
<!-- plato&#45;&gt;xerox -->
<g id="edge1" class="edge">
<title>plato&#45;&gt;xerox</title>
<path fill="none" stroke="#555555" stroke-dasharray="5,2" d="M528,-745.66C528,-727.9 528,-700.04 528,-679.32"/>
<polygon fill="#555555" stroke="#555555" points="531.5,-679.22 528,-669.22 524.5,-679.22 531.5,-679.22"/>
<text text-anchor="middle" x="549.5" y="-720.8" font-family="IBM Plex Sans" font-size="9.00">PARC tour</text>
<text text-anchor="middle" x="549.5" y="-710.8" font-family="IBM Plex Sans" font-size="9.00">1972</text>
</g>
<!-- mac -->
<g id="node2" class="node">
<title>mac</title>
<path fill="#e8d5b7" stroke="#8b7355" d="M669.5,-782C669.5,-782 586.5,-782 586.5,-782 580.5,-782 574.5,-776 574.5,-770 574.5,-770 574.5,-758 574.5,-758 574.5,-752 580.5,-746 586.5,-746 586.5,-746 669.5,-746 669.5,-746 675.5,-746 681.5,-752 681.5,-758 681.5,-758 681.5,-770 681.5,-770 681.5,-776 675.5,-782 669.5,-782"/>
<text text-anchor="middle" x="628" y="-767.2" font-family="IBM Plex Sans" font-size="11.00">MIT Project MAC</text>
<text text-anchor="middle" x="628" y="-755.2" font-family="IBM Plex Sans" font-size="11.00">1963</text>
</g>
<!-- x11 -->
<g id="node9" class="node">
<title>x11</title>
<path fill="#e8d5b7" stroke="#8b7355" d="M601,-556C601,-556 571,-556 571,-556 565,-556 559,-550 559,-544 559,-544 559,-532 559,-532 559,-526 565,-520 571,-520 571,-520 601,-520 601,-520 607,-520 613,-526 613,-532 613,-532 613,-544 613,-544 613,-550 607,-556 601,-556"/>
<text text-anchor="middle" x="586" y="-541.2" font-family="IBM Plex Sans" font-size="11.00">X11</text>
<text text-anchor="middle" x="586" y="-529.2" font-family="IBM Plex Sans" font-size="11.00">1987</text>
</g>
<!-- mac&#45;&gt;x11 -->
<g id="edge5" class="edge">
<title>mac&#45;&gt;x11</title>
<path fill="none" stroke="#555555" stroke-dasharray="5,2" d="M640.18,-745.8C660.91,-714.23 698.27,-645.63 671,-595 660.65,-575.79 640.51,-562.08 622.43,-553.04"/>
<polygon fill="#555555" stroke="#555555" points="623.77,-549.8 613.23,-548.73 620.8,-556.14 623.77,-549.8"/>
<text text-anchor="middle" x="710.5" y="-653.8" font-family="IBM Plex Sans" font-size="9.00">MAC → LCS</text>
<text text-anchor="middle" x="710.5" y="-643.8" font-family="IBM Plex Sans" font-size="9.00">Scheifler 1984</text>
</g>
<!-- tek4002 -->
<g id="node3" class="node">
<title>tek4002</title>
<path fill="#d4a574" stroke="#8b7355" d="M470,-782C470,-782 396,-782 396,-782 390,-782 384,-776 384,-770 384,-770 384,-758 384,-758 384,-752 390,-746 396,-746 396,-746 470,-746 470,-746 476,-746 482,-752 482,-758 482,-758 482,-770 482,-770 482,-776 476,-782 470,-782"/>
<text text-anchor="middle" x="433" y="-767.2" font-family="IBM Plex Sans" font-size="11.00">Tektronix 4002</text>
<text text-anchor="middle" x="433" y="-755.2" font-family="IBM Plex Sans" font-size="11.00">1967</text>
</g>
<!-- tek4014 -->
<g id="node4" class="node">
<title>tek4014</title>
<path fill="#d4a574" stroke="#8b7355" d="M460,-669C460,-669 386,-669 386,-669 380,-669 374,-663 374,-657 374,-657 374,-645 374,-645 374,-639 380,-633 386,-633 386,-633 460,-633 460,-633 466,-633 472,-639 472,-645 472,-645 472,-657 472,-657 472,-663 466,-669 460,-669"/>
<text text-anchor="middle" x="423" y="-654.2" font-family="IBM Plex Sans" font-size="11.00">Tektronix 4014</text>
<text text-anchor="middle" x="423" y="-642.2" font-family="IBM Plex Sans" font-size="11.00">1972</text>
</g>
<!-- tek4002&#45;&gt;tek4014 -->
<g id="edge2" class="edge">
<title>tek4002&#45;&gt;tek4014</title>
<path fill="none" stroke="#555555" d="M431.44,-745.66C429.84,-727.9 427.33,-700.04 425.46,-679.32"/>
<polygon fill="#555555" stroke="#555555" points="428.93,-678.87 424.55,-669.22 421.96,-679.5 428.93,-678.87"/>
<text text-anchor="middle" x="456" y="-720.8" font-family="IBM Plex Sans" font-size="9.00">storage tube</text>
<text text-anchor="middle" x="456" y="-710.8" font-family="IBM Plex Sans" font-size="9.00">refinement</text>
</g>
<!-- mgr -->
<g id="node8" class="node">
<title>mgr</title>
<path fill="#d4a574" stroke="#8b7355" d="M331,-556C331,-556 301,-556 301,-556 295,-556 289,-550 289,-544 289,-544 289,-532 289,-532 289,-526 295,-520 301,-520 301,-520 331,-520 331,-520 337,-520 343,-526 343,-532 343,-532 343,-544 343,-544 343,-550 337,-556 331,-556"/>
<text text-anchor="middle" x="316" y="-541.2" font-family="IBM Plex Sans" font-size="11.00">MGR</text>
<text text-anchor="middle" x="316" y="-529.2" font-family="IBM Plex Sans" font-size="11.00">1984</text>
</g>
<!-- tek4014&#45;&gt;mgr -->
<g id="edge4" class="edge">
<title>tek4014&#45;&gt;mgr</title>
<path fill="none" stroke="#555555" stroke-dasharray="5,2" d="M373.78,-643.46C355.79,-638.55 336.93,-629.98 325,-615 314.24,-601.49 312.08,-582.1 312.57,-566.29"/>
<polygon fill="#555555" stroke="#555555" points="316.08,-566.24 313.26,-556.03 309.1,-565.78 316.08,-566.24"/>
<text text-anchor="middle" x="350" y="-607.8" font-family="IBM Plex Sans" font-size="9.00">escape seq.</text>
<text text-anchor="middle" x="350" y="-597.8" font-family="IBM Plex Sans" font-size="9.00">protocol</text>
</g>
<!-- tek4014&#45;&gt;x11 -->
<g id="edge3" class="edge">
<title>tek4014&#45;&gt;x11</title>
<path fill="none" stroke="#555555" stroke-dasharray="5,2" d="M458.68,-632.96C465.95,-629.96 473.63,-627.13 481,-625 508.66,-617.02 521.49,-631.62 545,-615 561.52,-603.32 572.02,-582.82 578.25,-566.06"/>
<polygon fill="#555555" stroke="#555555" points="581.69,-566.81 581.6,-556.22 575.07,-564.56 581.69,-566.81"/>
<text text-anchor="middle" x="587" y="-607.8" font-family="IBM Plex Sans" font-size="9.00">escape seq.</text>
<text text-anchor="middle" x="587" y="-597.8" font-family="IBM Plex Sans" font-size="9.00">protocol</text>
</g>
<!-- ps -->
<g id="node6" class="node">
<title>ps</title>
<path fill="#e8d5b7" stroke="#8b7355" d="M529,-556C529,-556 479,-556 479,-556 473,-556 467,-550 467,-544 467,-544 467,-532 467,-532 467,-526 473,-520 479,-520 479,-520 529,-520 529,-520 535,-520 541,-526 541,-532 541,-532 541,-544 541,-544 541,-550 535,-556 529,-556"/>
<text text-anchor="middle" x="504" y="-541.2" font-family="IBM Plex Sans" font-size="11.00">PostScript</text>
<text text-anchor="middle" x="504" y="-529.2" font-family="IBM Plex Sans" font-size="11.00">1984</text>
</g>
<!-- xerox&#45;&gt;ps -->
<g id="edge6" class="edge">
<title>xerox&#45;&gt;ps</title>
<path fill="none" stroke="#555555" d="M497.25,-632.94C491.1,-628 485.48,-622.01 482,-615 474.17,-599.2 479.72,-580.14 487.21,-565.06"/>
<polygon fill="#555555" stroke="#555555" points="490.3,-566.7 492.01,-556.25 484.15,-563.35 490.3,-566.7"/>
<text text-anchor="middle" x="513.5" y="-602.8" font-family="IBM Plex Sans" font-size="9.00">imaging model</text>
</g>
<!-- blit -->
<g id="node7" class="node">
<title>blit</title>
<path fill="#e8d5b7" stroke="#8b7355" d="M437,-556C437,-556 373,-556 373,-556 367,-556 361,-550 361,-544 361,-544 361,-532 361,-532 361,-526 367,-520 373,-520 373,-520 437,-520 437,-520 443,-520 449,-526 449,-532 449,-532 449,-544 449,-544 449,-550 443,-556 437,-556"/>
<text text-anchor="middle" x="405" y="-541.2" font-family="IBM Plex Sans" font-size="11.00">Blit Terminal</text>
<text text-anchor="middle" x="405" y="-529.2" font-family="IBM Plex Sans" font-size="11.00">1982</text>
</g>
<!-- xerox&#45;&gt;blit -->
<g id="edge7" class="edge">
<title>xerox&#45;&gt;blit</title>
<path fill="none" stroke="#555555" d="M499.61,-632.91C493.63,-629.88 487.23,-627.05 481,-625 466.49,-620.23 423.58,-626.02 413,-615 400.87,-602.36 399.12,-582.53 400.28,-566.3"/>
<polygon fill="#555555" stroke="#555555" points="403.77,-566.58 401.38,-556.26 396.81,-565.82 403.77,-566.58"/>
<text text-anchor="middle" x="443.5" y="-602.8" font-family="IBM Plex Sans" font-size="9.00">bitmap display</text>
</g>
<!-- xerox&#45;&gt;x11 -->
<g id="edge8" class="edge">
<title>xerox&#45;&gt;x11</title>
<path fill="none" stroke="#555555" d="M566.21,-645.26C585.13,-640.76 606.36,-632.02 618,-615 628.64,-599.45 619.88,-579.8 608.85,-564.37"/>
<polygon fill="#555555" stroke="#555555" points="611.49,-562.06 602.61,-556.29 605.95,-566.34 611.49,-562.06"/>
<text text-anchor="middle" x="644.5" y="-602.8" font-family="IBM Plex Sans" font-size="9.00">windowing</text>
</g>
<!-- news -->
<g id="node10" class="node">
<title>news</title>
<path fill="#d4a574" stroke="#8b7355" d="M331,-464C331,-464 301,-464 301,-464 295,-464 289,-458 289,-452 289,-452 289,-440 289,-440 289,-434 295,-428 301,-428 301,-428 331,-428 331,-428 337,-428 343,-434 343,-440 343,-440 343,-452 343,-452 343,-458 337,-464 331,-464"/>
<text text-anchor="middle" x="316" y="-449.2" font-family="IBM Plex Sans" font-size="11.00">NeWS</text>
<text text-anchor="middle" x="316" y="-437.2" font-family="IBM Plex Sans" font-size="11.00">1986</text>
</g>
<!-- ps&#45;&gt;news -->
<g id="edge9" class="edge">
<title>ps&#45;&gt;news</title>
<path fill="none" stroke="#555555" d="M466.75,-522.69C463.81,-521.72 460.87,-520.81 458,-520 419.18,-508.97 404.38,-521.41 369,-502 355.66,-494.68 343.63,-482.87 334.42,-472.07"/>
<polygon fill="#555555" stroke="#555555" points="336.96,-469.66 327.94,-464.1 331.53,-474.07 336.96,-469.66"/>
<text text-anchor="middle" x="399.5" y="-494.8" font-family="IBM Plex Sans" font-size="9.00">full interpreter</text>
<text text-anchor="middle" x="399.5" y="-484.8" font-family="IBM Plex Sans" font-size="9.00">in server</text>
</g>
<!-- dps -->
<g id="node11" class="node">
<title>dps</title>
<path fill="#d4a574" stroke="#8b7355" d="M464.5,-464C464.5,-464 373.5,-464 373.5,-464 367.5,-464 361.5,-458 361.5,-452 361.5,-452 361.5,-440 361.5,-440 361.5,-434 367.5,-428 373.5,-428 373.5,-428 464.5,-428 464.5,-428 470.5,-428 476.5,-434 476.5,-440 476.5,-440 476.5,-452 476.5,-452 476.5,-458 470.5,-464 464.5,-464"/>
<text text-anchor="middle" x="419" y="-449.2" font-family="IBM Plex Sans" font-size="11.00">Display PostScript</text>
<text text-anchor="middle" x="419" y="-437.2" font-family="IBM Plex Sans" font-size="11.00">1988</text>
</g>
<!-- ps&#45;&gt;dps -->
<g id="edge10" class="edge">
<title>ps&#45;&gt;dps</title>
<path fill="none" stroke="#555555" d="M471.1,-519.87C463.26,-514.81 455.34,-508.78 449,-502 441.26,-493.72 434.85,-483.06 429.96,-473.33"/>
<polygon fill="#555555" stroke="#555555" points="433.02,-471.61 425.6,-464.04 426.68,-474.58 433.02,-471.61"/>
<text text-anchor="middle" x="470" y="-494.8" font-family="IBM Plex Sans" font-size="9.00">rendering</text>
<text text-anchor="middle" x="470" y="-484.8" font-family="IBM Plex Sans" font-size="9.00">only</text>
</g>
<!-- pdf -->
<g id="node14" class="node">
<title>pdf</title>
<path fill="#f5e6cc" stroke="#8b7355" d="M165,-351C165,-351 135,-351 135,-351 129,-351 123,-345 123,-339 123,-339 123,-327 123,-327 123,-321 129,-315 135,-315 135,-315 165,-315 165,-315 171,-315 177,-321 177,-327 177,-327 177,-339 177,-339 177,-345 171,-351 165,-351"/>
<text text-anchor="middle" x="150" y="-336.2" font-family="IBM Plex Sans" font-size="11.00">PDF</text>
<text text-anchor="middle" x="150" y="-324.2" font-family="IBM Plex Sans" font-size="11.00">1993</text>
</g>
<!-- ps&#45;&gt;pdf -->
<g id="edge11" class="edge">
<title>ps&#45;&gt;pdf</title>
<path fill="none" stroke="#555555" d="M466.8,-522.53C463.84,-521.6 460.89,-520.74 458,-520 358.22,-494.24 313.65,-528.15 233,-464 198.17,-436.3 173.58,-389.77 160.61,-360.53"/>
<polygon fill="#555555" stroke="#555555" points="163.83,-359.14 156.67,-351.34 157.39,-361.91 163.83,-359.14"/>
<text text-anchor="middle" x="256.5" y="-448.8" font-family="IBM Plex Sans" font-size="9.00">declarative</text>
<text text-anchor="middle" x="256.5" y="-438.8" font-family="IBM Plex Sans" font-size="9.00">subset</text>
</g>
<!-- svg -->
<g id="node18" class="node">
<title>svg</title>
<path fill="#f5e6cc" stroke="#8b7355" d="M523,-238C523,-238 485,-238 485,-238 479,-238 473,-232 473,-226 473,-226 473,-214 473,-214 473,-208 479,-202 485,-202 485,-202 523,-202 523,-202 529,-202 535,-208 535,-214 535,-214 535,-226 535,-226 535,-232 529,-238 523,-238"/>
<text text-anchor="middle" x="504" y="-223.2" font-family="IBM Plex Sans" font-size="11.00">SVG 1.0</text>
<text text-anchor="middle" x="504" y="-211.2" font-family="IBM Plex Sans" font-size="11.00">2001</text>
</g>
<!-- ps&#45;&gt;svg -->
<g id="edge12" class="edge">
<title>ps&#45;&gt;svg</title>
<path fill="none" stroke="#555555" d="M504,-519.56C504,-467.32 504,-311.81 504,-248.39"/>
<polygon fill="#555555" stroke="#555555" points="507.5,-248 504,-238 500.5,-248 507.5,-248"/>
<text text-anchor="middle" x="525" y="-402.8" font-family="IBM Plex Sans" font-size="9.00">vector</text>
<text text-anchor="middle" x="525" y="-392.8" font-family="IBM Plex Sans" font-size="9.00">primitives</text>
</g>
<!-- plan9 -->
<g id="node13" class="node">
<title>plan9</title>
<path fill="#e8d5b7" stroke="#8b7355" d="M92.5,-351C92.5,-351 27.5,-351 27.5,-351 21.5,-351 15.5,-345 15.5,-339 15.5,-339 15.5,-327 15.5,-327 15.5,-321 21.5,-315 27.5,-315 27.5,-315 92.5,-315 92.5,-315 98.5,-315 104.5,-321 104.5,-327 104.5,-327 104.5,-339 104.5,-339 104.5,-345 98.5,-351 92.5,-351"/>
<text text-anchor="middle" x="60" y="-336.2" font-family="IBM Plex Sans" font-size="11.00">Plan 9 8½/rio</text>
<text text-anchor="middle" x="60" y="-324.2" font-family="IBM Plex Sans" font-size="11.00">1991</text>
</g>
<!-- blit&#45;&gt;plan9 -->
<g id="edge15" class="edge">
<title>blit&#45;&gt;plan9</title>
<path fill="none" stroke="#555555" d="M360.94,-522.08C357.94,-521.3 354.93,-520.6 352,-520 309.8,-511.37 196.12,-523.85 159,-502 106.24,-470.95 78.62,-399.94 66.95,-360.91"/>
<polygon fill="#555555" stroke="#555555" points="70.3,-359.92 64.19,-351.27 63.57,-361.84 70.3,-359.92"/>
<text text-anchor="middle" x="126" y="-443.8" font-family="IBM Plex Sans" font-size="9.00">Pike</text>
</g>
<!-- wayland -->
<g id="node19" class="node">
<title>wayland</title>
<path fill="#e8d5b7" stroke="#8b7355" d="M607,-238C607,-238 565,-238 565,-238 559,-238 553,-232 553,-226 553,-226 553,-214 553,-214 553,-208 559,-202 565,-202 565,-202 607,-202 607,-202 613,-202 619,-208 619,-214 619,-214 619,-226 619,-226 619,-232 613,-238 607,-238"/>
<text text-anchor="middle" x="586" y="-223.2" font-family="IBM Plex Sans" font-size="11.00">Wayland</text>
<text text-anchor="middle" x="586" y="-211.2" font-family="IBM Plex Sans" font-size="11.00">2008</text>
</g>
<!-- x11&#45;&gt;wayland -->
<g id="edge17" class="edge">
<title>x11&#45;&gt;wayland</title>
<path fill="none" stroke="#555555" d="M586,-519.56C586,-467.32 586,-311.81 586,-248.39"/>
<polygon fill="#555555" stroke="#555555" points="589.5,-248 586,-238 582.5,-248 589.5,-248"/>
<text text-anchor="middle" x="602.5" y="-402.8" font-family="IBM Plex Sans" font-size="9.00">lessons</text>
<text text-anchor="middle" x="602.5" y="-392.8" font-family="IBM Plex Sans" font-size="9.00">learned</text>
</g>
<!-- java -->
<g id="node16" class="node">
<title>java</title>
<path fill="#f5e6cc" stroke="#8b7355" d="M252.5,-351C252.5,-351 207.5,-351 207.5,-351 201.5,-351 195.5,-345 195.5,-339 195.5,-339 195.5,-327 195.5,-327 195.5,-321 201.5,-315 207.5,-315 207.5,-315 252.5,-315 252.5,-315 258.5,-315 264.5,-321 264.5,-327 264.5,-327 264.5,-339 264.5,-339 264.5,-345 258.5,-351 252.5,-351"/>
<text text-anchor="middle" x="230" y="-336.2" font-family="IBM Plex Sans" font-size="11.00">Java AWT</text>
<text text-anchor="middle" x="230" y="-324.2" font-family="IBM Plex Sans" font-size="11.00">1995</text>
</g>
<!-- news&#45;&gt;java -->
<g id="edge14" class="edge">
<title>news&#45;&gt;java</title>
<path fill="none" stroke="#555555" stroke-dasharray="5,2" d="M302.56,-427.66C288.36,-409.33 265.83,-380.24 249.64,-359.34"/>
<polygon fill="#555555" stroke="#555555" points="252.23,-356.98 243.34,-351.22 246.7,-361.27 252.23,-356.98"/>
<text text-anchor="middle" x="304" y="-397.8" font-family="IBM Plex Sans" font-size="9.00">Gosling</text>
</g>
<!-- nextstep -->
<g id="node12" class="node">
<title>nextstep</title>
<path fill="#d4a574" stroke="#8b7355" d="M388,-351C388,-351 338,-351 338,-351 332,-351 326,-345 326,-339 326,-339 326,-327 326,-327 326,-321 332,-315 338,-315 338,-315 388,-315 388,-315 394,-315 400,-321 400,-327 400,-327 400,-339 400,-339 400,-345 394,-351 388,-351"/>
<text text-anchor="middle" x="363" y="-336.2" font-family="IBM Plex Sans" font-size="11.00">NeXTSTEP</text>
<text text-anchor="middle" x="363" y="-324.2" font-family="IBM Plex Sans" font-size="11.00">1988</text>
</g>
<!-- dps&#45;&gt;nextstep -->
<g id="edge13" class="edge">
<title>dps&#45;&gt;nextstep</title>
<path fill="none" stroke="#555555" d="M410.25,-427.66C401.13,-409.57 386.72,-381.01 376.21,-360.18"/>
<polygon fill="#555555" stroke="#555555" points="379.32,-358.57 371.69,-351.22 373.07,-361.73 379.32,-358.57"/>
</g>
<!-- quartz -->
<g id="node17" class="node">
<title>quartz</title>
<path fill="#d4a574" stroke="#8b7355" d="M443,-238C443,-238 393,-238 393,-238 387,-238 381,-232 381,-226 381,-226 381,-214 381,-214 381,-208 387,-202 393,-202 393,-202 443,-202 443,-202 449,-202 455,-208 455,-214 455,-214 455,-226 455,-226 455,-232 449,-238 443,-238"/>
<text text-anchor="middle" x="418" y="-223.2" font-family="IBM Plex Sans" font-size="11.00">Quartz 2D</text>
<text text-anchor="middle" x="418" y="-211.2" font-family="IBM Plex Sans" font-size="11.00">2001</text>
</g>
<!-- dps&#45;&gt;quartz -->
<g id="edge20" class="edge">
<title>dps&#45;&gt;quartz</title>
<path fill="none" stroke="#555555" d="M420.18,-427.82C422.1,-397.4 425.45,-332.09 423,-277 422.58,-267.61 421.77,-257.36 420.92,-248.22"/>
<polygon fill="#555555" stroke="#555555" points="424.39,-247.74 419.93,-238.13 417.42,-248.42 424.39,-247.74"/>
<text text-anchor="middle" x="442.5" y="-335.8" font-family="IBM Plex Sans" font-size="9.00">API</text>
<text text-anchor="middle" x="442.5" y="-325.8" font-family="IBM Plex Sans" font-size="9.00">structure</text>
</g>
<!-- nextstep&#45;&gt;quartz -->
<g id="edge18" class="edge">
<title>nextstep&#45;&gt;quartz</title>
<path fill="none" stroke="#555555" d="M359.27,-314.98C357.62,-303.77 357.03,-289 362,-277 367.07,-264.77 376.24,-253.82 385.72,-244.92"/>
<polygon fill="#555555" stroke="#555555" points="388.12,-247.47 393.31,-238.23 383.49,-242.21 388.12,-247.47"/>
<text text-anchor="middle" x="392.5" y="-289.8" font-family="IBM Plex Sans" font-size="9.00">Apple</text>
<text text-anchor="middle" x="392.5" y="-279.8" font-family="IBM Plex Sans" font-size="9.00">acquires NeXT</text>
</g>
<!-- inferno -->
<g id="node15" class="node">
<title>inferno</title>
<path fill="#e8d5b7" stroke="#8b7355" d="M91,-238C91,-238 29,-238 29,-238 23,-238 17,-232 17,-226 17,-226 17,-214 17,-214 17,-208 23,-202 29,-202 29,-202 91,-202 91,-202 97,-202 103,-208 103,-214 103,-214 103,-226 103,-226 103,-232 97,-238 91,-238"/>
<text text-anchor="middle" x="60" y="-223.2" font-family="IBM Plex Sans" font-size="11.00">Inferno/Styx</text>
<text text-anchor="middle" x="60" y="-211.2" font-family="IBM Plex Sans" font-size="11.00">1995</text>
</g>
<!-- plan9&#45;&gt;inferno -->
<g id="edge16" class="edge">
<title>plan9&#45;&gt;inferno</title>
<path fill="none" stroke="#555555" d="M60,-314.66C60,-296.9 60,-269.04 60,-248.32"/>
<polygon fill="#555555" stroke="#555555" points="63.5,-248.22 60,-238.22 56.5,-248.22 63.5,-248.22"/>
</g>
<!-- pdf&#45;&gt;quartz -->
<g id="edge19" class="edge">
<title>pdf&#45;&gt;quartz</title>
<path fill="none" stroke="#555555" d="M173.37,-315C177.79,-312.14 182.45,-309.34 187,-307 219.91,-290.06 313.83,-256.74 371.27,-236.92"/>
<polygon fill="#555555" stroke="#555555" points="372.54,-240.18 380.85,-233.62 370.26,-233.57 372.54,-240.18"/>
<text text-anchor="middle" x="275" y="-289.8" font-family="IBM Plex Sans" font-size="9.00">imaging</text>
<text text-anchor="middle" x="275" y="-279.8" font-family="IBM Plex Sans" font-size="9.00">model</text>
</g>
<!-- webgpu -->
<g id="node20" class="node">
<title>webgpu</title>
<path fill="#f5e6cc" stroke="#8b7355" d="M424,-125C424,-125 380,-125 380,-125 374,-125 368,-119 368,-113 368,-113 368,-101 368,-101 368,-95 374,-89 380,-89 380,-89 424,-89 424,-89 430,-89 436,-95 436,-101 436,-101 436,-113 436,-113 436,-119 430,-125 424,-125"/>
<text text-anchor="middle" x="402" y="-110.2" font-family="IBM Plex Sans" font-size="11.00">WebGPU</text>
<text text-anchor="middle" x="402" y="-98.2" font-family="IBM Plex Sans" font-size="11.00">2017+</text>
</g>
<!-- svg&#45;&gt;webgpu -->
<g id="edge22" class="edge">
<title>svg&#45;&gt;webgpu</title>
<path fill="none" stroke="#555555" d="M478.11,-201.96C473.49,-199.17 468.66,-196.4 464,-194 453.73,-188.7 448.45,-191.88 440,-184 425.85,-170.79 416.22,-151.15 410.19,-135.14"/>
<polygon fill="#555555" stroke="#555555" points="413.34,-133.54 406.74,-125.25 406.73,-135.85 413.34,-133.54"/>
<text text-anchor="middle" x="468" y="-171.8" font-family="IBM Plex Sans" font-size="9.00">web platform</text>
</g>
<!-- houdini -->
<g id="node21" class="node">
<title>houdini</title>
<path fill="#f5e6cc" stroke="#8b7355" d="M528,-125C528,-125 466,-125 466,-125 460,-125 454,-119 454,-113 454,-113 454,-101 454,-101 454,-95 460,-89 466,-89 466,-89 528,-89 528,-89 534,-89 540,-95 540,-101 540,-101 540,-113 540,-113 540,-119 534,-125 528,-125"/>
<text text-anchor="middle" x="497" y="-110.2" font-family="IBM Plex Sans" font-size="11.00">CSS Houdini</text>
<text text-anchor="middle" x="497" y="-98.2" font-family="IBM Plex Sans" font-size="11.00">2016+</text>
</g>
<!-- svg&#45;&gt;houdini -->
<g id="edge21" class="edge">
<title>svg&#45;&gt;houdini</title>
<path fill="none" stroke="#555555" d="M502.91,-201.66C501.79,-183.9 500.03,-156.04 498.72,-135.32"/>
<polygon fill="#555555" stroke="#555555" points="502.21,-134.98 498.09,-125.22 495.22,-135.42 502.21,-134.98"/>
<text text-anchor="middle" x="529" y="-171.8" font-family="IBM Plex Sans" font-size="9.00">web platform</text>
</g>
<!-- scenic -->
<g id="node22" class="node">
<title>scenic</title>
<path fill="#d4a574" stroke="#8b7355" d="M643.5,-125C643.5,-125 570.5,-125 570.5,-125 564.5,-125 558.5,-119 558.5,-113 558.5,-113 558.5,-101 558.5,-101 558.5,-95 564.5,-89 570.5,-89 570.5,-89 643.5,-89 643.5,-89 649.5,-89 655.5,-95 655.5,-101 655.5,-101 655.5,-113 655.5,-113 655.5,-119 649.5,-125 643.5,-125"/>
<text text-anchor="middle" x="607" y="-110.2" font-family="IBM Plex Sans" font-size="11.00">Fuchsia Scenic</text>
<text text-anchor="middle" x="607" y="-98.2" font-family="IBM Plex Sans" font-size="11.00">2016+</text>
</g>
<!-- wayland&#45;&gt;scenic -->
<g id="edge23" class="edge">
<title>wayland&#45;&gt;scenic</title>
<path fill="none" stroke="#555555" d="M589.28,-201.66C592.64,-183.9 597.91,-156.04 601.83,-135.32"/>
<polygon fill="#555555" stroke="#555555" points="605.32,-135.7 603.74,-125.22 598.44,-134.4 605.32,-135.7"/>
<text text-anchor="middle" x="619" y="-176.8" font-family="IBM Plex Sans" font-size="9.00">compositor</text>
<text text-anchor="middle" x="619" y="-166.8" font-family="IBM Plex Sans" font-size="9.00">model</text>
</g>
<!-- arcan -->
<g id="node23" class="node">
<title>arcan</title>
<path fill="#d4a574" stroke="#8b7355" d="M716,-125C716,-125 686,-125 686,-125 680,-125 674,-119 674,-113 674,-113 674,-101 674,-101 674,-95 680,-89 686,-89 686,-89 716,-89 716,-89 722,-89 728,-95 728,-101 728,-101 728,-113 728,-113 728,-119 722,-125 716,-125"/>
<text text-anchor="middle" x="701" y="-110.2" font-family="IBM Plex Sans" font-size="11.00">Arcan</text>
<text text-anchor="middle" x="701" y="-98.2" font-family="IBM Plex Sans" font-size="11.00">2012+</text>
</g>
<!-- wayland&#45;&gt;arcan -->
<g id="edge24" class="edge">
<title>wayland&#45;&gt;arcan</title>
<path fill="none" stroke="#555555" d="M619.1,-203.43C628.69,-198.05 638.77,-191.47 647,-184 662.93,-169.54 676.88,-149.61 686.6,-133.79"/>
<polygon fill="#555555" stroke="#555555" points="689.72,-135.4 691.83,-125.02 683.7,-131.82 689.72,-135.4"/>
<text text-anchor="middle" x="685.5" y="-176.8" font-family="IBM Plex Sans" font-size="9.00">rethinking</text>
<text text-anchor="middle" x="685.5" y="-166.8" font-family="IBM Plex Sans" font-size="9.00">display</text>
</g>
<!-- future -->
<g id="node24" class="node">
<title>future</title>
<path fill="#c4956a" stroke="#8b7355" d="M567,-52C567,-52 537,-52 537,-52 531,-52 525,-46 525,-40 525,-40 525,-28 525,-28 525,-22 531,-16 537,-16 537,-16 567,-16 567,-16 573,-16 579,-22 579,-28 579,-28 579,-40 579,-40 579,-46 573,-52 567,-52"/>
<text text-anchor="middle" x="552" y="-30.3" font-family="IBM Plex Sans Bold" font-size="14.00"> &#160;? &#160;</text>
</g>
<!-- webgpu&#45;&gt;future -->
<g id="edge28" class="edge">
<title>webgpu&#45;&gt;future</title>
<path fill="none" stroke="#555555" d="M436.04,-89.89C459.69,-78.69 491.19,-63.78 515.39,-52.33"/>
<polygon fill="#555555" stroke="#555555" points="517.06,-55.41 524.6,-47.97 514.07,-49.08 517.06,-55.41"/>
</g>
<!-- houdini&#45;&gt;future -->
<g id="edge27" class="edge">
<title>houdini&#45;&gt;future</title>
<path fill="none" stroke="#555555" d="M510.31,-88.81C517,-80.18 525.23,-69.56 532.61,-60.03"/>
<polygon fill="#555555" stroke="#555555" points="535.45,-62.08 538.81,-52.03 529.92,-57.79 535.45,-62.08"/>
</g>
<!-- scenic&#45;&gt;future -->
<g id="edge25" class="edge">
<title>scenic&#45;&gt;future</title>
<path fill="none" stroke="#555555" d="M593.69,-88.81C587,-80.18 578.77,-69.56 571.39,-60.03"/>
<polygon fill="#555555" stroke="#555555" points="574.08,-57.79 565.19,-52.03 568.55,-62.08 574.08,-57.79"/>
</g>
<!-- arcan&#45;&gt;future -->
<g id="edge26" class="edge">
<title>arcan&#45;&gt;future</title>
<path fill="none" stroke="#555555" d="M673.67,-92.98C649.73,-81.57 614.74,-64.9 588.42,-52.36"/>
<polygon fill="#555555" stroke="#555555" points="589.69,-49.08 579.16,-47.94 586.68,-55.4 589.69,-49.08"/>
</g>
</g>
</svg>
