<?xml version="1.0" encoding="UTF-8" standalone="no"?>
<!DOCTYPE svg PUBLIC "-//W3C//DTD SVG 1.1//EN"
 "http://www.w3.org/Graphics/SVG/1.1/DTD/svg11.dtd">
<!-- Generated by graphviz version 2.43.0 (0)
 -->
<!-- Title: spectrum Pages: 1 -->
<svg width="1128pt" height="136pt"
 viewBox="0.00 0.00 1128.00 136.00" xmlns="http://www.w3.org/2000/svg" xmlns:xlink="http://www.w3.org/1999/xlink">
<g id="graph0" class="graph" transform="scale(1 1) rotate(0) translate(4 132)">
<title>spectrum</title>
<g id="clust1" class="cluster">
<title>cluster_spectrum</title>
<path fill="#fff8e7" stroke="#8b7355" d="M176,-8C176,-8 989,-8 989,-8 995,-8 1001,-14 1001,-20 1001,-20 1001,-108 1001,-108 1001,-114 995,-120 989,-120 989,-120 176,-120 176,-120 170,-120 164,-114 164,-108 164,-108 164,-20 164,-20 164,-14 170,-8 176,-8"/>
<text text-anchor="middle" x="582.5" y="-106.4" font-family="IBM Plex Sans Bold" font-size="12.00">Architectural Spectrum: Where Does Computation Live?</text>
</g>
<!-- thick -->
<g id="node1" class="node">
<title>thick</title>
<path fill="#c4956a" stroke="black" d="M250,-90.5C250,-90.5 184,-90.5 184,-90.5 178,-90.5 172,-84.5 172,-78.5 172,-78.5 172,-27.5 172,-27.5 172,-21.5 178,-15.5 184,-15.5 184,-15.5 250,-15.5 250,-15.5 256,-15.5 262,-21.5 262,-27.5 262,-27.5 262,-78.5 262,-78.5 262,-84.5 256,-90.5 250,-90.5"/>
<text text-anchor="middle" x="217" y="-78.5" font-family="IBM Plex Sans" font-size="10.00" fill="#3a2a1a">Thick Server</text>
<text text-anchor="middle" x="217" y="-67.5" font-family="IBM Plex Sans" font-size="10.00" fill="#3a2a1a">─────────</text>
<text text-anchor="middle" x="217" y="-56.5" font-family="IBM Plex Sans" font-size="10.00" fill="#3a2a1a">Full programs</text>
<text text-anchor="middle" x="217" y="-45.5" font-family="IBM Plex Sans" font-size="10.00" fill="#3a2a1a">run server&#45;side</text>
<text text-anchor="middle" x="217" y="-22.5" font-family="IBM Plex Sans" font-size="10.00" fill="#3a2a1a">NeWS</text>
</g>
<!-- drawing -->
<g id="node2" class="node">
<title>drawing</title>
<path fill="#d4a574" stroke="black" d="M440,-90.5C440,-90.5 353,-90.5 353,-90.5 347,-90.5 341,-84.5 341,-78.5 341,-78.5 341,-27.5 341,-27.5 341,-21.5 347,-15.5 353,-15.5 353,-15.5 440,-15.5 440,-15.5 446,-15.5 452,-21.5 452,-27.5 452,-27.5 452,-78.5 452,-78.5 452,-84.5 446,-90.5 440,-90.5"/>
<text text-anchor="middle" x="396.5" y="-78.5" font-family="IBM Plex Sans" font-size="10.00" fill="#3a2a1a">Drawing Commands</text>
<text text-anchor="middle" x="396.5" y="-67.5" font-family="IBM Plex Sans" font-size="10.00" fill="#3a2a1a">─────────</text>
<text text-anchor="middle" x="396.5" y="-56.5" font-family="IBM Plex Sans" font-size="10.00" fill="#3a2a1a">Server interprets</text>
<text text-anchor="middle" x="396.5" y="-45.5" font-family="IBM Plex Sans" font-size="10.00" fill="#3a2a1a">rendering ops</text>
<text text-anchor="middle" x="396.5" y="-22.5" font-family="IBM Plex Sans" font-size="10.00" fill="#3a2a1a">DPS · X11</text>
</g>
<!-- thick&#45;&gt;drawing -->
<g id="edge1" class="edge">
<title>thick&#45;&gt;drawing</title>
<path fill="none" stroke="#8b7355" d="M262.33,-53C282.99,-53 307.98,-53 330.7,-53"/>
<polygon fill="#8b7355" stroke="#8b7355" points="330.95,-56.5 340.95,-53 330.95,-49.5 330.95,-56.5"/>
<text text-anchor="middle" x="301.5" y="-64.6" font-family="IBM Plex Sans" font-size="8.00">less</text>
<text text-anchor="middle" x="301.5" y="-55.6" font-family="IBM Plex Sans" font-size="8.00">server logic</text>
</g>
<!-- scene -->
<g id="node3" class="node">
<title>scene</title>
<path fill="#e8d5b7" stroke="black" d="M626,-90.5C626,-90.5 556,-90.5 556,-90.5 550,-90.5 544,-84.5 544,-78.5 544,-78.5 544,-27.5 544,-27.5 544,-21.5 550,-15.5 556,-15.5 556,-15.5 626,-15.5 626,-15.5 632,-15.5 638,-21.5 638,-27.5 638,-27.5 638,-78.5 638,-78.5 638,-84.5 632,-90.5 626,-90.5"/>
<text text-anchor="middle" x="591" y="-78.5" font-family="IBM Plex Sans" font-size="10.00" fill="#3a2a1a">Scene Graph</text>
<text text-anchor="middle" x="591" y="-67.5" font-family="IBM Plex Sans" font-size="10.00" fill="#3a2a1a">─────────</text>
<text text-anchor="middle" x="591" y="-56.5" font-family="IBM Plex Sans" font-size="10.00" fill="#3a2a1a">Server manages</text>
<text text-anchor="middle" x="591" y="-45.5" font-family="IBM Plex Sans" font-size="10.00" fill="#3a2a1a">retained tree</text>
<text text-anchor="middle" x="591" y="-22.5" font-family="IBM Plex Sans" font-size="10.00" fill="#3a2a1a">Fuchsia Scenic</text>
</g>
<!-- drawing&#45;&gt;scene -->
<g id="edge2" class="edge">
<title>drawing&#45;&gt;scene</title>
<path fill="none" stroke="#8b7355" d="M452.15,-53C477.55,-53 507.74,-53 533.38,-53"/>
<polygon fill="#8b7355" stroke="#8b7355" points="533.69,-56.5 543.69,-53 533.69,-49.5 533.69,-56.5"/>
<text text-anchor="middle" x="498" y="-64.6" font-family="IBM Plex Sans" font-size="8.00">structured</text>
<text text-anchor="middle" x="498" y="-55.6" font-family="IBM Plex Sans" font-size="8.00">not imperative</text>
</g>
<!-- buffer -->
<g id="node4" class="node">
<title>buffer</title>
<path fill="#f0e4ce" stroke="black" d="M809,-90.5C809,-90.5 729,-90.5 729,-90.5 723,-90.5 717,-84.5 717,-78.5 717,-78.5 717,-27.5 717,-27.5 717,-21.5 723,-15.5 729,-15.5 729,-15.5 809,-15.5 809,-15.5 815,-15.5 821,-21.5 821,-27.5 821,-27.5 821,-78.5 821,-78.5 821,-84.5 815,-90.5 809,-90.5"/>
<text text-anchor="middle" x="769" y="-78.5" font-family="IBM Plex Sans" font-size="10.00" fill="#3a2a1a">Buffer Sharing</text>
<text text-anchor="middle" x="769" y="-67.5" font-family="IBM Plex Sans" font-size="10.00" fill="#3a2a1a">─────────</text>
<text text-anchor="middle" x="769" y="-56.5" font-family="IBM Plex Sans" font-size="10.00" fill="#3a2a1a">Client renders,</text>
<text text-anchor="middle" x="769" y="-45.5" font-family="IBM Plex Sans" font-size="10.00" fill="#3a2a1a">server composites</text>
<text text-anchor="middle" x="769" y="-22.5" font-family="IBM Plex Sans" font-size="10.00" fill="#3a2a1a">Wayland</text>
</g>
<!-- scene&#45;&gt;buffer -->
<g id="edge3" class="edge">
<title>scene&#45;&gt;buffer</title>
<path fill="none" stroke="#8b7355" d="M638.24,-53C659.17,-53 684.21,-53 706.68,-53"/>
<polygon fill="#8b7355" stroke="#8b7355" points="706.8,-56.5 716.8,-53 706.8,-49.5 706.8,-56.5"/>
<text text-anchor="middle" x="677.5" y="-64.6" font-family="IBM Plex Sans" font-size="8.00">client owns</text>
<text text-anchor="middle" x="677.5" y="-55.6" font-family="IBM Plex Sans" font-size="8.00">rendering</text>
</g>
<!-- pixel -->
<g id="node5" class="node">
<title>pixel</title>
<path fill="#fff8e7" stroke="black" d="M981,-90.5C981,-90.5 915,-90.5 915,-90.5 909,-90.5 903,-84.5 903,-78.5 903,-78.5 903,-27.5 903,-27.5 903,-21.5 909,-15.5 915,-15.5 915,-15.5 981,-15.5 981,-15.5 987,-15.5 993,-21.5 993,-27.5 993,-27.5 993,-78.5 993,-78.5 993,-84.5 987,-90.5 981,-90.5"/>
<text text-anchor="middle" x="948" y="-78.5" font-family="IBM Plex Sans" font-size="10.00" fill="#3a2a1a">Pixel Streaming</text>
<text text-anchor="middle" x="948" y="-67.5" font-family="IBM Plex Sans" font-size="10.00" fill="#3a2a1a">─────────</text>
<text text-anchor="middle" x="948" y="-56.5" font-family="IBM Plex Sans" font-size="10.00" fill="#3a2a1a">Client renders,</text>
<text text-anchor="middle" x="948" y="-45.5" font-family="IBM Plex Sans" font-size="10.00" fill="#3a2a1a">send pixels</text>
<text text-anchor="middle" x="948" y="-22.5" font-family="IBM Plex Sans" font-size="10.00" fill="#3a2a1a">VNC · RDP</text>
</g>
<!-- buffer&#45;&gt;pixel -->
<g id="edge4" class="edge">
<title>buffer&#45;&gt;pixel</title>
<path fill="none" stroke="#8b7355" d="M821.2,-53C843.6,-53 869.9,-53 892.65,-53"/>
<polygon fill="#8b7355" stroke="#8b7355" points="892.82,-56.5 902.82,-53 892.82,-49.5 892.82,-56.5"/>
<text text-anchor="middle" x="862" y="-64.6" font-family="IBM Plex Sans" font-size="8.00">no protocol,</text>
<text text-anchor="middle" x="862" y="-55.6" font-family="IBM Plex Sans" font-size="8.00">just pixels</text>
</g>
<!-- simplicity -->
<g id="node7" class="node">
<title>simplicity</title>
<path fill="lightgrey" stroke="transparent" d="M1108,-71C1108,-71 1042,-71 1042,-71 1036,-71 1030,-65 1030,-59 1030,-59 1030,-47 1030,-47 1030,-41 1036,-35 1042,-35 1042,-35 1108,-35 1108,-35 1114,-35 1120,-41 1120,-47 1120,-47 1120,-59 1120,-59 1120,-65 1114,-71 1108,-71"/>
<text text-anchor="middle" x="1075" y="-50.8" font-family="IBM Plex Mono" font-size="9.00" fill="#6b4226">Simpler server →</text>
</g>
<!-- pixel&#45;&gt;simplicity -->
<!-- net_eff -->
<g id="node6" class="node">
<title>net_eff</title>
<path fill="lightgrey" stroke="transparent" d="M123,-71C123,-71 12,-71 12,-71 6,-71 0,-65 0,-59 0,-59 0,-47 0,-47 0,-41 6,-35 12,-35 12,-35 123,-35 123,-35 129,-35 135,-41 135,-47 135,-47 135,-59 135,-59 135,-65 129,-71 123,-71"/>
<text text-anchor="middle" x="67.5" y="-50.8" font-family="IBM Plex Mono" font-size="9.00" fill="#6b4226">← Higher network efficiency</text>
</g>
<!-- net_eff&#45;&gt;thick -->
</g>
</svg>
