<?xml version="1.0" encoding="UTF-8" standalone="no"?>
<!DOCTYPE svg PUBLIC "-//W3C//DTD SVG 1.1//EN"
 "http://www.w3.org/Graphics/SVG/1.1/DTD/svg11.dtd">
<!-- Generated by graphviz version 2.43.0 (0)
 -->
<!-- Title: timeline Pages: 1 -->
<svg width="846pt" height="326pt"
 viewBox="0.00 0.00 846.00 326.00" xmlns="http://www.w3.org/2000/svg" xmlns:xlink="http://www.w3.org/1999/xlink">
<g id="graph0" class="graph" transform="scale(1 1) rotate(0) translate(4 322)">
<title>timeline</title>
<polygon fill="white" stroke="transparent" points="-4,4 -4,-322 842,-322 842,4 -4,4"/>
<g id="clust9" class="cluster">
<title>cluster_legend</title>
</g>
<!-- era60 -->
<g id="node1" class="node">
<title>era60</title>
<path fill="lightgrey" stroke="transparent" d="M78.5,-36C78.5,-36 48.5,-36 48.5,-36 42.5,-36 36.5,-30 36.5,-24 36.5,-24 36.5,-12 36.5,-12 36.5,-6 42.5,0 48.5,0 48.5,0 78.5,0 78.5,0 84.5,0 90.5,-6 90.5,-12 90.5,-12 90.5,-24 90.5,-24 90.5,-30 84.5,-36 78.5,-36"/>
<text text-anchor="middle" x="63.5" y="-14.9" font-family="IBM Plex Mono" font-size="12.00" fill="#8b7355">1960s</text>
</g>
<!-- era68 -->
<g id="node5" class="node">
<title>era68</title>
<path fill="lightgrey" stroke="transparent" d="M215,-36C215,-36 185,-36 185,-36 179,-36 173,-30 173,-24 173,-24 173,-12 173,-12 173,-6 179,0 185,0 185,0 215,0 215,0 221,0 227,-6 227,-12 227,-12 227,-24 227,-24 227,-30 221,-36 215,-36"/>
<text text-anchor="middle" x="200" y="-14.9" font-family="IBM Plex Mono" font-size="12.00" fill="#8b7355">1968</text>
</g>
<!-- era60&#45;&gt;era68 -->
<!-- plato -->
<g id="node2" class="node">
<title>plato</title>
<g id="a_node2"><a xlink:title="Programmable display terminals, TUTOR language, plasma panels">
<path fill="#d4a574" stroke="#8b7355" d="M78.5,-90C78.5,-90 48.5,-90 48.5,-90 42.5,-90 36.5,-84 36.5,-78 36.5,-78 36.5,-66 36.5,-66 36.5,-60 42.5,-54 48.5,-54 48.5,-54 78.5,-54 78.5,-54 84.5,-54 90.5,-60 90.5,-66 90.5,-66 90.5,-78 90.5,-78 90.5,-84 84.5,-90 78.5,-90"/>
<text text-anchor="middle" x="63.5" y="-75" font-family="IBM Plex Sans" font-size="10.00">PLATO</text>
<text text-anchor="middle" x="63.5" y="-64" font-family="IBM Plex Sans" font-size="10.00">1960</text>
</a>
</g>
</g>
<!-- mac -->
<g id="node3" class="node">
<title>mac</title>
<g id="a_node3"><a xlink:title="Time&#45;sharing, ARDS terminal, Multics Graphics System">
<path fill="#e8d5b7" stroke="#8b7355" d="M88.5,-149.5C88.5,-149.5 38.5,-149.5 38.5,-149.5 32.5,-149.5 26.5,-143.5 26.5,-137.5 26.5,-137.5 26.5,-120.5 26.5,-120.5 26.5,-114.5 32.5,-108.5 38.5,-108.5 38.5,-108.5 88.5,-108.5 88.5,-108.5 94.5,-108.5 100.5,-114.5 100.5,-120.5 100.5,-120.5 100.5,-137.5 100.5,-137.5 100.5,-143.5 94.5,-149.5 88.5,-149.5"/>
<text text-anchor="middle" x="63.5" y="-137.5" font-family="IBM Plex Sans" font-size="10.00">MIT</text>
<text text-anchor="middle" x="63.5" y="-126.5" font-family="IBM Plex Sans" font-size="10.00">Project MAC</text>
<text text-anchor="middle" x="63.5" y="-115.5" font-family="IBM Plex Sans" font-size="10.00">1963</text>
</a>
</g>
</g>
<!-- tek4002 -->
<g id="node4" class="node">
<title>tek4002</title>
<g id="a_node4"><a xlink:title="First Tektronix storage tube graphics terminal">
<path fill="#d4a574" stroke="#8b7355" d="M82,-208.5C82,-208.5 45,-208.5 45,-208.5 39,-208.5 33,-202.5 33,-196.5 33,-196.5 33,-179.5 33,-179.5 33,-173.5 39,-167.5 45,-167.5 45,-167.5 82,-167.5 82,-167.5 88,-167.5 94,-173.5 94,-179.5 94,-179.5 94,-196.5 94,-196.5 94,-202.5 88,-208.5 82,-208.5"/>
<text text-anchor="middle" x="63.5" y="-196.5" font-family="IBM Plex Sans" font-size="10.00">Tektronix</text>
<text text-anchor="middle" x="63.5" y="-185.5" font-family="IBM Plex Sans" font-size="10.00">4002</text>
<text text-anchor="middle" x="63.5" y="-174.5" font-family="IBM Plex Sans" font-size="10.00">1967</text>
</a>
</g>
</g>
<!-- era70s -->
<g id="node8" class="node">
<title>era70s</title>
<path fill="lightgrey" stroke="transparent" d="M334.5,-36C334.5,-36 304.5,-36 304.5,-36 298.5,-36 292.5,-30 292.5,-24 292.5,-24 292.5,-12 292.5,-12 292.5,-6 298.5,0 304.5,0 304.5,0 334.5,0 334.5,0 340.5,0 346.5,-6 346.5,-12 346.5,-12 346.5,-24 346.5,-24 346.5,-30 340.5,-36 334.5,-36"/>
<text text-anchor="middle" x="319.5" y="-14.9" font-family="IBM Plex Mono" font-size="12.00" fill="#8b7355">1970s</text>
</g>
<!-- era68&#45;&gt;era70s -->
<!-- ards -->
<g id="node6" class="node">
<title>ards</title>
<g id="a_node6"><a xlink:title="Storage tube remote graphics terminal, first mouse">
<path fill="#d4a574" stroke="#8b7355" d="M220,-119C220,-119 180,-119 180,-119 174,-119 168,-113 168,-107 168,-107 168,-95 168,-95 168,-89 174,-83 180,-83 180,-83 220,-83 220,-83 226,-83 232,-89 232,-95 232,-95 232,-107 232,-107 232,-113 226,-119 220,-119"/>
<text text-anchor="middle" x="200" y="-104" font-family="IBM Plex Sans" font-size="10.00">MIT ARDS</text>
<text text-anchor="middle" x="200" y="-93" font-family="IBM Plex Sans" font-size="10.00">1968</text>
</a>
</g>
</g>
<!-- demo -->
<g id="node7" class="node">
<title>demo</title>
<g id="a_node7"><a xlink:title="Engelbart: mouse, hypertext, video conferencing">
<path fill="#fff8e7" stroke="#8b7355" d="M221,-193.5C221,-193.5 179,-193.5 179,-193.5 173,-193.5 167,-187.5 167,-181.5 167,-181.5 167,-164.5 167,-164.5 167,-158.5 173,-152.5 179,-152.5 179,-152.5 221,-152.5 221,-152.5 227,-152.5 233,-158.5 233,-164.5 233,-164.5 233,-181.5 233,-181.5 233,-187.5 227,-193.5 221,-193.5"/>
<text text-anchor="middle" x="200" y="-181.5" font-family="IBM Plex Sans" font-size="10.00">Mother of</text>
<text text-anchor="middle" x="200" y="-170.5" font-family="IBM Plex Sans" font-size="10.00">All Demos</text>
<text text-anchor="middle" x="200" y="-159.5" font-family="IBM Plex Sans" font-size="10.00">1968</text>
</a>
</g>
</g>
<!-- era80a -->
<g id="node11" class="node">
<title>era80a</title>
<path fill="lightgrey" stroke="transparent" d="M439,-36C439,-36 398,-36 398,-36 392,-36 386,-30 386,-24 386,-24 386,-12 386,-12 386,-6 392,0 398,0 398,0 439,0 439,0 445,0 451,-6 451,-12 451,-12 451,-24 451,-24 451,-30 445,-36 439,-36"/>
<text text-anchor="middle" x="418.5" y="-14.9" font-family="IBM Plex Mono" font-size="12.00" fill="#8b7355">1982–84</text>
</g>
<!-- era70s&#45;&gt;era80a -->
<!-- tek4014 -->
<g id="node9" class="node">
<title>tek4014</title>
<g id="a_node9"><a xlink:title="Vector storage tube terminal, ARPANET graphics">
<path fill="#d4a574" stroke="#8b7355" d="M338,-122.5C338,-122.5 301,-122.5 301,-122.5 295,-122.5 289,-116.5 289,-110.5 289,-110.5 289,-93.5 289,-93.5 289,-87.5 295,-81.5 301,-81.5 301,-81.5 338,-81.5 338,-81.5 344,-81.5 350,-87.5 350,-93.5 350,-93.5 350,-110.5 350,-110.5 350,-116.5 344,-122.5 338,-122.5"/>
<text text-anchor="middle" x="319.5" y="-110.5" font-family="IBM Plex Sans" font-size="10.00">Tektronix</text>
<text text-anchor="middle" x="319.5" y="-99.5" font-family="IBM Plex Sans" font-size="10.00">4014</text>
<text text-anchor="middle" x="319.5" y="-88.5" font-family="IBM Plex Sans" font-size="10.00">1972</text>
</a>
</g>
</g>
<!-- alto -->
<g id="node10" class="node">
<title>alto</title>
<g id="a_node10"><a xlink:title="First GUI workstation, bitmap display">
<path fill="#fff8e7" stroke="#8b7355" d="M334.5,-194.5C334.5,-194.5 304.5,-194.5 304.5,-194.5 298.5,-194.5 292.5,-188.5 292.5,-182.5 292.5,-182.5 292.5,-165.5 292.5,-165.5 292.5,-159.5 298.5,-153.5 304.5,-153.5 304.5,-153.5 334.5,-153.5 334.5,-153.5 340.5,-153.5 346.5,-159.5 346.5,-165.5 346.5,-165.5 346.5,-182.5 346.5,-182.5 346.5,-188.5 340.5,-194.5 334.5,-194.5"/>
<text text-anchor="middle" x="319.5" y="-182.5" font-family="IBM Plex Sans" font-size="10.00">Xerox</text>
<text text-anchor="middle" x="319.5" y="-171.5" font-family="IBM Plex Sans" font-size="10.00">Alto</text>
<text text-anchor="middle" x="319.5" y="-160.5" font-family="IBM Plex Sans" font-size="10.00">1973</text>
</a>
</g>
</g>
<!-- era80b -->
<g id="node17" class="node">
<title>era80b</title>
<path fill="lightgrey" stroke="transparent" d="M540,-36C540,-36 499,-36 499,-36 493,-36 487,-30 487,-24 487,-24 487,-12 487,-12 487,-6 493,0 499,0 499,0 540,0 540,0 546,0 552,-6 552,-12 552,-12 552,-24 552,-24 552,-30 546,-36 540,-36"/>
<text text-anchor="middle" x="519.5" y="-14.9" font-family="IBM Plex Mono" font-size="12.00" fill="#8b7355">1985–88</text>
</g>
<!-- era80a&#45;&gt;era80b -->
<!-- blit -->
<g id="node12" class="node">
<title>blit</title>
<g id="a_node12"><a xlink:title="Programmable bitmap terminal, 68000 CPU">
<path fill="#d4a574" stroke="#8b7355" d="M435.5,-95.5C435.5,-95.5 401.5,-95.5 401.5,-95.5 395.5,-95.5 389.5,-89.5 389.5,-83.5 389.5,-83.5 389.5,-66.5 389.5,-66.5 389.5,-60.5 395.5,-54.5 401.5,-54.5 401.5,-54.5 435.5,-54.5 435.5,-54.5 441.5,-54.5 447.5,-60.5 447.5,-66.5 447.5,-66.5 447.5,-83.5 447.5,-83.5 447.5,-89.5 441.5,-95.5 435.5,-95.5"/>
<text text-anchor="middle" x="418.5" y="-83.5" font-family="IBM Plex Sans" font-size="10.00">Blit</text>
<text text-anchor="middle" x="418.5" y="-72.5" font-family="IBM Plex Sans" font-size="10.00">Terminal</text>
<text text-anchor="middle" x="418.5" y="-61.5" font-family="IBM Plex Sans" font-size="10.00">1982</text>
</a>
</g>
</g>
<!-- sun1 -->
<g id="node13" class="node">
<title>sun1</title>
<g id="a_node13"><a xlink:title="Unix workstation, networked from birth">
<path fill="#fff8e7" stroke="#8b7355" d="M433.5,-150C433.5,-150 403.5,-150 403.5,-150 397.5,-150 391.5,-144 391.5,-138 391.5,-138 391.5,-126 391.5,-126 391.5,-120 397.5,-114 403.5,-114 403.5,-114 433.5,-114 433.5,-114 439.5,-114 445.5,-120 445.5,-126 445.5,-126 445.5,-138 445.5,-138 445.5,-144 439.5,-150 433.5,-150"/>
<text text-anchor="middle" x="418.5" y="-135" font-family="IBM Plex Sans" font-size="10.00">Sun&#45;1</text>
<text text-anchor="middle" x="418.5" y="-124" font-family="IBM Plex Sans" font-size="10.00">1982</text>
</a>
</g>
</g>
<!-- lisa -->
<g id="node14" class="node">
<title>lisa</title>
<g id="a_node14"><a xlink:title="First commercial GUI computer">
<path fill="#fff8e7" stroke="#8b7355" d="M433.5,-209.5C433.5,-209.5 403.5,-209.5 403.5,-209.5 397.5,-209.5 391.5,-203.5 391.5,-197.5 391.5,-197.5 391.5,-180.5 391.5,-180.5 391.5,-174.5 397.5,-168.5 403.5,-168.5 403.5,-168.5 433.5,-168.5 433.5,-168.5 439.5,-168.5 445.5,-174.5 445.5,-180.5 445.5,-180.5 445.5,-197.5 445.5,-197.5 445.5,-203.5 439.5,-209.5 433.5,-209.5"/>
<text text-anchor="middle" x="418.5" y="-197.5" font-family="IBM Plex Sans" font-size="10.00">Apple</text>
<text text-anchor="middle" x="418.5" y="-186.5" font-family="IBM Plex Sans" font-size="10.00">Lisa</text>
<text text-anchor="middle" x="418.5" y="-175.5" font-family="IBM Plex Sans" font-size="10.00">1983</text>
</a>
</g>
</g>
<!-- mgr -->
<g id="node15" class="node">
<title>mgr</title>
<g id="a_node15"><a xlink:title="Escape&#45;sequence window system">
<path fill="#d4a574" stroke="#8b7355" d="M433.5,-264C433.5,-264 403.5,-264 403.5,-264 397.5,-264 391.5,-258 391.5,-252 391.5,-252 391.5,-240 391.5,-240 391.5,-234 397.5,-228 403.5,-228 403.5,-228 433.5,-228 433.5,-228 439.5,-228 445.5,-234 445.5,-240 445.5,-240 445.5,-252 445.5,-252 445.5,-258 439.5,-264 433.5,-264"/>
<text text-anchor="middle" x="418.5" y="-249" font-family="IBM Plex Sans" font-size="10.00">MGR</text>
<text text-anchor="middle" x="418.5" y="-238" font-family="IBM Plex Sans" font-size="10.00">1984</text>
</a>
</g>
</g>
<!-- ps -->
<g id="node16" class="node">
<title>ps</title>
<g id="a_node16"><a xlink:title="Page description language">
<path fill="#e8d5b7" stroke="#8b7355" d="M439,-318C439,-318 398,-318 398,-318 392,-318 386,-312 386,-306 386,-306 386,-294 386,-294 386,-288 392,-282 398,-282 398,-282 439,-282 439,-282 445,-282 451,-288 451,-294 451,-294 451,-306 451,-306 451,-312 445,-318 439,-318"/>
<text text-anchor="middle" x="418.5" y="-303" font-family="IBM Plex Sans" font-size="10.00">PostScript</text>
<text text-anchor="middle" x="418.5" y="-292" font-family="IBM Plex Sans" font-size="10.00">1984</text>
</a>
</g>
</g>
<!-- era90s -->
<g id="node23" class="node">
<title>era90s</title>
<path fill="lightgrey" stroke="transparent" d="M630,-36C630,-36 600,-36 600,-36 594,-36 588,-30 588,-24 588,-24 588,-12 588,-12 588,-6 594,0 600,0 600,0 630,0 630,0 636,0 642,-6 642,-12 642,-12 642,-24 642,-24 642,-30 636,-36 630,-36"/>
<text text-anchor="middle" x="615" y="-14.9" font-family="IBM Plex Mono" font-size="12.00" fill="#8b7355">1990s</text>
</g>
<!-- era80b&#45;&gt;era90s -->
<!-- win1 -->
<g id="node18" class="node">
<title>win1</title>
<g id="a_node18"><a xlink:title="Microsoft&#39;s first GUI">
<path fill="#fff8e7" stroke="#8b7355" d="M537.5,-95.5C537.5,-95.5 501.5,-95.5 501.5,-95.5 495.5,-95.5 489.5,-89.5 489.5,-83.5 489.5,-83.5 489.5,-66.5 489.5,-66.5 489.5,-60.5 495.5,-54.5 501.5,-54.5 501.5,-54.5 537.5,-54.5 537.5,-54.5 543.5,-54.5 549.5,-60.5 549.5,-66.5 549.5,-66.5 549.5,-83.5 549.5,-83.5 549.5,-89.5 543.5,-95.5 537.5,-95.5"/>
<text text-anchor="middle" x="519.5" y="-83.5" font-family="IBM Plex Sans" font-size="10.00">Windows</text>
<text text-anchor="middle" x="519.5" y="-72.5" font-family="IBM Plex Sans" font-size="10.00">1.0</text>
<text text-anchor="middle" x="519.5" y="-61.5" font-family="IBM Plex Sans" font-size="10.00">1985</text>
</a>
</g>
</g>
<!-- news -->
<g id="node19" class="node">
<title>news</title>
<g id="a_node19"><a xlink:title="PostScript window system">
<path fill="#d4a574" stroke="#8b7355" d="M534.5,-150C534.5,-150 504.5,-150 504.5,-150 498.5,-150 492.5,-144 492.5,-138 492.5,-138 492.5,-126 492.5,-126 492.5,-120 498.5,-114 504.5,-114 504.5,-114 534.5,-114 534.5,-114 540.5,-114 546.5,-120 546.5,-126 546.5,-126 546.5,-138 546.5,-138 546.5,-144 540.5,-150 534.5,-150"/>
<text text-anchor="middle" x="519.5" y="-135" font-family="IBM Plex Sans" font-size="10.00">NeWS</text>
<text text-anchor="middle" x="519.5" y="-124" font-family="IBM Plex Sans" font-size="10.00">1986</text>
</a>
</g>
</g>
<!-- x11 -->
<g id="node20" class="node">
<title>x11</title>
<g id="a_node20"><a xlink:title="MIT X Window System">
<path fill="#d4a574" stroke="#8b7355" d="M534.5,-204C534.5,-204 504.5,-204 504.5,-204 498.5,-204 492.5,-198 492.5,-192 492.5,-192 492.5,-180 492.5,-180 492.5,-174 498.5,-168 504.5,-168 504.5,-168 534.5,-168 534.5,-168 540.5,-168 546.5,-174 546.5,-180 546.5,-180 546.5,-192 546.5,-192 546.5,-198 540.5,-204 534.5,-204"/>
<text text-anchor="middle" x="519.5" y="-189" font-family="IBM Plex Sans" font-size="10.00">X11</text>
<text text-anchor="middle" x="519.5" y="-178" font-family="IBM Plex Sans" font-size="10.00">1987</text>
</a>
</g>
</g>
<!-- dps -->
<g id="node21" class="node">
<title>dps</title>
<g id="a_node21"><a xlink:title="Adobe rendering protocol">
<path fill="#d4a574" stroke="#8b7355" d="M540,-263.5C540,-263.5 499,-263.5 499,-263.5 493,-263.5 487,-257.5 487,-251.5 487,-251.5 487,-234.5 487,-234.5 487,-228.5 493,-222.5 499,-222.5 499,-222.5 540,-222.5 540,-222.5 546,-222.5 552,-228.5 552,-234.5 552,-234.5 552,-251.5 552,-251.5 552,-257.5 546,-263.5 540,-263.5"/>
<text text-anchor="middle" x="519.5" y="-251.5" font-family="IBM Plex Sans" font-size="10.00">Display</text>
<text text-anchor="middle" x="519.5" y="-240.5" font-family="IBM Plex Sans" font-size="10.00">PostScript</text>
<text text-anchor="middle" x="519.5" y="-229.5" font-family="IBM Plex Sans" font-size="10.00">1988</text>
</a>
</g>
</g>
<!-- nextstep -->
<g id="node22" class="node">
<title>nextstep</title>
<g id="a_node22"><a xlink:title="DPS&#45;based desktop">
<path fill="#e8d5b7" stroke="#8b7355" d="M540,-318C540,-318 499,-318 499,-318 493,-318 487,-312 487,-306 487,-306 487,-294 487,-294 487,-288 493,-282 499,-282 499,-282 540,-282 540,-282 546,-282 552,-288 552,-294 552,-294 552,-306 552,-306 552,-312 546,-318 540,-318"/>
<text text-anchor="middle" x="519.5" y="-303" font-family="IBM Plex Sans" font-size="10.00">NeXTSTEP</text>
<text text-anchor="middle" x="519.5" y="-292" font-family="IBM Plex Sans" font-size="10.00">1988</text>
</a>
</g>
</g>
<!-- era00s -->
<g id="node26" class="node">
<title>era00s</title>
<path fill="lightgrey" stroke="transparent" d="M726,-36C726,-36 696,-36 696,-36 690,-36 684,-30 684,-24 684,-24 684,-12 684,-12 684,-6 690,0 696,0 696,0 726,0 726,0 732,0 738,-6 738,-12 738,-12 738,-24 738,-24 738,-30 732,-36 726,-36"/>
<text text-anchor="middle" x="711" y="-14.9" font-family="IBM Plex Mono" font-size="12.00" fill="#8b7355">2000s</text>
</g>
<!-- era90s&#45;&gt;era00s -->
<!-- plan9 -->
<g id="node24" class="node">
<title>plan9</title>
<g id="a_node24"><a xlink:title="Draw device, file system interface">
<path fill="#d4a574" stroke="#8b7355" d="M630,-95.5C630,-95.5 600,-95.5 600,-95.5 594,-95.5 588,-89.5 588,-83.5 588,-83.5 588,-66.5 588,-66.5 588,-60.5 594,-54.5 600,-54.5 600,-54.5 630,-54.5 630,-54.5 636,-54.5 642,-60.5 642,-66.5 642,-66.5 642,-83.5 642,-83.5 642,-89.5 636,-95.5 630,-95.5"/>
<text text-anchor="middle" x="615" y="-83.5" font-family="IBM Plex Sans" font-size="10.00">Plan 9</text>
<text text-anchor="middle" x="615" y="-72.5" font-family="IBM Plex Sans" font-size="10.00">8½/rio</text>
<text text-anchor="middle" x="615" y="-61.5" font-family="IBM Plex Sans" font-size="10.00">1991</text>
</a>
</g>
</g>
<!-- pdf -->
<g id="node25" class="node">
<title>pdf</title>
<g id="a_node25"><a xlink:title="Declarative PostScript subset">
<path fill="#e8d5b7" stroke="#8b7355" d="M630,-150C630,-150 600,-150 600,-150 594,-150 588,-144 588,-138 588,-138 588,-126 588,-126 588,-120 594,-114 600,-114 600,-114 630,-114 630,-114 636,-114 642,-120 642,-126 642,-126 642,-138 642,-138 642,-144 636,-150 630,-150"/>
<text text-anchor="middle" x="615" y="-135" font-family="IBM Plex Sans" font-size="10.00">PDF</text>
<text text-anchor="middle" x="615" y="-124" font-family="IBM Plex Sans" font-size="10.00">1993</text>
</a>
</g>
</g>
<!-- era10s -->
<g id="node30" class="node">
<title>era10s</title>
<path fill="lightgrey" stroke="transparent" d="M826,-36C826,-36 792,-36 792,-36 786,-36 780,-30 780,-24 780,-24 780,-12 780,-12 780,-6 786,0 792,0 792,0 826,0 826,0 832,0 838,-6 838,-12 838,-12 838,-24 838,-24 838,-30 832,-36 826,-36"/>
<text text-anchor="middle" x="809" y="-14.9" font-family="IBM Plex Mono" font-size="12.00" fill="#8b7355">2010s+</text>
</g>
<!-- era00s&#45;&gt;era10s -->
<!-- quartz -->
<g id="node27" class="node">
<title>quartz</title>
<g id="a_node27"><a xlink:title="macOS PDF&#45;based rendering">
<path fill="#e8d5b7" stroke="#8b7355" d="M732,-90C732,-90 690,-90 690,-90 684,-90 678,-84 678,-78 678,-78 678,-66 678,-66 678,-60 684,-54 690,-54 690,-54 732,-54 732,-54 738,-54 744,-60 744,-66 744,-66 744,-78 744,-78 744,-84 738,-90 732,-90"/>
<text text-anchor="middle" x="711" y="-75" font-family="IBM Plex Sans" font-size="10.00">Quartz 2D</text>
<text text-anchor="middle" x="711" y="-64" font-family="IBM Plex Sans" font-size="10.00">2001</text>
</a>
</g>
</g>
<!-- svg -->
<g id="node28" class="node">
<title>svg</title>
<g id="a_node28"><a xlink:title="W3C vector graphics">
<path fill="#e8d5b7" stroke="#8b7355" d="M726.5,-144C726.5,-144 695.5,-144 695.5,-144 689.5,-144 683.5,-138 683.5,-132 683.5,-132 683.5,-120 683.5,-120 683.5,-114 689.5,-108 695.5,-108 695.5,-108 726.5,-108 726.5,-108 732.5,-108 738.5,-114 738.5,-120 738.5,-120 738.5,-132 738.5,-132 738.5,-138 732.5,-144 726.5,-144"/>
<text text-anchor="middle" x="711" y="-129" font-family="IBM Plex Sans" font-size="10.00">SVG 1.0</text>
<text text-anchor="middle" x="711" y="-118" font-family="IBM Plex Sans" font-size="10.00">2001</text>
</a>
</g>
</g>
<!-- wayland -->
<g id="node29" class="node">
<title>wayland</title>
<g id="a_node29"><a xlink:title="Buffer&#45;passing compositor">
<path fill="#d4a574" stroke="#8b7355" d="M728,-198C728,-198 694,-198 694,-198 688,-198 682,-192 682,-186 682,-186 682,-174 682,-174 682,-168 688,-162 694,-162 694,-162 728,-162 728,-162 734,-162 740,-168 740,-174 740,-174 740,-186 740,-186 740,-192 734,-198 728,-198"/>
<text text-anchor="middle" x="711" y="-183" font-family="IBM Plex Sans" font-size="10.00">Wayland</text>
<text text-anchor="middle" x="711" y="-172" font-family="IBM Plex Sans" font-size="10.00">2008</text>
</a>
</g>
</g>
<!-- arcan -->
<g id="node31" class="node">
<title>arcan</title>
<g id="a_node31"><a xlink:title="Lua&#45;scriptable display server">
<path fill="#d4a574" stroke="#8b7355" d="M824,-90C824,-90 794,-90 794,-90 788,-90 782,-84 782,-78 782,-78 782,-66 782,-66 782,-60 788,-54 794,-54 794,-54 824,-54 824,-54 830,-54 836,-60 836,-66 836,-66 836,-78 836,-78 836,-84 830,-90 824,-90"/>
<text text-anchor="middle" x="809" y="-75" font-family="IBM Plex Sans" font-size="10.00">Arcan</text>
<text text-anchor="middle" x="809" y="-64" font-family="IBM Plex Sans" font-size="10.00">2012+</text>
</a>
</g>
</g>
<!-- scenic -->
<g id="node32" class="node">
<title>scenic</title>
<g id="a_node32"><a xlink:title="Scene graph compositor">
<path fill="#d4a574" stroke="#8b7355" d="M824,-149.5C824,-149.5 794,-149.5 794,-149.5 788,-149.5 782,-143.5 782,-137.5 782,-137.5 782,-120.5 782,-120.5 782,-114.5 788,-108.5 794,-108.5 794,-108.5 824,-108.5 824,-108.5 830,-108.5 836,-114.5 836,-120.5 836,-120.5 836,-137.5 836,-137.5 836,-143.5 830,-149.5 824,-149.5"/>
<text text-anchor="middle" x="809" y="-137.5" font-family="IBM Plex Sans" font-size="10.00">Fuchsia</text>
<text text-anchor="middle" x="809" y="-126.5" font-family="IBM Plex Sans" font-size="10.00">Scenic</text>
<text text-anchor="middle" x="809" y="-115.5" font-family="IBM Plex Sans" font-size="10.00">2016+</text>
</a>
</g>
</g>
<!-- leg_proto -->
<g id="node33" class="node">
<title>leg_proto</title>
<path fill="#d4a574" stroke="#8b7355" d="M99,-263C99,-263 28,-263 28,-263 22,-263 16,-257 16,-251 16,-251 16,-239 16,-239 16,-233 22,-227 28,-227 28,-227 99,-227 99,-227 105,-227 111,-233 111,-239 111,-239 111,-251 111,-251 111,-257 105,-263 99,-263"/>
<text text-anchor="middle" x="63.5" y="-247.8" font-family="IBM Plex Sans" font-size="9.00">Display protocol /</text>
<text text-anchor="middle" x="63.5" y="-237.8" font-family="IBM Plex Sans" font-size="9.00">networked system</text>
</g>
<!-- leg_tech -->
<g id="node34" class="node">
<title>leg_tech</title>
<path fill="#e8d5b7" stroke="#8b7355" d="M241,-263C241,-263 159,-263 159,-263 153,-263 147,-257 147,-251 147,-251 147,-239 147,-239 147,-233 153,-227 159,-227 159,-227 241,-227 241,-227 247,-227 253,-233 253,-239 253,-239 253,-251 253,-251 253,-257 247,-263 241,-263"/>
<text text-anchor="middle" x="200" y="-247.8" font-family="IBM Plex Sans" font-size="9.00">Imaging technology /</text>
<text text-anchor="middle" x="200" y="-237.8" font-family="IBM Plex Sans" font-size="9.00">standard</text>
</g>
<!-- leg_proto&#45;&gt;leg_tech -->
<!-- leg_gui -->
<g id="node35" class="node">
<title>leg_gui</title>
<path fill="#fff8e7" stroke="#8b7355" d="M337.5,-263C337.5,-263 301.5,-263 301.5,-263 295.5,-263 289.5,-257 289.5,-251 289.5,-251 289.5,-239 289.5,-239 289.5,-233 295.5,-227 301.5,-227 301.5,-227 337.5,-227 337.5,-227 343.5,-227 349.5,-233 349.5,-239 349.5,-239 349.5,-251 349.5,-251 349.5,-257 343.5,-263 337.5,-263"/>
<text text-anchor="middle" x="319.5" y="-247.8" font-family="IBM Plex Sans" font-size="9.00">Local GUI</text>
<text text-anchor="middle" x="319.5" y="-237.8" font-family="IBM Plex Sans" font-size="9.00">milestone</text>
</g>
<!-- leg_tech&#45;&gt;leg_gui -->
</g>
</svg>
