<?xml version="1.0" encoding="UTF-8" standalone="no"?>
<!DOCTYPE svg PUBLIC "-//W3C//DTD SVG 1.1//EN"
 "http://www.w3.org/Graphics/SVG/1.1/DTD/svg11.dtd">
<!-- Generated by graphviz version 2.43.0 (0)
 -->
<!-- Title: layers Pages: 1 -->
<svg width="350pt" height="502pt"
 viewBox="0.00 0.00 350.00 502.00" xmlns="http://www.w3.org/2000/svg" xmlns:xlink="http://www.w3.org/1999/xlink">
<g id="graph0" class="graph" transform="scale(1 1) rotate(0) translate(4 498)">
<title>layers</title>
<!-- app -->
<g id="node1" class="node">
<title>app</title>
<path fill="#f4ecdd" stroke="#2c2420" stroke-width="1.2" d="M168.5,-494C168.5,-494 87.5,-494 87.5,-494 81.5,-494 75.5,-488 75.5,-482 75.5,-482 75.5,-470 75.5,-470 75.5,-464 81.5,-458 87.5,-458 87.5,-458 168.5,-458 168.5,-458 174.5,-458 180.5,-464 180.5,-470 180.5,-470 180.5,-482 180.5,-482 180.5,-488 174.5,-494 168.5,-494"/>
<text text-anchor="middle" x="128" y="-479.2" font-family="Helvetica,sans-Serif" font-size="11.00">application</text>
<text text-anchor="middle" x="128" y="-467.2" font-family="Helvetica,sans-Serif" font-size="11.00">(echo, game, IPC)</text>
</g>
<!-- auth -->
<g id="node2" class="node">
<title>auth</title>
<path fill="#e5d5e8" stroke="#2c2420" stroke-width="1.2" d="M238.5,-412C238.5,-412 17.5,-412 17.5,-412 11.5,-412 5.5,-406 5.5,-400 5.5,-400 5.5,-368 5.5,-368 5.5,-362 11.5,-356 17.5,-356 17.5,-356 238.5,-356 238.5,-356 244.5,-356 250.5,-362 250.5,-368 250.5,-368 250.5,-400 250.5,-400 250.5,-406 244.5,-412 238.5,-412"/>
<text text-anchor="middle" x="128" y="-399.2" font-family="Helvetica,sans-Serif" font-size="11.00">nc_auth</text>
<text text-anchor="middle" x="128" y="-387.2" font-family="Helvetica,sans-Serif" font-size="11.00">who the client is</text>
<text text-anchor="middle" x="128" y="-375.2" font-family="Helvetica,sans-Serif" font-size="11.00">HELLO / METHODS / PUBKEY / PASSWORD</text>
<text text-anchor="middle" x="128" y="-363.2" font-family="Helvetica,sans-Serif" font-size="11.00">signature bound to the session id</text>
</g>
<!-- app&#45;&gt;auth -->
<g id="edge1" class="edge">
<title>app&#45;&gt;auth</title>
<path fill="none" stroke="#6b5d4f" d="M128,-457.65C128,-447.59 128,-434.53 128,-422.26"/>
<polygon fill="#6b5d4f" stroke="#6b5d4f" points="131.5,-422.22 128,-412.22 124.5,-422.22 131.5,-422.22"/>
<text text-anchor="middle" x="164" y="-432.8" font-family="Helvetica,sans-Serif" font-size="9.00">waits for the login</text>
</g>
<!-- core -->
<g id="node3" class="node">
<title>core</title>
<path fill="#e8dcc4" stroke="#2c2420" stroke-width="1.2" d="M215,-310C215,-310 41,-310 41,-310 35,-310 29,-304 29,-298 29,-298 29,-278 29,-278 29,-272 35,-266 41,-266 41,-266 215,-266 215,-266 221,-266 227,-272 227,-278 227,-278 227,-298 227,-298 227,-304 221,-310 215,-310"/>
<text text-anchor="middle" x="128" y="-297.2" font-family="Helvetica,sans-Serif" font-size="11.00">netchan core</text>
<text text-anchor="middle" x="128" y="-285.2" font-family="Helvetica,sans-Serif" font-size="11.00">reliable channels, reorder, flow control</text>
<text text-anchor="middle" x="128" y="-273.2" font-family="Helvetica,sans-Serif" font-size="11.00">(no socket, no crypto, no login)</text>
</g>
<!-- auth&#45;&gt;core -->
<g id="edge2" class="edge">
<title>auth&#45;&gt;core</title>
<path fill="none" stroke="#6b5d4f" d="M128,-355.81C128,-344.69 128,-331.75 128,-320.24"/>
<polygon fill="#6b5d4f" stroke="#6b5d4f" points="131.5,-320.16 128,-310.16 124.5,-320.16 131.5,-320.16"/>
<text text-anchor="middle" x="209" y="-330.8" font-family="Helvetica,sans-Serif" font-size="9.00">tagged messages on a reliable channel</text>
</g>
<!-- crypto -->
<g id="node4" class="node">
<title>crypto</title>
<path fill="#cfe6d8" stroke="#2c2420" stroke-width="1.2" d="M244,-220C244,-220 12,-220 12,-220 6,-220 0,-214 0,-208 0,-208 0,-176 0,-176 0,-170 6,-164 12,-164 12,-164 244,-164 244,-164 250,-164 256,-170 256,-176 256,-176 256,-208 256,-208 256,-214 250,-220 244,-220"/>
<text text-anchor="middle" x="128" y="-207.2" font-family="Helvetica,sans-Serif" font-size="11.00">nc_crypto decorator</text>
<text text-anchor="middle" x="128" y="-195.2" font-family="Helvetica,sans-Serif" font-size="11.00">seal() after send_next &#160;· &#160;open() before feed</text>
<text text-anchor="middle" x="128" y="-183.2" font-family="Helvetica,sans-Serif" font-size="11.00">X25519 ee + es &#160;· &#160;XChaCha20&#45;Poly1305</text>
<text text-anchor="middle" x="128" y="-171.2" font-family="Helvetica,sans-Serif" font-size="11.00">verify_peer() decides whether to trust the host key</text>
</g>
<!-- core&#45;&gt;crypto -->
<g id="edge3" class="edge">
<title>core&#45;&gt;crypto</title>
<path fill="none" stroke="#6b5d4f" d="M128,-265.67C128,-255.28 128,-242.48 128,-230.52"/>
<polygon fill="#6b5d4f" stroke="#6b5d4f" points="131.5,-230.32 128,-220.32 124.5,-230.32 131.5,-230.32"/>
<text text-anchor="middle" x="166" y="-240.8" font-family="Helvetica,sans-Serif" font-size="9.00">plaintext datagram</text>
</g>
<!-- crypto&#45;&gt;auth -->
<g id="edge6" class="edge">
<title>crypto&#45;&gt;auth</title>
<path fill="none" stroke="#a05c3c" stroke-dasharray="5,2" d="M198.44,-220.06C257.55,-246.87 327.02,-290.69 291,-338 285.86,-344.75 274.72,-350.75 260.56,-355.99"/>
<polygon fill="#a05c3c" stroke="#a05c3c" points="259.17,-352.77 250.85,-359.33 261.44,-359.39 259.17,-352.77"/>
<text text-anchor="middle" x="321" y="-285.8" font-family="Helvetica,sans-Serif" font-size="9.00" fill="#a05c3c">session id</text>
</g>
<!-- udp -->
<g id="node5" class="node">
<title>udp</title>
<path fill="#e8dcc4" stroke="#2c2420" stroke-width="1.2" d="M177,-118C177,-118 79,-118 79,-118 73,-118 67,-112 67,-106 67,-106 67,-94 67,-94 67,-88 73,-82 79,-82 79,-82 177,-82 177,-82 183,-82 189,-88 189,-94 189,-94 189,-106 189,-106 189,-112 183,-118 177,-118"/>
<text text-anchor="middle" x="128" y="-103.2" font-family="Helvetica,sans-Serif" font-size="11.00">nc_udp backend</text>
<text text-anchor="middle" x="128" y="-91.2" font-family="Helvetica,sans-Serif" font-size="11.00">nc_addr &lt;&#45;&gt; sockaddr</text>
</g>
<!-- crypto&#45;&gt;udp -->
<g id="edge4" class="edge">
<title>crypto&#45;&gt;udp</title>
<path fill="none" stroke="#6b5d4f" d="M128,-164C128,-152.7 128,-139.58 128,-128.26"/>
<polygon fill="#6b5d4f" stroke="#6b5d4f" points="131.5,-128.06 128,-118.06 124.5,-128.06 131.5,-128.06"/>
<text text-anchor="middle" x="163" y="-138.8" font-family="Helvetica,sans-Serif" font-size="9.00">sealed datagram</text>
</g>
<!-- sock -->
<g id="node6" class="node">
<title>sock</title>
<ellipse fill="#dfe7f0" stroke="#2c2420" stroke-width="1.2" cx="128" cy="-18" rx="44.5" ry="18"/>
<text text-anchor="middle" x="128" y="-15.2" font-family="Helvetica,sans-Serif" font-size="11.00">UDP socket</text>
</g>
<!-- udp&#45;&gt;sock -->
<g id="edge5" class="edge">
<title>udp&#45;&gt;sock</title>
<path fill="none" stroke="#6b5d4f" d="M128,-81.64C128,-71.3 128,-57.94 128,-46.22"/>
<polygon fill="#6b5d4f" stroke="#6b5d4f" points="131.5,-46.05 128,-36.05 124.5,-46.05 131.5,-46.05"/>
<text text-anchor="middle" x="139" y="-56.8" font-family="Helvetica,sans-Serif" font-size="9.00">bytes</text>
</g>
</g>
</svg>
