<?xml version="1.0" encoding="UTF-8" standalone="no"?>
<!DOCTYPE svg PUBLIC "-//W3C//DTD SVG 1.1//EN"
 "http://www.w3.org/Graphics/SVG/1.1/DTD/svg11.dtd">
<!-- Generated by graphviz version 2.43.0 (0)
 -->
<!-- Title: dag_models Pages: 1 -->
<svg width="508pt" height="288pt"
 viewBox="0.00 0.00 508.00 288.00" xmlns="http://www.w3.org/2000/svg" xmlns:xlink="http://www.w3.org/1999/xlink">
<g id="graph0" class="graph" transform="scale(1 1) rotate(0) translate(4 284)">
<title>dag_models</title>
<g id="clust1" class="cluster">
<title>cluster_make</title>
<path fill="transparent" stroke="#8b7a68" d="M20,-8C20,-8 269,-8 269,-8 275,-8 281,-14 281,-20 281,-20 281,-124 281,-124 281,-130 275,-136 269,-136 269,-136 20,-136 20,-136 14,-136 8,-130 8,-124 8,-124 8,-20 8,-20 8,-14 14,-8 20,-8"/>
<text text-anchor="middle" x="66" y="-121.6" font-family="IBM Plex Sans" font-size="13.00" fill="#4a3f35">Make (file → file)</text>
</g>
<g id="clust2" class="cluster">
<title>cluster_modern</title>
<path fill="transparent" stroke="#8b7a68" d="M20,-144C20,-144 480,-144 480,-144 486,-144 492,-150 492,-156 492,-156 492,-260 492,-260 492,-266 486,-272 480,-272 480,-272 20,-272 20,-272 14,-272 8,-266 8,-260 8,-260 8,-156 8,-156 8,-150 14,-144 20,-144"/>
<text text-anchor="middle" x="122" y="-257.6" font-family="IBM Plex Sans" font-size="13.00" fill="#4a3f35">Tup / Ninja (file → command → file)</text>
</g>
<!-- m_src -->
<g id="node1" class="node">
<title>m_src</title>
<polygon fill="#fffef7" stroke="#d4c9b8" points="64,-106 16,-106 16,-70 70,-70 70,-100 64,-106"/>
<polyline fill="none" stroke="#d4c9b8" points="64,-106 64,-100 "/>
<polyline fill="none" stroke="#d4c9b8" points="70,-100 64,-100 "/>
<text text-anchor="middle" x="43" y="-85.2" font-family="IBM Plex Sans" font-size="11.00">main.c</text>
</g>
<!-- m_obj -->
<g id="node3" class="node">
<title>m_obj</title>
<polygon fill="#e8e0d4" stroke="#d4c9b8" points="165.5,-79 117.5,-79 117.5,-43 171.5,-43 171.5,-73 165.5,-79"/>
<polyline fill="none" stroke="#d4c9b8" points="165.5,-79 165.5,-73 "/>
<polyline fill="none" stroke="#d4c9b8" points="171.5,-73 165.5,-73 "/>
<text text-anchor="middle" x="144.5" y="-58.2" font-family="IBM Plex Sans" font-size="11.00">main.o</text>
</g>
<!-- m_src&#45;&gt;m_obj -->
<g id="edge1" class="edge">
<title>m_src&#45;&gt;m_obj</title>
<path fill="none" stroke="black" d="M70.14,-80.91C81.48,-77.83 94.94,-74.18 107.22,-70.84"/>
<polygon fill="black" stroke="black" points="108.45,-74.14 117.19,-68.14 106.62,-67.38 108.45,-74.14"/>
</g>
<!-- m_hdr -->
<g id="node2" class="node">
<title>m_hdr</title>
<polygon fill="#fffef7" stroke="#d4c9b8" points="64,-52 16,-52 16,-16 70,-16 70,-46 64,-52"/>
<polyline fill="none" stroke="#d4c9b8" points="64,-52 64,-46 "/>
<polyline fill="none" stroke="#d4c9b8" points="70,-46 64,-46 "/>
<text text-anchor="middle" x="43" y="-31.2" font-family="IBM Plex Sans" font-size="11.00">util.h</text>
</g>
<!-- m_hdr&#45;&gt;m_obj -->
<g id="edge2" class="edge">
<title>m_hdr&#45;&gt;m_obj</title>
<path fill="none" stroke="black" d="M70.14,-41.09C81.48,-44.17 94.94,-47.82 107.22,-51.16"/>
<polygon fill="black" stroke="black" points="106.62,-54.62 117.19,-53.86 108.45,-47.86 106.62,-54.62"/>
</g>
<!-- m_bin -->
<g id="node4" class="node">
<title>m_bin</title>
<polygon fill="#d4c9b8" stroke="#8b7a68" points="273,-79 219,-79 219,-75 215,-75 215,-71 219,-71 219,-51 215,-51 215,-47 219,-47 219,-43 273,-43 273,-79"/>
<polyline fill="none" stroke="#8b7a68" points="219,-75 223,-75 223,-71 219,-71 "/>
<polyline fill="none" stroke="#8b7a68" points="219,-51 223,-51 223,-47 219,-47 "/>
<text text-anchor="middle" x="246" y="-58.2" font-family="IBM Plex Sans" font-size="11.00">app</text>
</g>
<!-- m_obj&#45;&gt;m_bin -->
<g id="edge3" class="edge">
<title>m_obj&#45;&gt;m_bin</title>
<path fill="none" stroke="black" d="M171.64,-61C182.86,-61 196.17,-61 208.35,-61"/>
<polygon fill="black" stroke="black" points="208.69,-64.5 218.69,-61 208.69,-57.5 208.69,-64.5"/>
</g>
<!-- t_src -->
<g id="node5" class="node">
<title>t_src</title>
<polygon fill="#fffef7" stroke="#d4c9b8" points="64,-242 16,-242 16,-206 70,-206 70,-236 64,-242"/>
<polyline fill="none" stroke="#d4c9b8" points="64,-242 64,-236 "/>
<polyline fill="none" stroke="#d4c9b8" points="70,-236 64,-236 "/>
<text text-anchor="middle" x="43" y="-221.2" font-family="IBM Plex Sans" font-size="11.00">main.c</text>
</g>
<!-- t_cc -->
<g id="node7" class="node">
<title>t_cc</title>
<path fill="#f0e8d4" stroke="#8b7a68" d="M171,-215C171,-215 118,-215 118,-215 112,-215 106,-209 106,-203 106,-203 106,-191 106,-191 106,-185 112,-179 118,-179 118,-179 171,-179 171,-179 177,-179 183,-185 183,-191 183,-191 183,-203 183,-203 183,-209 177,-215 171,-215"/>
<text text-anchor="middle" x="144.5" y="-199.8" font-family="IBM Plex Sans" font-size="9.00">cc &#45;c &#45;o main.o</text>
<text text-anchor="middle" x="144.5" y="-189.8" font-family="IBM Plex Sans" font-size="9.00">main.c &#45;MMD</text>
</g>
<!-- t_src&#45;&gt;t_cc -->
<g id="edge4" class="edge">
<title>t_src&#45;&gt;t_cc</title>
<path fill="none" stroke="black" d="M70.14,-216.91C78.18,-214.73 87.28,-212.26 96.27,-209.82"/>
<polygon fill="black" stroke="black" points="97.2,-213.19 105.93,-207.19 95.36,-206.44 97.2,-213.19"/>
</g>
<!-- t_hdr -->
<g id="node6" class="node">
<title>t_hdr</title>
<polygon fill="#fffef7" stroke="#d4c9b8" points="64,-188 16,-188 16,-152 70,-152 70,-182 64,-188"/>
<polyline fill="none" stroke="#d4c9b8" points="64,-188 64,-182 "/>
<polyline fill="none" stroke="#d4c9b8" points="70,-182 64,-182 "/>
<text text-anchor="middle" x="43" y="-167.2" font-family="IBM Plex Sans" font-size="11.00">util.h</text>
</g>
<!-- t_hdr&#45;&gt;t_cc -->
<g id="edge5" class="edge">
<title>t_hdr&#45;&gt;t_cc</title>
<path fill="none" stroke="black" d="M70.14,-177.09C78.18,-179.27 87.28,-181.74 96.27,-184.18"/>
<polygon fill="black" stroke="black" points="95.36,-187.56 105.93,-186.81 97.2,-180.81 95.36,-187.56"/>
</g>
<!-- t_obj -->
<g id="node8" class="node">
<title>t_obj</title>
<polygon fill="#e8e0d4" stroke="#d4c9b8" points="267,-188 219,-188 219,-152 273,-152 273,-182 267,-188"/>
<polyline fill="none" stroke="#d4c9b8" points="267,-188 267,-182 "/>
<polyline fill="none" stroke="#d4c9b8" points="273,-182 267,-182 "/>
<text text-anchor="middle" x="246" y="-167.2" font-family="IBM Plex Sans" font-size="11.00">main.o</text>
</g>
<!-- t_cc&#45;&gt;t_obj -->
<g id="edge6" class="edge">
<title>t_cc&#45;&gt;t_obj</title>
<path fill="none" stroke="black" d="M183.12,-186.79C191.57,-184.5 200.52,-182.07 208.9,-179.8"/>
<polygon fill="black" stroke="black" points="210.05,-183.11 218.78,-177.11 208.22,-176.35 210.05,-183.11"/>
</g>
<!-- t_dep -->
<g id="node9" class="node">
<title>t_dep</title>
<polygon fill="#e8e0d4" stroke="#d4c9b8" points="267,-242 219,-242 219,-206 273,-206 273,-236 267,-242"/>
<polyline fill="none" stroke="#d4c9b8" points="267,-242 267,-236 "/>
<polyline fill="none" stroke="#d4c9b8" points="273,-236 267,-236 "/>
<text text-anchor="middle" x="246" y="-221.2" font-family="IBM Plex Sans" font-size="11.00">main.d</text>
</g>
<!-- t_cc&#45;&gt;t_dep -->
<g id="edge7" class="edge">
<title>t_cc&#45;&gt;t_dep</title>
<path fill="none" stroke="black" d="M183.12,-207.21C191.57,-209.5 200.52,-211.93 208.9,-214.2"/>
<polygon fill="black" stroke="black" points="208.22,-217.65 218.78,-216.89 210.05,-210.89 208.22,-217.65"/>
</g>
<!-- t_ld -->
<g id="node10" class="node">
<title>t_ld</title>
<path fill="#f0e8d4" stroke="#8b7a68" d="M382,-188C382,-188 321,-188 321,-188 315,-188 309,-182 309,-176 309,-176 309,-164 309,-164 309,-158 315,-152 321,-152 321,-152 382,-152 382,-152 388,-152 394,-158 394,-164 394,-164 394,-176 394,-176 394,-182 388,-188 382,-188"/>
<text text-anchor="middle" x="351.5" y="-167.8" font-family="IBM Plex Sans" font-size="9.00">cc &#45;o app main.o</text>
</g>
<!-- t_obj&#45;&gt;t_ld -->
<g id="edge8" class="edge">
<title>t_obj&#45;&gt;t_ld</title>
<path fill="none" stroke="black" d="M273.12,-170C280.87,-170 289.64,-170 298.42,-170"/>
<polygon fill="black" stroke="black" points="298.68,-173.5 308.68,-170 298.68,-166.5 298.68,-173.5"/>
</g>
<!-- t_bin -->
<g id="node11" class="node">
<title>t_bin</title>
<polygon fill="#d4c9b8" stroke="#8b7a68" points="484,-188 430,-188 430,-184 426,-184 426,-180 430,-180 430,-160 426,-160 426,-156 430,-156 430,-152 484,-152 484,-188"/>
<polyline fill="none" stroke="#8b7a68" points="430,-184 434,-184 434,-180 430,-180 "/>
<polyline fill="none" stroke="#8b7a68" points="430,-160 434,-160 434,-156 430,-156 "/>
<text text-anchor="middle" x="457" y="-167.2" font-family="IBM Plex Sans" font-size="11.00">app</text>
</g>
<!-- t_ld&#45;&gt;t_bin -->
<g id="edge9" class="edge">
<title>t_ld&#45;&gt;t_bin</title>
<path fill="none" stroke="black" d="M394,-170C402.54,-170 411.47,-170 419.81,-170"/>
<polygon fill="black" stroke="black" points="419.97,-173.5 429.97,-170 419.97,-166.5 419.97,-173.5"/>
</g>
</g>
</svg>
