<?xml version="1.0" encoding="UTF-8" standalone="no"?>
<!DOCTYPE svg PUBLIC "-//W3C//DTD SVG 1.1//EN"
 "http://www.w3.org/Graphics/SVG/1.1/DTD/svg11.dtd">
<!-- Generated by graphviz version 2.43.0 (0)
 -->
<!-- Title: lineage Pages: 1 -->
<svg width="405pt" height="314pt"
 viewBox="0.00 0.00 404.50 314.00" xmlns="http://www.w3.org/2000/svg" xmlns:xlink="http://www.w3.org/1999/xlink">
<g id="graph0" class="graph" transform="scale(1 1) rotate(0) translate(4 310)">
<title>lineage</title>
<!-- make -->
<g id="node1" class="node">
<title>make</title>
<path fill="#fffef7" stroke="#d4c9b8" d="M288.33,-306C288.33,-306 210.67,-306 210.67,-306 205.33,-306 200,-300.67 200,-295.33 200,-295.33 200,-284.67 200,-284.67 200,-279.33 205.33,-274 210.67,-274 210.67,-274 288.33,-274 288.33,-274 293.67,-274 299,-279.33 299,-284.67 299,-284.67 299,-295.33 299,-295.33 299,-300.67 293.67,-306 288.33,-306"/>
<text text-anchor="middle" x="249.5" y="-293.2" font-family="IBM Plex Sans" font-size="11.00">Make</text>
<text text-anchor="middle" x="249.5" y="-281.2" font-family="IBM Plex Sans" font-size="11.00">(1976, Bell Labs)</text>
</g>
<!-- mk -->
<g id="node2" class="node">
<title>mk</title>
<path fill="#fffef7" stroke="#d4c9b8" d="M88.33,-218C88.33,-218 10.67,-218 10.67,-218 5.33,-218 0,-212.67 0,-207.33 0,-207.33 0,-196.67 0,-196.67 0,-191.33 5.33,-186 10.67,-186 10.67,-186 88.33,-186 88.33,-186 93.67,-186 99,-191.33 99,-196.67 99,-196.67 99,-207.33 99,-207.33 99,-212.67 93.67,-218 88.33,-218"/>
<text text-anchor="middle" x="49.5" y="-205.2" font-family="IBM Plex Sans" font-size="11.00">Plan 9 mk</text>
<text text-anchor="middle" x="49.5" y="-193.2" font-family="IBM Plex Sans" font-size="11.00">(1984, Bell Labs)</text>
</g>
<!-- make&#45;&gt;mk -->
<g id="edge1" class="edge">
<title>make&#45;&gt;mk</title>
<path fill="none" stroke="#8b7a68" d="M202.16,-273.94C186.79,-268.69 169.77,-262.47 154.5,-256 131.29,-246.16 106.05,-233.49 86.13,-223"/>
<polygon fill="#8b7a68" stroke="#8b7a68" points="87.57,-219.8 77.1,-218.2 84.29,-225.98 87.57,-219.8"/>
<text text-anchor="middle" x="168.5" y="-243.8" font-family="IBM Plex Sans Condensed" font-size="9.00">simplify</text>
</g>
<!-- jam -->
<g id="node3" class="node">
<title>jam</title>
<path fill="#fffef7" stroke="#d4c9b8" d="M202.83,-218C202.83,-218 128.17,-218 128.17,-218 122.83,-218 117.5,-212.67 117.5,-207.33 117.5,-207.33 117.5,-196.67 117.5,-196.67 117.5,-191.33 122.83,-186 128.17,-186 128.17,-186 202.83,-186 202.83,-186 208.17,-186 213.5,-191.33 213.5,-196.67 213.5,-196.67 213.5,-207.33 213.5,-207.33 213.5,-212.67 208.17,-218 202.83,-218"/>
<text text-anchor="middle" x="165.5" y="-205.2" font-family="IBM Plex Sans" font-size="11.00">Perforce Jam</text>
<text text-anchor="middle" x="165.5" y="-193.2" font-family="IBM Plex Sans" font-size="11.00">(1993, Perforce)</text>
</g>
<!-- make&#45;&gt;jam -->
<g id="edge2" class="edge">
<title>make&#45;&gt;jam</title>
<path fill="none" stroke="#8b7a68" d="M223.72,-273.85C216.1,-268.71 208.06,-262.6 201.5,-256 192.94,-247.39 185.14,-236.49 179,-226.82"/>
<polygon fill="#8b7a68" stroke="#8b7a68" points="181.84,-224.76 173.66,-218.04 175.86,-228.4 181.84,-224.76"/>
<text text-anchor="middle" x="218.5" y="-248.8" font-family="IBM Plex Sans Condensed" font-size="9.00">rethink</text>
<text text-anchor="middle" x="218.5" y="-238.8" font-family="IBM Plex Sans Condensed" font-size="9.00">language</text>
</g>
<!-- cmake -->
<g id="node4" class="node">
<title>cmake</title>
<path fill="#f0e8d4" stroke="#8b7a68" d="M231.83,-130C231.83,-130 161.17,-130 161.17,-130 155.83,-130 150.5,-124.67 150.5,-119.33 150.5,-119.33 150.5,-108.67 150.5,-108.67 150.5,-103.33 155.83,-98 161.17,-98 161.17,-98 231.83,-98 231.83,-98 237.17,-98 242.5,-103.33 242.5,-108.67 242.5,-108.67 242.5,-119.33 242.5,-119.33 242.5,-124.67 237.17,-130 231.83,-130"/>
<text text-anchor="middle" x="196.5" y="-117.2" font-family="IBM Plex Sans" font-size="11.00">CMake</text>
<text text-anchor="middle" x="196.5" y="-105.2" font-family="IBM Plex Sans" font-size="11.00">(2000, Kitware)</text>
</g>
<!-- make&#45;&gt;cmake -->
<g id="edge3" class="edge">
<title>make&#45;&gt;cmake</title>
<path fill="none" stroke="#8b7a68" d="M246.38,-273.9C240.78,-247.79 228.03,-192.7 211.5,-148 210.48,-145.23 209.33,-142.37 208.13,-139.55"/>
<polygon fill="#8b7a68" stroke="#8b7a68" points="211.25,-137.96 203.99,-130.25 204.86,-140.81 211.25,-137.96"/>
<text text-anchor="middle" x="248.5" y="-204.8" font-family="IBM Plex Sans Condensed" font-size="9.00">replace</text>
<text text-anchor="middle" x="248.5" y="-194.8" font-family="IBM Plex Sans Condensed" font-size="9.00">portably</text>
</g>
<!-- tup -->
<g id="node5" class="node">
<title>tup</title>
<path fill="#f0e8d4" stroke="#8b7a68" d="M359.83,-130C359.83,-130 271.17,-130 271.17,-130 265.83,-130 260.5,-124.67 260.5,-119.33 260.5,-119.33 260.5,-108.67 260.5,-108.67 260.5,-103.33 265.83,-98 271.17,-98 271.17,-98 359.83,-98 359.83,-98 365.17,-98 370.5,-103.33 370.5,-108.67 370.5,-108.67 370.5,-119.33 370.5,-119.33 370.5,-124.67 365.17,-130 359.83,-130"/>
<text text-anchor="middle" x="315.5" y="-117.2" font-family="IBM Plex Sans" font-size="11.00">Tup</text>
<text text-anchor="middle" x="315.5" y="-105.2" font-family="IBM Plex Sans" font-size="11.00">(2009, Stelian Pop)</text>
</g>
<!-- make&#45;&gt;tup -->
<g id="edge4" class="edge">
<title>make&#45;&gt;tup</title>
<path fill="none" stroke="#8b7a68" d="M255.24,-273.86C266.65,-243.78 292.27,-176.24 306.14,-139.67"/>
<polygon fill="#8b7a68" stroke="#8b7a68" points="309.45,-140.82 309.72,-130.23 302.91,-138.33 309.45,-140.82"/>
<text text-anchor="middle" x="309.5" y="-204.8" font-family="IBM Plex Sans Condensed" font-size="9.00">fix</text>
<text text-anchor="middle" x="309.5" y="-194.8" font-family="IBM Plex Sans Condensed" font-size="9.00">correctness</text>
</g>
<!-- ninja -->
<g id="node6" class="node">
<title>ninja</title>
<path fill="#e8e0d4" stroke="#8b7a68" d="M313.33,-32C313.33,-32 199.67,-32 199.67,-32 194.33,-32 189,-26.67 189,-21.33 189,-21.33 189,-10.67 189,-10.67 189,-5.33 194.33,0 199.67,0 199.67,0 313.33,0 313.33,0 318.67,0 324,-5.33 324,-10.67 324,-10.67 324,-21.33 324,-21.33 324,-26.67 318.67,-32 313.33,-32"/>
<text text-anchor="middle" x="256.5" y="-19.2" font-family="IBM Plex Sans" font-size="11.00">Ninja</text>
<text text-anchor="middle" x="256.5" y="-7.2" font-family="IBM Plex Sans" font-size="11.00">(2012, Google/Chrome)</text>
</g>
<!-- make&#45;&gt;ninja -->
<g id="edge5" class="edge">
<title>make&#45;&gt;ninja</title>
<path fill="none" stroke="#8b7a68" stroke-dasharray="5,2" d="M272.27,-273.89C290.76,-260.77 316.62,-240.39 334.5,-218 361.91,-183.67 369.21,-172.71 379.5,-130 382.83,-116.17 386.25,-110.52 379.5,-98 364.15,-69.51 333.91,-49.39 307.25,-36.33"/>
<polygon fill="#8b7a68" stroke="#8b7a68" points="308.55,-33.07 298.01,-32 305.58,-39.41 308.55,-33.07"/>
<text text-anchor="middle" x="385.5" y="-160.8" font-family="IBM Plex Sans Condensed" font-size="9.00">fix</text>
<text text-anchor="middle" x="385.5" y="-150.8" font-family="IBM Plex Sans Condensed" font-size="9.00">speed</text>
</g>
<!-- jam&#45;&gt;cmake -->
<g id="edge6" class="edge">
<title>jam&#45;&gt;cmake</title>
<path fill="none" stroke="#8b7a68" stroke-dasharray="5,2" d="M171.04,-185.62C175.63,-172.91 182.23,-154.6 187.56,-139.81"/>
<polygon fill="#8b7a68" stroke="#8b7a68" points="190.91,-140.84 191.01,-130.24 184.32,-138.46 190.91,-140.84"/>
<text text-anchor="middle" x="196" y="-160.8" font-family="IBM Plex Sans Condensed" font-size="9.00">phase</text>
<text text-anchor="middle" x="196" y="-150.8" font-family="IBM Plex Sans Condensed" font-size="9.00">model</text>
</g>
<!-- cmake&#45;&gt;ninja -->
<g id="edge7" class="edge">
<title>cmake&#45;&gt;ninja</title>
<path fill="none" stroke="#4a3f35" stroke-width="2" d="M192.74,-97.85C190.26,-84.32 188.86,-64.46 197.5,-50 200.21,-45.46 203.8,-41.49 207.87,-38.04"/>
<polygon fill="#4a3f35" stroke="#4a3f35" stroke-width="2" points="210.14,-40.71 216.19,-32.02 206.04,-35.04 210.14,-40.71"/>
<text text-anchor="middle" x="216" y="-67.8" font-family="IBM Plex Sans Condensed" font-size="9.00">generates</text>
<text text-anchor="middle" x="216" y="-57.8" font-family="IBM Plex Sans Condensed" font-size="9.00">for</text>
</g>
<!-- ninja&#45;&gt;cmake -->
<g id="edge8" class="edge">
<title>ninja&#45;&gt;cmake</title>
<path fill="none" stroke="#8b7a68" stroke-dasharray="5,2" d="M253.57,-32C250.44,-45.43 244.51,-65.23 234.5,-80 231.89,-83.85 228.73,-87.52 225.35,-90.92"/>
<polygon fill="#8b7a68" stroke="#8b7a68" points="222.74,-88.57 217.75,-97.91 227.48,-93.72 222.74,-88.57"/>
<text text-anchor="middle" x="267" y="-72.8" font-family="IBM Plex Sans Condensed" font-size="9.00">designed</text>
<text text-anchor="middle" x="267" y="-62.8" font-family="IBM Plex Sans Condensed" font-size="9.00">to be</text>
<text text-anchor="middle" x="267" y="-52.8" font-family="IBM Plex Sans Condensed" font-size="9.00">generated</text>
</g>
</g>
</svg>
