<?xml version="1.0" encoding="UTF-8" standalone="no"?>
<!DOCTYPE svg PUBLIC "-//W3C//DTD SVG 1.1//EN"
 "http://www.w3.org/Graphics/SVG/1.1/DTD/svg11.dtd">
<!-- Generated by graphviz version 2.43.0 (0)
 -->
<!-- Title: phases Pages: 1 -->
<svg width="427pt" height="336pt"
 viewBox="0.00 0.00 427.00 336.00" xmlns="http://www.w3.org/2000/svg" xmlns:xlink="http://www.w3.org/1999/xlink">
<g id="graph0" class="graph" transform="scale(1 1) rotate(0) translate(4 332)">
<title>phases</title>
<g id="clust1" class="cluster">
<title>cluster_make</title>
<path fill="transparent" stroke="#8b7a68" d="M23,-8C23,-8 207,-8 207,-8 213,-8 219,-14 219,-20 219,-20 219,-75 219,-75 219,-81 213,-87 207,-87 207,-87 23,-87 23,-87 17,-87 11,-81 11,-75 11,-75 11,-20 11,-20 11,-14 17,-8 23,-8"/>
<text text-anchor="middle" x="35" y="-73.4" font-family="IBM Plex Sans" font-size="12.00" fill="#4a3f35">Make</text>
</g>
<g id="clust2" class="cluster">
<title>cluster_jam</title>
<path fill="transparent" stroke="#8b7a68" d="M24,-95C24,-95 399,-95 399,-95 405,-95 411,-101 411,-107 411,-107 411,-150 411,-150 411,-156 405,-162 399,-162 399,-162 24,-162 24,-162 18,-162 12,-156 12,-150 12,-150 12,-107 12,-107 12,-101 18,-95 24,-95"/>
<text text-anchor="middle" x="31" y="-148.4" font-family="IBM Plex Sans" font-size="12.00" fill="#4a3f35">Jam</text>
</g>
<g id="clust3" class="cluster">
<title>cluster_cmake</title>
<path fill="transparent" stroke="#8b7a68" d="M20,-170C20,-170 399,-170 399,-170 405,-170 411,-176 411,-182 411,-182 411,-225 411,-225 411,-231 405,-237 399,-237 399,-237 20,-237 20,-237 14,-237 8,-231 8,-225 8,-225 8,-182 8,-182 8,-176 14,-170 20,-170"/>
<text text-anchor="middle" x="57" y="-223.4" font-family="IBM Plex Sans" font-size="12.00" fill="#4a3f35">CMake + Ninja</text>
</g>
<g id="clust4" class="cluster">
<title>cluster_tup</title>
<path fill="transparent" stroke="#8b7a68" d="M21.5,-245C21.5,-245 399,-245 399,-245 405,-245 411,-251 411,-257 411,-257 411,-308 411,-308 411,-314 405,-320 399,-320 399,-320 21.5,-320 21.5,-320 15.5,-320 9.5,-314 9.5,-308 9.5,-308 9.5,-257 9.5,-257 9.5,-251 15.5,-245 21.5,-245"/>
<text text-anchor="middle" x="28.5" y="-306.4" font-family="IBM Plex Sans" font-size="12.00" fill="#4a3f35">Tup</text>
</g>
<!-- mk1 -->
<g id="node1" class="node">
<title>mk1</title>
<path fill="#fffef7" stroke="#d4c9b8" d="M65,-52C65,-52 29,-52 29,-52 24,-52 19,-47 19,-42 19,-42 19,-32 19,-32 19,-27 24,-22 29,-22 29,-22 65,-22 65,-22 70,-22 75,-27 75,-32 75,-32 75,-42 75,-42 75,-47 70,-52 65,-52"/>
<text text-anchor="middle" x="47" y="-40" font-family="IBM Plex Sans" font-size="10.00">Read</text>
<text text-anchor="middle" x="47" y="-29" font-family="IBM Plex Sans" font-size="10.00">Makefile</text>
</g>
<!-- mk2 -->
<g id="node2" class="node">
<title>mk2</title>
<path fill="#f0e8d4" stroke="#8b7a68" d="M199,-57.5C199,-57.5 147,-57.5 147,-57.5 141,-57.5 135,-51.5 135,-45.5 135,-45.5 135,-28.5 135,-28.5 135,-22.5 141,-16.5 147,-16.5 147,-16.5 199,-16.5 199,-16.5 205,-16.5 211,-22.5 211,-28.5 211,-28.5 211,-45.5 211,-45.5 211,-51.5 205,-57.5 199,-57.5"/>
<text text-anchor="middle" x="173" y="-45.5" font-family="IBM Plex Sans" font-size="10.00">Build graph</text>
<text text-anchor="middle" x="173" y="-34.5" font-family="IBM Plex Sans" font-size="10.00">+ Execute</text>
<text text-anchor="middle" x="173" y="-23.5" font-family="IBM Plex Sans" font-size="10.00">(interleaved)</text>
</g>
<!-- mk1&#45;&gt;mk2 -->
<g id="edge1" class="edge">
<title>mk1&#45;&gt;mk2</title>
<path fill="none" stroke="black" d="M75.21,-37C89.74,-37 108.02,-37 124.78,-37"/>
<polygon fill="black" stroke="black" points="124.97,-40.5 134.97,-37 124.97,-33.5 124.97,-40.5"/>
</g>
<!-- j1 -->
<g id="node3" class="node">
<title>j1</title>
<path fill="#fffef7" stroke="#d4c9b8" d="M64.33,-132.5C64.33,-132.5 29.67,-132.5 29.67,-132.5 24.83,-132.5 20,-127.67 20,-122.83 20,-122.83 20,-113.17 20,-113.17 20,-108.33 24.83,-103.5 29.67,-103.5 29.67,-103.5 64.33,-103.5 64.33,-103.5 69.17,-103.5 74,-108.33 74,-113.17 74,-113.17 74,-122.83 74,-122.83 74,-127.67 69.17,-132.5 64.33,-132.5"/>
<text text-anchor="middle" x="47" y="-115.5" font-family="IBM Plex Sans" font-size="10.00">Startup</text>
</g>
<!-- j2 -->
<g id="node4" class="node">
<title>j2</title>
<path fill="#fffef7" stroke="#d4c9b8" d="M190.33,-132.5C190.33,-132.5 155.67,-132.5 155.67,-132.5 150.83,-132.5 146,-127.67 146,-122.83 146,-122.83 146,-113.17 146,-113.17 146,-108.33 150.83,-103.5 155.67,-103.5 155.67,-103.5 190.33,-103.5 190.33,-103.5 195.17,-103.5 200,-108.33 200,-113.17 200,-113.17 200,-122.83 200,-122.83 200,-127.67 195.17,-132.5 190.33,-132.5"/>
<text text-anchor="middle" x="173" y="-115.5" font-family="IBM Plex Sans" font-size="10.00">Parse</text>
</g>
<!-- j1&#45;&gt;j2 -->
<g id="edge2" class="edge">
<title>j1&#45;&gt;j2</title>
<path fill="none" stroke="black" d="M74.3,-118C92.13,-118 115.95,-118 135.61,-118"/>
<polygon fill="black" stroke="black" points="135.74,-121.5 145.74,-118 135.74,-114.5 135.74,-121.5"/>
</g>
<!-- j3 -->
<g id="node5" class="node">
<title>j3</title>
<path fill="#f0e8d4" stroke="#8b7a68" d="M297.33,-132.5C297.33,-132.5 262.67,-132.5 262.67,-132.5 257.83,-132.5 253,-127.67 253,-122.83 253,-122.83 253,-113.17 253,-113.17 253,-108.33 257.83,-103.5 262.67,-103.5 262.67,-103.5 297.33,-103.5 297.33,-103.5 302.17,-103.5 307,-108.33 307,-113.17 307,-113.17 307,-122.83 307,-122.83 307,-127.67 302.17,-132.5 297.33,-132.5"/>
<text text-anchor="middle" x="280" y="-115.5" font-family="IBM Plex Sans" font-size="10.00">Bind</text>
</g>
<!-- j2&#45;&gt;j3 -->
<g id="edge3" class="edge">
<title>j2&#45;&gt;j3</title>
<path fill="none" stroke="black" d="M200.23,-118C213,-118 228.58,-118 242.5,-118"/>
<polygon fill="black" stroke="black" points="242.75,-121.5 252.75,-118 242.75,-114.5 242.75,-121.5"/>
</g>
<!-- j4 -->
<g id="node6" class="node">
<title>j4</title>
<path fill="#e8e0d4" stroke="#8b7a68" d="M393.33,-132.5C393.33,-132.5 358.67,-132.5 358.67,-132.5 353.83,-132.5 349,-127.67 349,-122.83 349,-122.83 349,-113.17 349,-113.17 349,-108.33 353.83,-103.5 358.67,-103.5 358.67,-103.5 393.33,-103.5 393.33,-103.5 398.17,-103.5 403,-108.33 403,-113.17 403,-113.17 403,-122.83 403,-122.83 403,-127.67 398.17,-132.5 393.33,-132.5"/>
<text text-anchor="middle" x="376" y="-115.5" font-family="IBM Plex Sans" font-size="10.00">Update</text>
</g>
<!-- j3&#45;&gt;j4 -->
<g id="edge4" class="edge">
<title>j3&#45;&gt;j4</title>
<path fill="none" stroke="black" d="M307.18,-118C316.96,-118 328.25,-118 338.77,-118"/>
<polygon fill="black" stroke="black" points="338.96,-121.5 348.96,-118 338.96,-114.5 338.96,-121.5"/>
</g>
<!-- c1 -->
<g id="node7" class="node">
<title>c1</title>
<path fill="#fffef7" stroke="#d4c9b8" d="M68,-208C68,-208 26,-208 26,-208 21,-208 16,-203 16,-198 16,-198 16,-188 16,-188 16,-183 21,-178 26,-178 26,-178 68,-178 68,-178 73,-178 78,-183 78,-188 78,-188 78,-198 78,-198 78,-203 73,-208 68,-208"/>
<text text-anchor="middle" x="47" y="-196" font-family="IBM Plex Sans" font-size="10.00">Configure</text>
<text text-anchor="middle" x="47" y="-185" font-family="IBM Plex Sans" font-size="10.00">(CMake)</text>
</g>
<!-- c2 -->
<g id="node8" class="node">
<title>c2</title>
<path fill="#f0e8d4" stroke="#8b7a68" d="M193.5,-208C193.5,-208 152.5,-208 152.5,-208 147.5,-208 142.5,-203 142.5,-198 142.5,-198 142.5,-188 142.5,-188 142.5,-183 147.5,-178 152.5,-178 152.5,-178 193.5,-178 193.5,-178 198.5,-178 203.5,-183 203.5,-188 203.5,-188 203.5,-198 203.5,-198 203.5,-203 198.5,-208 193.5,-208"/>
<text text-anchor="middle" x="173" y="-196" font-family="IBM Plex Sans" font-size="10.00">Generate</text>
<text text-anchor="middle" x="173" y="-185" font-family="IBM Plex Sans" font-size="10.00">(CMake)</text>
</g>
<!-- c1&#45;&gt;c2 -->
<g id="edge5" class="edge">
<title>c1&#45;&gt;c2</title>
<path fill="none" stroke="black" d="M78.02,-193C94.16,-193 114.29,-193 131.77,-193"/>
<polygon fill="black" stroke="black" points="132.26,-196.5 142.26,-193 132.26,-189.5 132.26,-196.5"/>
</g>
<!-- c3 -->
<g id="node9" class="node">
<title>c3</title>
<polygon fill="#e8e0d4" stroke="#8b7a68" points="307.17,-207.5 248,-207.5 248,-178.5 312,-178.5 312,-202.67 307.17,-207.5"/>
<polyline fill="none" stroke="#8b7a68" points="307.17,-207.5 307.17,-202.67 "/>
<polyline fill="none" stroke="#8b7a68" points="312,-202.67 307.17,-202.67 "/>
<text text-anchor="middle" x="280" y="-190.5" font-family="IBM Plex Sans" font-size="10.00">build.ninja</text>
</g>
<!-- c2&#45;&gt;c3 -->
<g id="edge6" class="edge">
<title>c2&#45;&gt;c3</title>
<path fill="none" stroke="black" d="M203.53,-193C214.12,-193 226.26,-193 237.66,-193"/>
<polygon fill="black" stroke="black" points="237.86,-196.5 247.86,-193 237.86,-189.5 237.86,-196.5"/>
</g>
<!-- c4 -->
<g id="node10" class="node">
<title>c4</title>
<path fill="#d4c9b8" stroke="#8b7a68" d="M393,-208C393,-208 359,-208 359,-208 354,-208 349,-203 349,-198 349,-198 349,-188 349,-188 349,-183 354,-178 359,-178 359,-178 393,-178 393,-178 398,-178 403,-183 403,-188 403,-188 403,-198 403,-198 403,-203 398,-208 393,-208"/>
<text text-anchor="middle" x="376" y="-196" font-family="IBM Plex Sans" font-size="10.00">Execute</text>
<text text-anchor="middle" x="376" y="-185" font-family="IBM Plex Sans" font-size="10.00">(Ninja)</text>
</g>
<!-- c3&#45;&gt;c4 -->
<g id="edge7" class="edge">
<title>c3&#45;&gt;c4</title>
<path fill="none" stroke="black" d="M312.04,-193C320.57,-193 329.9,-193 338.7,-193"/>
<polygon fill="black" stroke="black" points="338.71,-196.5 348.71,-193 338.71,-189.5 338.71,-196.5"/>
</g>
<!-- t1 -->
<g id="node11" class="node">
<title>t1</title>
<path fill="#fffef7" stroke="#d4c9b8" d="M190.5,-287C190.5,-287 155.5,-287 155.5,-287 150.5,-287 145.5,-282 145.5,-277 145.5,-277 145.5,-267 145.5,-267 145.5,-262 150.5,-257 155.5,-257 155.5,-257 190.5,-257 190.5,-257 195.5,-257 200.5,-262 200.5,-267 200.5,-267 200.5,-277 200.5,-277 200.5,-282 195.5,-287 190.5,-287"/>
<text text-anchor="middle" x="173" y="-275" font-family="IBM Plex Sans" font-size="10.00">Scan</text>
<text text-anchor="middle" x="173" y="-264" font-family="IBM Plex Sans" font-size="10.00">changes</text>
</g>
<!-- t2 -->
<g id="node12" class="node">
<title>t2</title>
<path fill="#f0e8d4" stroke="#8b7a68" d="M297.5,-287C297.5,-287 262.5,-287 262.5,-287 257.5,-287 252.5,-282 252.5,-277 252.5,-277 252.5,-267 252.5,-267 252.5,-262 257.5,-257 262.5,-257 262.5,-257 297.5,-257 297.5,-257 302.5,-257 307.5,-262 307.5,-267 307.5,-267 307.5,-277 307.5,-277 307.5,-282 302.5,-287 297.5,-287"/>
<text text-anchor="middle" x="280" y="-275" font-family="IBM Plex Sans" font-size="10.00">Mark</text>
<text text-anchor="middle" x="280" y="-264" font-family="IBM Plex Sans" font-size="10.00">affected</text>
</g>
<!-- t1&#45;&gt;t2 -->
<g id="edge8" class="edge">
<title>t1&#45;&gt;t2</title>
<path fill="none" stroke="black" d="M200.77,-272C213.36,-272 228.57,-272 242.22,-272"/>
<polygon fill="black" stroke="black" points="242.28,-275.5 252.28,-272 242.28,-268.5 242.28,-275.5"/>
</g>
<!-- t3 -->
<g id="node13" class="node">
<title>t3</title>
<path fill="#e8e0d4" stroke="#8b7a68" d="M393.33,-286.5C393.33,-286.5 358.67,-286.5 358.67,-286.5 353.83,-286.5 349,-281.67 349,-276.83 349,-276.83 349,-267.17 349,-267.17 349,-262.33 353.83,-257.5 358.67,-257.5 358.67,-257.5 393.33,-257.5 393.33,-257.5 398.17,-257.5 403,-262.33 403,-267.17 403,-267.17 403,-276.83 403,-276.83 403,-281.67 398.17,-286.5 393.33,-286.5"/>
<text text-anchor="middle" x="376" y="-269.5" font-family="IBM Plex Sans" font-size="10.00">Execute</text>
</g>
<!-- t2&#45;&gt;t3 -->
<g id="edge9" class="edge">
<title>t2&#45;&gt;t3</title>
<path fill="none" stroke="black" d="M307.69,-272C317.37,-272 328.49,-272 338.86,-272"/>
<polygon fill="black" stroke="black" points="338.9,-275.5 348.9,-272 338.9,-268.5 338.9,-275.5"/>
</g>
<!-- tdb -->
<g id="node14" class="node">
<title>tdb</title>
<path fill="#d4c9b8" stroke="#8b7a68" d="M76.5,-287.55C76.5,-289.45 63.28,-291 47,-291 30.72,-291 17.5,-289.45 17.5,-287.55 17.5,-287.55 17.5,-256.45 17.5,-256.45 17.5,-254.55 30.72,-253 47,-253 63.28,-253 76.5,-254.55 76.5,-256.45 76.5,-256.45 76.5,-287.55 76.5,-287.55"/>
<path fill="none" stroke="#8b7a68" d="M76.5,-287.55C76.5,-285.64 63.28,-284.09 47,-284.09 30.72,-284.09 17.5,-285.64 17.5,-287.55"/>
<text text-anchor="middle" x="47" y="-274.8" font-family="IBM Plex Sans" font-size="9.00">Persistent</text>
<text text-anchor="middle" x="47" y="-264.8" font-family="IBM Plex Sans" font-size="9.00">DAG DB</text>
</g>
<!-- tdb&#45;&gt;t1 -->
<g id="edge10" class="edge">
<title>tdb&#45;&gt;t1</title>
<path fill="none" stroke="black" stroke-dasharray="5,2" d="M86.87,-272C102.25,-272 119.84,-272 135.02,-272"/>
<polygon fill="black" stroke="black" points="86.76,-268.5 76.76,-272 86.76,-275.5 86.76,-268.5"/>
<polygon fill="black" stroke="black" points="135.09,-275.5 145.09,-272 135.09,-268.5 135.09,-275.5"/>
<text text-anchor="middle" x="106.5" y="-283.6" font-family="IBM Plex Sans" font-size="8.00">read/</text>
<text text-anchor="middle" x="106.5" y="-274.6" font-family="IBM Plex Sans" font-size="8.00">write</text>
</g>
</g>
</svg>
