<?xml version="1.0" encoding="UTF-8" standalone="no"?>
<!DOCTYPE svg PUBLIC "-//W3C//DTD SVG 1.1//EN"
 "http://www.w3.org/Graphics/SVG/1.1/DTD/svg11.dtd">
<!-- Generated by graphviz version 2.43.0 (0)
 -->
<!-- Title: staleness Pages: 1 -->
<svg width="465pt" height="528pt"
 viewBox="0.00 0.00 465.00 528.00" xmlns="http://www.w3.org/2000/svg" xmlns:xlink="http://www.w3.org/1999/xlink">
<g id="graph0" class="graph" transform="scale(1 1) rotate(0) translate(4 524)">
<title>staleness</title>
<!-- start -->
<g id="node1" class="node">
<title>start</title>
<polygon fill="#fffef7" stroke="#d4c9b8" points="191,-520 130,-490 191,-460 252,-490 191,-520"/>
<text text-anchor="middle" x="191" y="-493" font-family="IBM Plex Sans" font-size="10.00">Input file</text>
<text text-anchor="middle" x="191" y="-482" font-family="IBM Plex Sans" font-size="10.00">changed?</text>
</g>
<!-- ts -->
<g id="node2" class="node">
<title>ts</title>
<path fill="#f0e8d4" stroke="#8b7a68" d="M305,-423C305,-423 263,-423 263,-423 257,-423 251,-417 251,-411 251,-411 251,-399 251,-399 251,-393 257,-387 263,-387 263,-387 305,-387 305,-387 311,-387 317,-393 317,-399 317,-399 317,-411 317,-411 317,-417 311,-423 305,-423"/>
<text text-anchor="middle" x="284" y="-408" font-family="IBM Plex Sans" font-size="10.00">Check</text>
<text text-anchor="middle" x="284" y="-397" font-family="IBM Plex Sans" font-size="10.00">timestamp</text>
</g>
<!-- start&#45;&gt;ts -->
<g id="edge1" class="edge">
<title>start&#45;&gt;ts</title>
<path fill="none" stroke="black" d="M212.1,-470.17C225.49,-458.22 242.92,-442.66 257.27,-429.86"/>
<polygon fill="black" stroke="black" points="259.75,-432.34 264.88,-423.07 255.09,-427.11 259.75,-432.34"/>
</g>
<!-- cmd -->
<g id="node6" class="node">
<title>cmd</title>
<path fill="#f0e8d4" stroke="#8b7a68" d="M118,-256.5C118,-256.5 50,-256.5 50,-256.5 44,-256.5 38,-250.5 38,-244.5 38,-244.5 38,-232.5 38,-232.5 38,-226.5 44,-220.5 50,-220.5 50,-220.5 118,-220.5 118,-220.5 124,-220.5 130,-226.5 130,-232.5 130,-232.5 130,-244.5 130,-244.5 130,-250.5 124,-256.5 118,-256.5"/>
<text text-anchor="middle" x="84" y="-241.5" font-family="IBM Plex Sans" font-size="10.00">Check</text>
<text text-anchor="middle" x="84" y="-230.5" font-family="IBM Plex Sans" font-size="10.00">command string</text>
</g>
<!-- start&#45;&gt;cmd -->
<g id="edge8" class="edge">
<title>start&#45;&gt;cmd</title>
<path fill="none" stroke="black" stroke-dasharray="5,2" d="M180.55,-464.62C160.37,-417.59 116.24,-314.68 95.37,-266.01"/>
<polygon fill="black" stroke="black" points="98.56,-264.57 91.4,-256.76 92.13,-267.33 98.56,-264.57"/>
<text text-anchor="middle" x="157.5" y="-361.8" font-family="IBM Plex Sans Condensed" font-size="9.00">also check</text>
</g>
<!-- prog -->
<g id="node8" class="node">
<title>prog</title>
<path fill="#e8e0d4" stroke="#8b7a68" d="M214.5,-259C214.5,-259 167.5,-259 167.5,-259 161.5,-259 155.5,-253 155.5,-247 155.5,-247 155.5,-230 155.5,-230 155.5,-224 161.5,-218 167.5,-218 167.5,-218 214.5,-218 214.5,-218 220.5,-218 226.5,-224 226.5,-230 226.5,-230 226.5,-247 226.5,-247 226.5,-253 220.5,-259 214.5,-259"/>
<text text-anchor="middle" x="191" y="-247" font-family="IBM Plex Sans" font-size="10.00">Run custom</text>
<text text-anchor="middle" x="191" y="-236" font-family="IBM Plex Sans" font-size="10.00">staleness</text>
<text text-anchor="middle" x="191" y="-225" font-family="IBM Plex Sans" font-size="10.00">command</text>
</g>
<!-- start&#45;&gt;prog -->
<g id="edge12" class="edge">
<title>start&#45;&gt;prog</title>
<path fill="none" stroke="black" stroke-dasharray="1,5" d="M191,-459.89C191,-412.09 191,-317.46 191,-269.25"/>
<polygon fill="black" stroke="black" points="194.5,-269.14 191,-259.14 187.5,-269.14 194.5,-269.14"/>
<text text-anchor="middle" x="215.5" y="-361.8" font-family="IBM Plex Sans Condensed" font-size="9.00">mk P attribute</text>
</g>
<!-- ts_new -->
<g id="node3" class="node">
<title>ts_new</title>
<polygon fill="#fffef7" stroke="#d4c9b8" points="316,-341 272.92,-323 316,-305 359.08,-323 316,-341"/>
<text text-anchor="middle" x="316" y="-320.5" font-family="IBM Plex Sans" font-size="10.00">Newer?</text>
</g>
<!-- ts&#45;&gt;ts_new -->
<g id="edge2" class="edge">
<title>ts&#45;&gt;ts_new</title>
<path fill="none" stroke="black" d="M290.94,-386.64C295.47,-375.33 301.44,-360.41 306.41,-347.97"/>
<polygon fill="black" stroke="black" points="309.68,-349.23 310.14,-338.64 303.18,-346.63 309.68,-349.23"/>
</g>
<!-- hash -->
<g id="node4" class="node">
<title>hash</title>
<path fill="#f0e8d4" stroke="#8b7a68" d="M342.5,-256.5C342.5,-256.5 289.5,-256.5 289.5,-256.5 283.5,-256.5 277.5,-250.5 277.5,-244.5 277.5,-244.5 277.5,-232.5 277.5,-232.5 277.5,-226.5 283.5,-220.5 289.5,-220.5 289.5,-220.5 342.5,-220.5 342.5,-220.5 348.5,-220.5 354.5,-226.5 354.5,-232.5 354.5,-232.5 354.5,-244.5 354.5,-244.5 354.5,-250.5 348.5,-256.5 342.5,-256.5"/>
<text text-anchor="middle" x="316" y="-241.5" font-family="IBM Plex Sans" font-size="10.00">Check</text>
<text text-anchor="middle" x="316" y="-230.5" font-family="IBM Plex Sans" font-size="10.00">content hash</text>
</g>
<!-- ts_new&#45;&gt;hash -->
<g id="edge4" class="edge">
<title>ts_new&#45;&gt;hash</title>
<path fill="none" stroke="black" d="M316,-304.91C316,-293.84 316,-279.2 316,-266.58"/>
<polygon fill="black" stroke="black" points="319.5,-266.57 316,-256.57 312.5,-266.57 319.5,-266.57"/>
<text text-anchor="middle" x="322.5" y="-279.8" font-family="IBM Plex Sans Condensed" font-size="9.00">yes</text>
</g>
<!-- skip -->
<g id="node10" class="node">
<title>skip</title>
<polygon fill="#fffef7" stroke="#8b7a68" stroke-width="2" points="306,-36 252,-36 252,0 306,0 306,-36"/>
<text text-anchor="middle" x="279" y="-14.9" font-family="IBM Plex Sans" font-size="12.00">SKIP</text>
</g>
<!-- ts_new&#45;&gt;skip -->
<g id="edge3" class="edge">
<title>ts_new&#45;&gt;skip</title>
<path fill="none" stroke="black" d="M328.09,-309.57C339.08,-297.58 354.92,-278.43 364,-259 393.82,-195.16 405.42,-169.73 386,-102 379.06,-77.82 374.92,-70.58 356,-54 344.45,-43.88 329.48,-36.18 315.81,-30.62"/>
<polygon fill="black" stroke="black" points="316.75,-27.24 306.16,-26.95 314.26,-33.78 316.75,-27.24"/>
<text text-anchor="middle" x="425" y="-192.8" font-family="IBM Plex Sans Condensed" font-size="9.00" fill="#5a8a5a">no</text>
<text text-anchor="middle" x="425" y="-182.8" font-family="IBM Plex Sans Condensed" font-size="9.00" fill="#5a8a5a">(make stops here)</text>
</g>
<!-- hash_diff -->
<g id="node5" class="node">
<title>hash_diff</title>
<polygon fill="#fffef7" stroke="#d4c9b8" points="316,-162 255,-132 316,-102 377,-132 316,-162"/>
<text text-anchor="middle" x="316" y="-135" font-family="IBM Plex Sans" font-size="10.00">Hash</text>
<text text-anchor="middle" x="316" y="-124" font-family="IBM Plex Sans" font-size="10.00">changed?</text>
</g>
<!-- hash&#45;&gt;hash_diff -->
<g id="edge5" class="edge">
<title>hash&#45;&gt;hash_diff</title>
<path fill="none" stroke="black" d="M316,-220.24C316,-207.19 316,-188.73 316,-172.16"/>
<polygon fill="black" stroke="black" points="319.5,-172.14 316,-162.14 312.5,-172.14 319.5,-172.14"/>
</g>
<!-- rebuild -->
<g id="node9" class="node">
<title>rebuild</title>
<polygon fill="#d4c9b8" stroke="#8b7a68" stroke-width="2" points="197,-36 131,-36 131,0 197,0 197,-36"/>
<text text-anchor="middle" x="164" y="-14.9" font-family="IBM Plex Sans" font-size="12.00">REBUILD</text>
</g>
<!-- hash_diff&#45;&gt;rebuild -->
<g id="edge7" class="edge">
<title>hash_diff&#45;&gt;rebuild</title>
<path fill="none" stroke="black" d="M292.25,-113.5C266.11,-94.24 223.98,-63.2 195.19,-41.98"/>
<polygon fill="black" stroke="black" points="197.21,-39.12 187.09,-36.01 193.06,-44.76 197.21,-39.12"/>
<text text-anchor="middle" x="255.5" y="-66.8" font-family="IBM Plex Sans Condensed" font-size="9.00" fill="#a05a4a">yes</text>
</g>
<!-- hash_diff&#45;&gt;skip -->
<g id="edge6" class="edge">
<title>hash_diff&#45;&gt;skip</title>
<path fill="none" stroke="black" d="M307.7,-105.87C301.79,-87.99 293.87,-64.01 287.85,-45.78"/>
<polygon fill="black" stroke="black" points="291.1,-44.45 284.63,-36.06 284.45,-46.65 291.1,-44.45"/>
<text text-anchor="middle" x="325.5" y="-76.8" font-family="IBM Plex Sans Condensed" font-size="9.00" fill="#5a8a5a">no — touched</text>
<text text-anchor="middle" x="325.5" y="-66.8" font-family="IBM Plex Sans Condensed" font-size="9.00" fill="#5a8a5a">but unchanged</text>
<text text-anchor="middle" x="325.5" y="-56.8" font-family="IBM Plex Sans Condensed" font-size="9.00" fill="#5a8a5a">(tup, ninja)</text>
</g>
<!-- cmd_diff -->
<g id="node7" class="node">
<title>cmd_diff</title>
<polygon fill="#fffef7" stroke="#d4c9b8" points="64,-162 0,-132 64,-102 128,-132 64,-162"/>
<text text-anchor="middle" x="64" y="-135" font-family="IBM Plex Sans" font-size="10.00">Command</text>
<text text-anchor="middle" x="64" y="-124" font-family="IBM Plex Sans" font-size="10.00">changed?</text>
</g>
<!-- cmd&#45;&gt;cmd_diff -->
<g id="edge9" class="edge">
<title>cmd&#45;&gt;cmd_diff</title>
<path fill="none" stroke="black" d="M80.7,-220.24C78.09,-206.61 74.35,-187.09 71.08,-169.97"/>
<polygon fill="black" stroke="black" points="74.43,-168.86 69.11,-159.7 67.55,-170.18 74.43,-168.86"/>
</g>
<!-- cmd_diff&#45;&gt;rebuild -->
<g id="edge10" class="edge">
<title>cmd_diff&#45;&gt;rebuild</title>
<path fill="none" stroke="black" d="M60.6,-103.45C60.12,-87.46 62.27,-67.82 73,-54 84.54,-39.13 103.22,-30.58 120.66,-25.66"/>
<polygon fill="black" stroke="black" points="121.86,-28.96 130.72,-23.16 120.18,-22.17 121.86,-28.96"/>
<text text-anchor="middle" x="94" y="-76.8" font-family="IBM Plex Sans Condensed" font-size="9.00" fill="#a05a4a">yes — flags</text>
<text text-anchor="middle" x="94" y="-66.8" font-family="IBM Plex Sans Condensed" font-size="9.00" fill="#a05a4a">changed</text>
<text text-anchor="middle" x="94" y="-56.8" font-family="IBM Plex Sans Condensed" font-size="9.00" fill="#a05a4a">(ninja)</text>
</g>
<!-- cmd_diff&#45;&gt;skip -->
<g id="edge11" class="edge">
<title>cmd_diff&#45;&gt;skip</title>
<path fill="none" stroke="black" d="M90.95,-114.51C117.87,-98.29 160.66,-73.25 199,-54 212.85,-47.05 228.39,-40.07 242.06,-34.19"/>
<polygon fill="black" stroke="black" points="243.8,-37.25 251.64,-30.12 241.07,-30.81 243.8,-37.25"/>
<text text-anchor="middle" x="204" y="-66.8" font-family="IBM Plex Sans Condensed" font-size="9.00" fill="#5a8a5a">no</text>
</g>
<!-- prog&#45;&gt;rebuild -->
<g id="edge13" class="edge">
<title>prog&#45;&gt;rebuild</title>
<path fill="none" stroke="black" stroke-dasharray="1,5" d="M187.18,-217.69C184.35,-202.5 180.56,-180.98 178,-162 172.59,-121.88 168.41,-75.17 166.08,-46.34"/>
<polygon fill="black" stroke="black" points="169.56,-45.91 165.28,-36.22 162.58,-46.46 169.56,-45.91"/>
<text text-anchor="middle" x="187" y="-129.8" font-family="IBM Plex Sans Condensed" font-size="9.00" fill="#a05a4a">stale</text>
</g>
<!-- prog&#45;&gt;skip -->
<g id="edge14" class="edge">
<title>prog&#45;&gt;skip</title>
<path fill="none" stroke="black" stroke-dasharray="1,5" d="M194.35,-217.58C199.32,-190.6 209.94,-141.29 227,-102 235.86,-81.6 249.24,-60.38 260.21,-44.51"/>
<polygon fill="black" stroke="black" points="263.11,-46.47 266.01,-36.27 257.39,-42.43 263.11,-46.47"/>
<text text-anchor="middle" x="236.5" y="-129.8" font-family="IBM Plex Sans Condensed" font-size="9.00" fill="#5a8a5a">fresh</text>
</g>
</g>
</svg>
